<svg enable-background="new 0 0 64 64" height="512" viewBox="0 0 64 64" width="512" xmlns="http://www.w3.org/2000/svg"><g id="Icons"><g><g><path d="m30 12h4v4h-4z" fill="#d2aa82"/></g><g><path d="m33 14h-2c-1.657 0-3-1.343-3-3v-4c0-1.657 1.343-3 3-3h2c1.657 0 3 1.343 3 3v4c0 1.657-1.343 3-3 3z" fill="#f0c8a0"/></g><g><path d="m25 32v10h6v-3c0-.552.448-1 1-1 .552 0 1 .448 1 1v3h6v-10z" fill="#0a5078"/></g><g><path d="m39 56v-14h-6v16c0 1.105.895 2 2 2h4c1.105 0 2-.895 2-2 0-1.105-.895-2-2-2z" fill="#f0c8a0"/></g><g><path d="m25 42v14c-1.105 0-2 .895-2 2 0 1.105.895 2 2 2h4c1.105 0 2-.895 2-2v-16z" fill="#f0c8a0"/></g><g><path d="m31 4c-1.657 0-3 1.343-3 3v2c.552 0 1-.448 1-1 0-.552.448-1 1-1h4c.552 0 1 .448 1 1 0 .552.448 1 1 1v-2c0-1.657-1.343-3-3-3z" fill="#0a5078"/></g><g><path d="m28 8c-.552 0-1 .448-1 1s.448 1 1 1z" fill="#d2aa82"/></g><g><path d="m36 8c.552 0 1 .448 1 1s-.448 1-1 1z" fill="#d2aa82"/></g><g><path d="m10 21h-4c-1.105 0-2-.895-2-2v-1c0-1.105.895-2 2-2h4z" fill="#d2aa82"/></g><g><path d="m8 14h-1c-.552 0-1 .448-1 1s.448 1 1 1h1c0 1.105.895 2 2 2v-2c0-1.105-.895-2-2-2z" fill="#f0c8a0"/></g><g><path d="m10 16v5h15v11h14v-11h15v-5z" fill="#f0c8a0"/></g><g><path d="m45 18c-2.15 0-4.179.499-6 1.365v1.635h14.642c-2.381-1.873-5.377-3-8.642-3z" fill="#d2aa82"/></g><g><path d="m54 21h4c1.105 0 2-.895 2-2v-1c0-1.105-.895-2-2-2h-4z" fill="#d2aa82"/></g><g><path d="m57 14h-1c-1.105 0-2 .895-2 2v2c1.105 0 2-.895 2-2h1c.552 0 1-.448 1-1s-.448-1-1-1z" fill="#f0c8a0"/></g><g><circle cx="27.5" cy="23.5" fill="#d2aa82" r=".5"/></g><g><circle cx="36.5" cy="23.5" fill="#d2aa82" r=".5"/></g><g><path d="m25 42h6v1h-6z" fill="#d2aa82"/></g><g><path d="m33 42h6v1h-6z" fill="#d2aa82"/></g><g><path d="m49.586 10h-1.586v11c0 .552-.448 1-1 1h-2c-.552 0-1-.448-1-1v-11h-1.586c-.891 0-1.337-1.077-.707-1.707l3.586-3.586c.391-.391 1.024-.391 1.414 0l3.586 3.586c.63.63.184 1.707-.707 1.707zm0 44h-1.586v-11c0-.552-.448-1-1-1h-2c-.552 0-1 .448-1 1v11h-1.586c-.891 0-1.337 1.077-.707 1.707l3.586 3.586c.391.391 1.024.391 1.414 0l3.586-3.586c.63-.63.184-1.707-.707-1.707z" fill="#fab400"/></g><g><g><path d="m47 42h-2c-.552 0-1 .448-1 1v3.851c.656.088 1.32.149 2 .149s1.344-.061 2-.149v-3.851c0-.552-.448-1-1-1z" fill="#dc9600"/></g><g><path d="m46 17c-.68 0-1.344.061-2 .149v3.851c0 .552.448 1 1 1h2c.552 0 1-.448 1-1v-3.851c-.656-.088-1.32-.149-2-.149z" fill="#dc9600"/></g></g><g><path d="m39 19.35v12.65h-8c0-5.58 3.27-10.4 8-12.65z" fill="#d2aa82"/></g><g><path d="m39 32v10h-3.79c-.85-.83-1.6-1.77-2.21-2.79v-.21c0-.41-.25-.77-.61-.92h-.01c-.88-1.84-1.38-3.9-1.38-6.08z" fill="#00325a"/></g><g><path d="m39 42v2.65c-1.41-.67-2.69-1.57-3.79-2.65z" fill="#d2aa82"/></g><g><circle cx="46" cy="32" fill="#c80a50" r="14"/></g><g><g><path d="m39.999 41c-.208 0-.419-.065-.599-.2-.442-.331-.531-.958-.2-1.4l12-16c.331-.441.958-.532 1.4-.2.442.331.531.958.2 1.4l-12 16c-.196.262-.497.4-.801.4z" fill="#f0f0f0"/></g><g><path d="m42 29c-1.654 0-3-1.346-3-3s1.346-3 3-3 3 1.346 3 3-1.346 3-3 3zm0-4c-.551 0-1 .449-1 1s.449 1 1 1 1-.449 1-1-.449-1-1-1z" fill="#f0f0f0"/></g><g><path d="m50 41c-1.654 0-3-1.346-3-3s1.346-3 3-3 3 1.346 3 3-1.346 3-3 3zm0-4c-.551 0-1 .449-1 1s.449 1 1 1 1-.449 1-1-.449-1-1-1z" fill="#f0f0f0"/></g></g></g></g></svg>