<svg id="Capa_1" enable-background="new 0 0 511.996 511.996" viewBox="0 0 511.996 511.996" xmlns="http://www.w3.org/2000/svg"><g><g><g><g><g><g><g><path d="m504.104 277.139c-8.518-29.436-44.103-146.343-77.926-168.061-1.706-1.096-3.655-1.753-5.667-2.001l-31.49-3.88c-10.543-1.301-20.406 5.406-23.076 15.688l-4.771 18.357c-2.797 10.775 3.23 21.879 13.789 25.401l17.423 5.802c5.593 1.862 11.755.269 15.733-4.075 1.638-1.787 2.827-3.851 3.552-6.042l20.07 82.448c-9.13-4.846-23.098-7.134-42.727 2.557-10.865-16.182-33.941-38.181-71.703-17.086l49.008 97.956s71.756 8.128 133.903-36.04c3.5-2.487 5.076-6.898 3.882-11.024z" fill="#ffcec0"/><path d="m500.218 288.168c-62.14 44.16-133.9 36.04-133.9 36.04l-5.69-11.37c26.6-1.77 67.98-9.27 105.81-36.16 3.5-2.49 5.07-6.9 3.88-11.02-7.83-27.06-38.53-128.04-69.72-161.03l19.91 2.45c2.01.25 3.96.9 5.67 2 33.82 21.72 69.41 138.63 77.93 168.06 1.19 4.13-.39 8.54-3.89 11.03z" fill="#fdb0a0"/><path d="m122.984 243.334c-19.629-9.691-33.597-7.403-42.727-2.557l20.07-82.448c.725 2.191 1.914 4.255 3.552 6.042 3.978 4.344 10.14 5.937 15.733 4.075l17.423-5.802c10.558-3.522 16.585-14.626 13.789-25.401l-4.771-18.357c-2.669-10.282-12.532-16.989-23.076-15.688l-31.49 3.88c-2.013.248-3.961.905-5.668 2.001-33.824 21.717-69.408 138.624-77.926 168.06-1.194 4.126.382 8.537 3.883 11.025 62.147 44.168 133.903 36.04 133.903 36.04l49.008-97.956c-37.762-21.095-60.838.904-71.703 17.086z" fill="#ffcec0"/></g><g><path d="m377.123 207.402c-32.678-32.678-85.659-32.678-118.337 0l-2.787 2.787-2.788-2.788c-32.678-32.678-85.659-32.678-118.337 0-32.678 32.678-32.678 85.659 0 118.337l113.778 113.778c4.058 4.058 10.636 4.058 14.694 0l113.778-113.778c32.677-32.677 32.677-85.658-.001-118.336z" fill="#fb3a82"/><path d="m377.118 325.738-113.77 113.78c-4.06 4.06-10.64 4.06-14.7 0l-20.67-20.67 109.12-109.12c32.68-32.68 32.68-85.66 0-118.34-2.89-2.89-5.94-5.52-9.12-7.89 17.96 2.15 35.35 10.11 49.14 23.9 32.68 32.68 32.68 85.66 0 118.34z" fill="#e01058"/></g></g><g><path d="m294.812 79.338h-16.947v-16.946c0-5.523-4.477-10-10-10h-23.734c-5.523 0-10 4.477-10 10v16.947h-16.947c-5.523 0-10 4.477-10 10v23.734c0 5.523 4.477 10 10 10h16.947v16.947c0 5.523 4.477 10 10 10h23.734c5.523 0 10-4.477 10-10v-16.947h16.947c5.523 0 10-4.477 10-10v-23.735c0-5.523-4.477-10-10-10z" fill="#27d1b3"/><path d="m294.811 79.338h-16.95v43.73h16.95c5.52 0 10-4.47 10-10v-23.73c0-5.523-4.477-10-10-10z" fill="#20b69f"/></g></g></g><g><g><path d="m132.809 388.924h-16.947v-16.947c0-5.523-4.477-10-10-10h-23.734c-5.523 0-10 4.477-10 10v16.947h-16.946c-5.523 0-10 4.477-10 10v23.734c0 5.523 4.477 10 10 10h16.947v16.947c0 5.523 4.477 10 10 10h23.734c5.523 0 10-4.477 10-10v-16.947h16.947c5.523 0 10-4.477 10-10v-23.734c-.001-5.523-4.478-10-10.001-10z" fill="#27d1b3"/><path d="m132.808 388.923h-16.95v43.73h16.95c5.52 0 10-4.47 10-10v-23.73c0-5.523-4.477-10-10-10z" fill="#20b69f"/></g><g><path d="m456.817 388.924h-16.947v-16.947c0-5.523-4.477-10-10-10h-23.734c-5.523 0-10 4.477-10 10v16.947h-16.947c-5.523 0-10 4.477-10 10v23.734c0 5.523 4.477 10 10 10h16.947v16.947c0 5.523 4.477 10 10 10h23.734c5.523 0 10-4.477 10-10v-16.947h16.947c5.523 0 10-4.477 10-10v-23.734c0-5.523-4.478-10-10-10z" fill="#27d1b3"/><path d="m456.816 388.923h-16.95v43.73h16.95c5.52 0 10-4.47 10-10v-23.73c0-5.523-4.477-10-10-10z" fill="#20b69f"/></g></g></g></g><g><path d="m511.308 275.054c-5.097-17.615-18.814-62.909-36.062-102.963-1.639-3.803-6.05-5.56-9.855-3.922-3.804 1.639-5.56 6.051-3.922 9.855 16.913 39.274 30.412 83.855 35.432 101.199.302 1.042-.11 2.178-1.023 2.827-36.137 25.683-75.52 33.061-101.826 34.782 9.809-14.783 15.081-32.117 15.081-50.263 0-7.373-.883-14.609-2.573-21.598 8.14-1.696 15.412-.89 21.666 2.429.056.03.115.05.171.078.145.072.287.147.438.21.056.023 5.686 2.694 8.754 10.73 1.142 2.989 3.988 4.826 7.009 4.826.889 0 1.793-.159 2.674-.495 3.869-1.478 5.809-5.812 4.331-9.683-3.596-9.417-9.497-14.625-13.331-17.18l-19.312-79.333c-.791-3.252-3.642-5.586-6.985-5.721-3.359-.124-6.372 1.963-7.423 5.14-.408 1.236-1.068 2.357-1.962 3.332-1.974 2.157-5.045 2.95-7.832 2.023l-17.419-5.8c-6.791-2.266-10.701-9.471-8.903-16.4l4.772-18.359c1.715-6.61 8.117-10.957 14.898-10.13l31.49 3.88c.955.118 1.83.418 2.533.87 5.157 3.311 13.75 11.797 25.397 33.42 1.963 3.646 6.513 5.012 10.159 3.046 3.646-1.964 5.011-6.513 3.046-10.159-10.72-19.901-20.696-32.635-30.495-38.927-2.583-1.66-5.628-2.745-8.806-3.137l-31.49-3.88c-14.218-1.75-27.653 7.38-31.252 21.245l-4.772 18.36c-3.771 14.538 4.432 29.647 18.68 34.401l17.423 5.802c5.974 1.99 12.397 1.343 17.754-1.544l13.534 55.601c-5.523-.811-12.041-.72-19.508 1.048-4.513-10.533-11.023-20.221-19.37-28.568-34.723-34.722-90.714-35.53-126.428-2.422-35.713-33.108-91.705-32.3-126.428 2.423-8.461 8.461-14.883 18.193-19.317 28.578-7.489-1.782-14.022-1.873-19.562-1.059l13.535-55.602c5.358 2.888 11.78 3.532 17.754 1.545l17.427-5.804c14.245-4.752 22.448-19.862 18.674-34.402l-4.772-18.353c-3.6-13.866-17.036-22.998-31.252-21.247l-31.49 3.88c-3.177.391-6.222 1.476-8.803 3.135-15.95 10.241-32.752 37.937-51.368 84.672-14.375 36.09-25.566 73.294-29.71 87.614-2.072 7.16.638 14.886 6.743 19.224 12.265 8.717 25.786 16.084 40.186 21.896.92.371 1.87.547 2.805.547 2.968 0 5.778-1.773 6.958-4.694 1.55-3.842-.307-8.212-4.148-9.763-13.314-5.374-25.8-12.175-37.111-20.213-.914-.649-1.325-1.785-1.023-2.827 18.99-65.622 49.967-147.905 74.776-163.836.7-.45 1.575-.75 2.53-.868l31.492-3.88c6.776-.826 13.182 3.519 14.898 10.132l4.77 18.354c1.799 6.933-2.111 14.138-8.899 16.401l-17.423 5.802c-2.785.929-5.858.132-7.833-2.025-.892-.973-1.551-2.094-1.961-3.333-1.052-3.177-4.066-5.256-7.424-5.137-3.343.136-6.192 2.47-6.983 5.721l-19.311 79.333c-3.834 2.556-9.736 7.764-13.331 17.182-1.477 3.87.462 8.204 4.332 9.682.88.336 1.784.495 2.673.495 3.02 0 5.867-1.838 7.008-4.827 3.057-8.007 8.635-10.671 8.872-10.78l-.118.052-.007-.018c.207-.087.416-.165.616-.271 6.268-3.326 13.554-4.133 21.711-2.424-5.863 24.219-1.708 50.388 12.466 71.84-9.727-.65-21.532-2.093-34.441-5.066-4.034-.933-8.062 1.59-8.992 5.625-.93 4.037 1.589 8.062 5.625 8.992 20.719 4.772 38.812 5.867 50.67 5.917l112.533 112.533c3.487 3.487 8.069 5.231 12.65 5.231s9.162-1.744 12.65-5.231l59.166-59.166c2.929-2.93 2.929-7.678 0-10.607-2.93-2.928-7.678-2.928-10.607 0l-59.166 59.166c-1.125 1.126-2.959 1.127-4.086 0l-113.778-113.776c-29.701-29.702-29.701-78.03 0-107.731s78.028-29.702 107.729-.001l2.788 2.788c1.407 1.407 3.314 2.197 5.304 2.197s3.897-.791 5.304-2.197l2.786-2.787c14.388-14.389 33.518-22.312 53.865-22.312 20.348 0 39.477 7.924 53.864 22.312 14.389 14.388 22.312 33.517 22.312 53.864s-7.924 39.477-22.312 53.864l-31.396 31.398c-2.929 2.929-2.929 7.677.001 10.606 2.928 2.928 7.677 2.927 10.606-.001l30.151-30.151c26.634-.107 77.328-5.277 123.385-38.01 6.107-4.338 8.816-12.063 6.744-19.222z"/><path d="m217.185 130.572h9.446v9.447c0 9.649 7.851 17.5 17.5 17.5h23.734c9.649 0 17.5-7.851 17.5-17.5v-9.447h9.446c9.649 0 17.5-7.851 17.5-17.5v-23.734c0-9.649-7.851-17.5-17.5-17.5h-9.446v-9.446c0-9.649-7.851-17.5-17.5-17.5h-23.734c-9.649 0-17.5 7.851-17.5 17.5v9.446h-9.446c-9.649 0-17.5 7.851-17.5 17.5v23.734c0 9.65 7.85 17.5 17.5 17.5zm-2.5-41.234c0-1.379 1.122-2.5 2.5-2.5h16.946c4.142 0 7.5-3.357 7.5-7.5v-16.946c0-1.379 1.122-2.5 2.5-2.5h23.734c1.379 0 2.5 1.121 2.5 2.5v16.946c0 4.143 3.357 7.5 7.5 7.5h16.946c1.379 0 2.5 1.121 2.5 2.5v23.734c0 1.379-1.121 2.5-2.5 2.5h-16.946c-4.143 0-7.5 3.357-7.5 7.5v16.947c0 1.379-1.121 2.5-2.5 2.5h-23.734c-1.378 0-2.5-1.121-2.5-2.5v-16.947c0-4.143-3.358-7.5-7.5-7.5h-16.946c-1.378 0-2.5-1.121-2.5-2.5z"/><path d="m255.999 348.036c14.789 0 28.349-7.475 36.271-19.994 2.215-3.501 1.173-8.134-2.327-10.349-3.5-2.213-8.133-1.173-10.349 2.327-5.157 8.15-13.978 13.016-23.596 13.016s-18.438-4.865-23.595-13.015c-2.214-3.5-6.846-4.542-10.348-2.328-3.5 2.215-4.542 6.848-2.328 10.348 7.923 12.521 21.483 19.995 36.272 19.995z"/><path d="m226.589 290.414v-5.135c0-4.143-3.358-7.5-7.5-7.5s-7.5 3.357-7.5 7.5v5.135c0 4.143 3.358 7.5 7.5 7.5s7.5-3.357 7.5-7.5z"/><path d="m300.408 290.414v-5.135c0-4.143-3.357-7.5-7.5-7.5s-7.5 3.357-7.5 7.5v5.135c0 4.143 3.357 7.5 7.5 7.5s7.5-3.357 7.5-7.5z"/><path d="m132.809 381.424h-9.447v-9.447c0-9.649-7.851-17.5-17.5-17.5h-23.734c-9.649 0-17.5 7.851-17.5 17.5v9.447h-9.447c-9.649 0-17.5 7.851-17.5 17.5v23.734c0 9.649 7.851 17.5 17.5 17.5h9.447v9.446c0 9.649 7.851 17.5 17.5 17.5h23.734c9.649 0 17.5-7.851 17.5-17.5v-9.446h9.447c9.649 0 17.5-7.851 17.5-17.5v-23.734c0-9.65-7.85-17.5-17.5-17.5zm2.5 41.234c0 1.379-1.122 2.5-2.5 2.5h-16.947c-4.142 0-7.5 3.357-7.5 7.5v16.946c0 1.379-1.122 2.5-2.5 2.5h-23.734c-1.378 0-2.5-1.121-2.5-2.5v-16.946c0-4.143-3.358-7.5-7.5-7.5h-16.946c-1.378 0-2.5-1.121-2.5-2.5v-23.734c0-1.379 1.122-2.5 2.5-2.5h16.947c4.142 0 7.5-3.357 7.5-7.5v-16.947c0-1.379 1.122-2.5 2.5-2.5h23.734c1.378 0 2.5 1.121 2.5 2.5v16.947c0 4.143 3.358 7.5 7.5 7.5h16.947c1.378 0 2.5 1.121 2.5 2.5v23.734z"/><path d="m456.816 381.424h-9.446v-9.447c0-9.649-7.851-17.5-17.5-17.5h-23.734c-9.649 0-17.5 7.851-17.5 17.5v9.447h-9.446c-9.649 0-17.5 7.851-17.5 17.5v23.734c0 9.649 7.851 17.5 17.5 17.5h9.446v9.446c0 9.649 7.851 17.5 17.5 17.5h23.734c9.649 0 17.5-7.851 17.5-17.5v-9.446h9.446c9.649 0 17.5-7.851 17.5-17.5v-23.734c0-9.65-7.85-17.5-17.5-17.5zm2.5 41.234c0 1.379-1.121 2.5-2.5 2.5h-16.946c-4.143 0-7.5 3.357-7.5 7.5v16.946c0 1.379-1.121 2.5-2.5 2.5h-23.734c-1.379 0-2.5-1.121-2.5-2.5v-16.946c0-4.143-3.357-7.5-7.5-7.5h-16.946c-1.379 0-2.5-1.121-2.5-2.5v-23.734c0-1.379 1.121-2.5 2.5-2.5h16.946c4.143 0 7.5-3.357 7.5-7.5v-16.947c0-1.379 1.121-2.5 2.5-2.5h23.734c1.379 0 2.5 1.121 2.5 2.5v16.947c0 4.143 3.357 7.5 7.5 7.5h16.946c1.379 0 2.5 1.121 2.5 2.5z"/></g></g><g/><g/><g/><g/><g/><g/><g/><g/><g/><g/><g/><g/><g/><g/><g/></svg>