<svg id="Capa_1" enable-background="new 0 0 512.008 512.008" viewBox="0 0 512.008 512.008" xmlns="http://www.w3.org/2000/svg"><g><g><path d="m189.34 265.204v207h-134.43l3.67-53.372 10.7-155.638c0-20.71 16.79-37.51 37.51-37.51h43.03c21.83 0 39.52 17.69 39.52 39.52z" fill="#eaf6ff"/><path d="m189.34 265.204v207h-30v-207c0-21.83-17.69-39.52-39.52-39.52h30c21.83 0 39.52 17.69 39.52 39.52z" fill="#d8ecfe"/><path d="m199.333 495.626h-183.688c-4.498 0-8.145-3.647-8.145-8.145v-25.839c0-4.498 3.647-8.145 8.145-8.145h88.627c4.561 0 8.923 1.863 12.076 5.158l12.962 13.546h70.023z" fill="#678d98"/><path d="m464.71 217.697-12.8 45.67c-2.54 9.04-7 18.55-13.84 26.61-7.68 9.05-18.36 16.27-32.69 18.97l-4.32 15.8h-41.81l7.51-26.62c-8.32-2.33-15.87-7.57-21.34-14.33h-.01c-7.28-8.99-10.9-20.66-7.79-31.74l.95-3.38 17.23-61.5z" fill="#ffb09e"/><path d="m464.71 217.694-12.8 45.67c-2.54 9.04-7 18.55-13.84 26.61-7.68 9.05-18.36 16.27-32.69 18.97l-4.32 15.8h-23.697l1.354-4.953c1.659-6.067 5.312-11.46 10.514-14.995 6.665-4.53 10.873-10.02 14.359-14.821 6.21-8.555 11.3-17.57 13.84-26.61l14.4-51.39-.22-3.56z" fill="#f89580"/><path d="m429.15 350.654-31.04 89.13c-2.86 8.21-10.6 13.71-19.3 13.71h-107.13l14.41-39.5.73-2.01 24.58-67.39c4.35-11.92 15.69-19.85 28.37-19.85h63.47c14.31 0 25.91 11.61 25.91 25.91z" fill="#8ac9fe"/><path d="m429.15 350.654-31.04 89.13c-2.86 8.21-10.6 13.71-19.3 13.71l-45.76-41.51 5.01-15.92 17.3-54.9c2.99-9.76 12-16.42 22.2-16.42h25.68c14.31 0 25.91 11.61 25.91 25.91z" fill="#60b7ff"/><path d="m472.713 336.51v20.716c0 4.105-.691 8.169-2.052 12.044l-40.677 115.773c-2.233 6.337-8.219 10.582-14.947 10.582h-37.674l20.414-54.943.33-.901 31.046-89.123v-14.148c0-12.034 9.751-21.785 21.785-21.785s21.775 9.751 21.775 21.785z" fill="#678d98"/><path d="m472.71 336.514v20.71c0 4.11-.69 8.17-2.05 12.05l-40.68 115.77c-2.23 6.34-8.22 10.58-14.94 10.58h-23.68c6.73 0 12.71-4.24 14.95-10.58l40.67-115.77c1.36-3.88 2.05-7.94 2.05-12.05v-20.71c0-7.67-3.95-14.41-9.93-18.29 3.41-2.22 7.47-3.5 11.84-3.5 12.03 0 21.77 9.75 21.77 21.79z" fill="#5f8189"/><path d="m429.15 350.657-21.25 61.02-9.79 28.11c-2.86 8.21-10.6 13.71-19.3 13.71h-126.96c-4.42 0-8-3.58-8-8v-19.03c0-3.79 2.66-7.06 6.37-7.84l31.82-6.64h76.69l5.01-15.92 17.3-54.9c2.99-9.76 12-16.42 22.2-16.42 7.16 0 13.63 2.9 18.32 7.59s7.59 11.16 7.59 18.32z" fill="#ffb09e"/><path d="m429.15 350.654-21.25 61.02-9.79 28.11c-2.86 8.21-10.6 13.71-19.3 13.71h-25.68c8.7 0 16.44-5.5 19.3-13.71l9.79-28.11 21.25-61.02c0-7.16-2.9-13.63-7.59-18.32-1.52-1.53-3.24-2.86-5.1-3.96 3.64-2.32 7.93-3.63 12.46-3.63 7.16 0 13.63 2.9 18.32 7.59s7.59 11.16 7.59 18.32z" fill="#f89580"/><path d="m397.777 440.682-20.414 54.943h-178.03c-6.635 0-12.014-5.379-12.014-12.014 0-16.632 13.483-30.114 30.114-30.114h161.372c8.38 0 15.868-5.096 18.972-12.815z" fill="#7ca1b1"/><path d="m469.935 279.685c-11.583-3.246-18.341-15.267-15.094-26.85l6.902-24.627c3.246-11.583 15.267-18.341 26.85-15.094 11.583 3.246 18.341 15.267 15.094 26.85l-6.902 24.627c-3.247 11.582-15.268 18.34-26.85 15.094z" fill="#678d98"/><path d="m504.5 234.084c0 1.94-.26 3.92-.81 5.88l-6.91 24.63c-3.24 11.58-15.26 18.34-26.85 15.09-3.54-.99-6.64-2.81-9.13-5.18 7.63-1.65 14.12-7.36 16.38-15.41l6.9-24.62c.55-1.97.82-3.95.82-5.9 0-6.02-2.52-11.72-6.79-15.78 3.36-.73 6.94-.67 10.48.32 9.62 2.7 15.91 11.45 15.91 20.97z" fill="#5f8189"/><path d="m76.368 94.396v47.38c0 9.38 1.73 19.73 6.14 29.32 4.94 10.77 13.27 20.6 26.32 27.06v27.53h40.06v-27.53c20.13 0 40.45-16.32 40.45-36.45v-67.31z" fill="#ffcebf"/><path d="m189.34 94.394v67.31c0 20.13-20.32 36.45-40.45 36.45v27.53h-19.58v-21.443c0-3.571 2.198-6.734 5.498-8.1 14.71-6.089 24.532-16.464 24.532-34.438v-67.31h30z" fill="#ffb09e"/><path d="m297.708 260.766 7.011 18.624c1.733 4.605-.176 9.779-4.474 12.156l-29.585 15.049-83.52 31.443c-13.945 3.74-27.087-3.313-37.92-12.822l-34.824-32.426c-10.787-10.044-10.666-27.168.262-37.059 9.351-8.464 23.525-8.694 33.146-.538l39.366 33.371 67.224-17.828 28.869-16.072c5.288-2.952 12.31.43 14.445 6.102z" fill="#c4e2ff"/><path d="m297.708 260.766 7.011 18.624c1.733 4.605-.176 9.779-4.474 12.156l-29.585 15.049-16.267-35.858 28.869-16.072c5.289-2.953 12.311.429 14.446 6.101z" fill="#ffcebf"/><path d="m368.88 265.277c-3.47 6.26-10.73 15.88-23.46 18.52h-.01c-7.28-8.99-10.9-20.66-7.79-31.74l.95-3.38 27.46 9.21c3.06 1.03 4.42 4.57 2.85 7.39z" fill="#eaf6ff"/><path d="m429.15 350.657-21.25 61.02-44.16-15.61 17.3-54.9c2.99-9.76 12-16.42 22.2-16.42 7.16 0 13.63 2.9 18.32 7.59s7.59 11.16 7.59 18.32z" fill="#8ac9fe"/><path d="m429.15 350.654-21.25 61.02-22.86-8.08 16.25-46.65c2.83-8.15 1.25-17.32-4.55-23.71-.28-.3-.56-.6-.86-.9-1.52-1.53-3.24-2.86-5.1-3.96 3.64-2.32 7.93-3.63 12.46-3.63 7.16 0 13.63 2.9 18.32 7.59s7.59 11.16 7.59 18.32z" fill="#60b7ff"/><path d="m189.338 94.396s-10.534 34.742-50.163 39.723l-22.403 64.037v20.23c0 4.031-3.268 7.3-7.3 7.3h-42.627c-7.584 0-13.624-6.347-13.249-13.922l5.171-104.326c1.152-23.246 20.336-41.502 43.61-41.502h68.581c10.151 0 18.38 8.229 18.38 18.38z" fill="#ec806b"/><path d="m189.34 84.314v10.08s-10.54 34.74-50.16 39.73l-22.41 64.03v20.23c0 4.032-3.268 7.3-7.3 7.3h-30c4.03 0 7.3-3.27 7.3-7.3v-20.23l22.41-64.03c4.176-9.286 28.666-25.993 41.817-34.477 5.207-3.36 8.343-9.135 8.343-15.333 0-10.15-8.23-18.38-18.38-18.38h30c10.151 0 18.38 8.229 18.38 18.38z" fill="#db7163"/><path d="m453.538 182.336c10.716 5.631 16.04 17.985 12.773 29.641l-14.405 51.398c-2.534 9.042-6.998 18.553-13.84 26.606l-21.389-23.961c2.061-.899 3.926-2.248 5.434-3.956 1.753-1.986 3.037-4.454 3.601-7.263 1.616-8.055-3.566-15.934-11.477-18.151l-12.584-3.527c3.353-11.963-3.627-24.379-15.59-27.732l-32.301-10.948 3.137-11.17c6.507-23.204 32.746-34.509 54.08-23.3z" fill="#b87d72"/><path d="m466.31 211.974-14.4 51.4c-2.54 9.04-7 18.55-13.84 26.61l-21.39-23.96c2.06-.9 3.92-2.25 5.43-3.96 1.75-1.99 3.04-4.45 3.6-7.26.86-4.27-.19-8.5-2.56-11.85l8.68-30.98c3.27-11.65-2.05-24.01-12.77-29.64l-42.56-22.36c-.13-.07-.25-.13-.38-.19 10.48-5.35 23.38-5.84 34.86.19l42.56 22.36c10.71 5.63 16.04 17.99 12.77 29.64z" fill="#ab695d"/><path d="m470.842 194.441h-155.662c-10.895 0-19.728-8.832-19.728-19.728v-138.603c0-10.895 8.832-19.728 19.728-19.728h155.662c10.895 0 19.728 8.832 19.728 19.728v138.603c0 10.895-8.833 19.728-19.728 19.728z" fill="#fe76a8"/><path d="m490.57 36.114v138.6c0 10.89-8.83 19.73-19.73 19.73h-30c10.9 0 19.73-8.84 19.73-19.73v-138.6c0-10.9-8.83-19.73-19.73-19.73h30c10.9 0 19.73 8.83 19.73 19.73z" fill="#fe5694"/><path d="m400.614 60.823-7.603 6.641-7.603-6.641c-5.001-4.368-11.621-6.409-18.213-5.613-13.179 1.591-22.402 13.806-20.324 26.916l11.014 69.491c.855 5.395 5.506 9.367 10.968 9.367 3.918 0 7.547-2.065 9.548-5.434l14.61-24.595 14.61 24.595c2.001 3.369 5.629 5.434 9.548 5.434 5.462 0 10.113-3.972 10.968-9.367l11.014-69.491c2.078-13.111-7.145-25.326-20.324-26.916-6.593-.795-13.213 1.245-18.213 5.613z" fill="#eaf6ff"/><path d="m439.15 82.124-11.01 69.49c-.43 2.7-1.81 5.04-3.76 6.71s-4.48 2.66-7.21 2.66c-3.92 0-7.55-2.06-9.55-5.43l-7.98-13.43 9.51-60c1.34-8.46-2.02-16.55-8.13-21.64 4.22-3.53 9.53-5.44 14.99-5.44.94 0 1.88.06 2.82.17 13.18 1.59 22.4 13.8 20.32 26.91z" fill="#d8ecfe"/></g><g><path d="m508.237 219.738c-3.832-6.817-10.091-11.734-17.621-13.845-5.277-1.48-10.734-1.451-15.875.014.036-1.412-.018-2.825-.162-4.229 13.25-1.828 23.489-13.22 23.489-26.965v-138.603c0-15.013-12.214-27.228-27.228-27.228h-155.66c-15.014 0-27.228 12.214-27.228 27.228v31.492c0 4.142 3.357 7.5 7.5 7.5s7.5-3.358 7.5-7.5v-31.492c0-6.742 5.485-12.228 12.228-12.228h155.662c6.742 0 12.228 5.485 12.228 12.228v138.603c0 6.743-5.485 12.228-12.228 12.228h-155.662c-6.742 0-12.228-5.485-12.228-12.228v-71.423c0-4.142-3.357-7.5-7.5-7.5s-7.5 3.358-7.5 7.5v71.423c0 15.014 12.214 27.228 27.228 27.228h28.692l-12.521 44.707c-1.229 4.087-2.287 8.328-2.334 12.598-18.252-6.305-54.871-18.572-73.27-24.57-3.935-1.299-8.175.836-9.474 4.769-1.3 3.933.836 8.175 4.769 9.474l17.022 5.623-16.499 9.186-54.724 14.513v-13.037c0-23.697-17.624-43.345-40.45-46.551v-13.59c21.993-3.608 40.199-21.506 40.45-43.359l-.002-77.388c0-14.27-11.609-25.88-25.88-25.88h-68.58c-27.303 0-49.749 21.361-51.102 48.631l-5.172 104.326c-.803 11.51 9.205 22.027 20.74 21.793h6.436c-7.088 7.907-11.432 18.323-11.499 29.738l-10.649 154.874c-.284 4.133 2.836 7.713 6.968 7.997.176.012.35.018.522.018 3.907 0 7.202-3.029 7.475-6.986l10.665-155.119c.012-.171.018-.343.018-.515 0-16.515 13.41-29.955 29.914-30.007.955-.004 41.302-.002 43.126-.002 17.655 0 32.02 14.364 32.02 32.02v9.01l-29.187-24.742c-12.438-10.545-30.938-10.245-43.028.699-14.047 12.176-14.212 35.736-.34 48.108l34.823 32.426c.054.05.108.1.164.148 11.913 10.457 23.681 15.717 35.109 15.716.821 0 1.64-.028 2.458-.082v118.214h-49.326l-10.747-11.23c-4.545-4.75-10.922-7.474-17.495-7.474h-88.627c-8.626 0-15.645 7.018-15.645 15.645v25.839c0 8.626 7.019 15.645 15.645 15.645h399.393c9.887 0 18.736-6.265 22.023-15.596l40.677-115.773c1.643-4.676 2.476-9.564 2.476-14.53v-20.717c0-9.967-5.007-18.782-12.632-24.073l7.625-24.461c13.006.316 25.131-8.264 28.8-21.361l6.902-24.626c2.11-7.532 1.161-15.433-2.672-22.251zm-445.568-3.342c-1.1-1.155-1.661-2.668-1.582-4.26l5.172-104.326c.955-19.274 16.82-34.373 36.119-34.373h68.58c5.999 0 10.88 4.881 10.88 10.88v8.831c-1.942 5.259-12.557 29.629-43.598 33.531-2.824.355-5.204 2.278-6.144 4.965l-22.403 64.037c-.278.796-.421 1.633-.421 2.477v20.027c-.345.002-42.428.002-42.428.002-1.593-.001-3.076-.636-4.175-1.791zm61.603 1.788v-18.753l20.5-58.596c17.211-3.216 29.076-11.526 37.067-20.093v40.962c0 1.451-.146 2.871-.413 4.258h-12.514c-4.143 0-7.5 3.358-7.5 7.5s3.357 7.5 7.5 7.5h3.685c-6.496 5.983-15.462 9.692-23.709 9.692-4.143 0-7.5 3.358-7.5 7.5v20.03zm319.442 46.318c-1.57 4.715-3.649 9.287-6.256 13.535l-9.777-10.952c.021-.023.041-.046.061-.069 2.692-3.062 4.533-6.778 5.32-10.735 2.365-11.764-5.017-23.558-16.798-26.85l-6.281-1.761c.235-10.481-5.157-20.197-13.647-25.73h63.151c.459 2.65.336 5.39-.399 8.01-4.552 15.936-10.71 38.676-15.374 54.552zm-33.237 69.227c6.282 2.627 10.754 8.96 11.136 15.761l-18.319 52.603-30.219-10.681 15.136-48.048c2.037-6.649 8.077-11.117 15.029-11.117 2.481.011 4.961.504 7.237 1.482zm-38.328 154.396h-172.816c-2.489 0-4.515-2.025-4.515-4.514 0-12.47 10.145-22.614 22.614-22.614 25.368-.193 137.447.383 164.874-.216zm-85.231-226.912c1.503-.549 3.271.913 3.771 2.195l7.011 18.624c.408 1.083-.026 2.316-1.011 2.908l-22.439 11.414-10.173-22.425zm-13.615 52.401c.259-.097 30.343-15.383 30.343-15.383.077-.04.153-.08.229-.122 7.506-4.15 10.887-13.334 7.864-21.362l-3.256-8.649 23.734 8.084c4.669 11.496 14.333 21.405 25.454 26.544l-4.096 14.518h-13.805c-15.774 0-30.007 9.958-35.415 24.78l-22.792 62.488c-.354.023-32.886 6.776-32.886 6.776-7.143 1.501-12.327 7.885-12.327 15.18.024.505-.046 19.065.025 19.53h-18.942c-7.598 0-14.672 2.272-20.593 6.161v-109.759zm75.101-38.573c-3.028-4.946-4.792-10.787-4.329-16.607l16.787 5.63c-2.691 4.125-6.712 8.526-12.458 10.977zm42.64 162.219c-1.738 5.135-6.701 8.756-12.234 8.734l-127.46.003v-19.53c0-.24.174-.45.402-.498l31.062-6.482h75.916c3.274 0 6.171-2.125 7.154-5.249l2.681-8.511 29.794 10.532zm-34.457-43.447c-.007.021-.01.043-.017.065l-3.343 10.609h-55.69l20.908-57.323c3.256-8.924 11.825-14.92 21.323-14.92l37.059.003c-1.218 2.063-2.214 4.292-2.942 6.666zm47.404-92.236c-2.819.531-5.089 2.625-5.846 5.393l-2.809 10.274h-26.178l4.818-17.081c1.173-3.861-1.289-8.247-5.195-9.258-3.383-.947-6.656-2.509-9.672-4.569 8.431-5.111 13.629-12.551 16.33-17.422 1.831-3.297 2.103-7.202.745-10.714-1.358-3.513-4.188-6.217-7.77-7.424l-20.703-6.944 11.134-39.745 24.805 8.409c6.618 1.703 11.351 7.702 11.339 14.547-.926 5.018-1.737 11.651 4.636 13.302l12.596 3.532c7.452 1.824 8.451 12.379 1.456 15.273-2.203.962-3.812 2.923-4.325 5.272s.131 4.802 1.732 6.596l16.767 18.781c-6.663 6.09-14.662 10.045-23.86 11.778zm-249.743 18.073-34.74-32.349c-7.525-6.68-7.435-19.436.184-26.009 6.537-5.917 16.538-6.078 23.263-.377l39.366 33.372c1.871 1.586 4.4 2.157 6.772 1.528l61.092-16.202 10.336 22.786-75.654 28.481c-9.173 2.305-19.472-1.471-30.619-11.23zm-139.248 167.831v-25.839c0-.355.289-.645.645-.645h88.627c2.501 0 4.928 1.037 6.657 2.844l12.962 13.545c1.419 1.456 3.295 2.312 5.419 2.317h50.712c-.288 2.76-.341 5.734.345 8.421h-164.722c-.356.001-.645-.288-.645-.643zm450.213-130.255c0 3.268-.548 6.484-1.628 9.558l-40.675 115.768c-1.174 3.334-4.338 5.574-7.873 5.574h-26.886c14.738-38.442 34.485-95.892 48.086-135 .276-.793.417-1.627.417-2.467v-14.149c0-7.877 6.408-14.285 14.285-14.285 7.871 0 14.274 6.408 14.274 14.285zm-14.275-50.001c-11.916 0-22.186 7.158-26.754 17.398-3.948-3.174-8.59-5.442-13.526-6.544l.767-2.804c12.761-3.329 23.603-10.161 32.283-20.353.026-.029.055-.055.08-.085 4.087-4.816 7.593-10.354 10.437-16.361 1.892 2.073 4.093 3.887 6.558 5.362l-7.327 23.503c-.83-.072-1.668-.116-2.518-.116zm45.527-69.285-6.902 24.626c-2.125 7.582-10.021 12.02-17.604 9.896h.001c-7.449-2.088-11.85-9.747-9.987-17.205l7.127-25.433c5.498-17.551 32.314-9.607 27.365 8.116z"/><path d="m159.462 412.675c4.143 0 7.5-3.358 7.5-7.5s-3.357-7.5-7.5-7.5h-26.608c-4.143 0-7.5 3.358-7.5 7.5s3.357 7.5 7.5 7.5z"/><path d="m368.854 168.484c6.531 0 12.661-3.488 15.996-9.104l8.161-13.74 8.162 13.74c8.18 14.765 32.307 10.278 34.371-6.589l11.015-69.491c3.039-16.781-9.862-33.865-26.833-35.536-8.688-1.053-17.455 1.652-24.046 7.41 0 0 0 0-.001 0l-2.668 2.331-2.669-2.331c-6.593-5.759-15.361-8.463-24.045-7.41-16.972 1.67-29.872 18.755-26.833 35.536l11.014 69.492c1.441 9.093 9.169 15.692 18.376 15.692zm-11.557-99.616c2.63-3.482 6.465-5.688 10.798-6.211 4.475-.542 8.984.851 12.379 3.815l7.603 6.641c2.826 2.469 7.043 2.469 9.869 0l7.602-6.641c3.396-2.964 7.907-4.353 12.382-3.815 8.738.86 15.379 9.657 13.815 18.296l-11.015 69.492c-.401 3.269-5.076 4.136-6.66 1.276l-14.61-24.595c-1.352-2.275-3.802-3.669-6.448-3.669s-5.097 1.395-6.448 3.67l-14.609 24.595c-1.585 2.861-6.26 1.991-6.661-1.277l-11.014-69.491c-.684-4.312.387-8.604 3.017-12.086z"/></g></g><g/><g/><g/><g/><g/><g/><g/><g/><g/><g/><g/><g/><g/><g/><g/></svg>