<svg id="Capa_1" enable-background="new 0 0 512 512" height="512" viewBox="0 0 512 512" width="512" xmlns="http://www.w3.org/2000/svg"><g><path d="m483.412 325.302-50.85-69.062c-12.89-19.723-21.744-31.612-45.306-31.612h-8.221v75.497c7.391 3.308 15.288 4.719 22.906 4.184-1.94 12.227 6.15 32.474 21.584 35.815l-57.475 45.125v55.979l111.253-78.365c12.203-8.596 14.96-25.541 6.109-37.561z" fill="#fed2a4"/><path d="m432.927 319.474c-9.171-5.865-14.418-18.161-14.783-27.98-.098-2.629-2.157-4.709-4.786-4.817-11.839-.484-23.933-5.529-33.416-15.012-.314-.314-.6-.645-.905-.965v29.424c7.391 3.308 15.288 4.719 22.906 4.184-1.752 11.045 4.681 28.629 17.316 34.39l14.095-11.066c2.718-2.135 2.485-6.295-.427-8.158z" fill="#ffbd86"/><g><path d="m133.664 311.559c.324.468.613.961.852 1.482 1.527-3.335 4.892-5.67 8.784-5.67s7.256 2.336 8.784 5.67c1.527-3.335 4.893-5.67 8.784-5.67s7.256 2.336 8.784 5.67c1.098-2.397 3.146-4.276 5.655-5.145v-82.785c-1.932-.314-3.911-.484-5.928-.484-20.373 0-37.042 16.669-37.042 37.042v11.113c0 9.271 3.46 17.768 9.141 24.283-3.608 4.136-6.314 9.071-7.814 14.494z" fill="#fed2a4"/></g><path d="m175.305 227.266v-2.135c-1.933-.318-3.909-.503-5.928-.503-20.373 0-37.042 16.669-37.042 37.042v11.113c0 9.271 3.46 17.768 9.141 24.283-3.606 4.135-6.313 9.071-7.812 14.494.324.468.613.961.851 1.482 1.528-3.335 4.893-5.67 8.784-5.67s7.256 2.336 8.784 5.67c.353-.77.813-1.479 1.345-2.125 1.532-5.17 4.163-9.88 7.626-13.851-5.682-6.515-9.141-15.012-9.141-24.283v-11.113c-.001-15.557 9.725-28.941 23.392-34.404z" fill="#ffbd86"/><g><g><g><g><path d="m192.209 504.5h168.697c2.841 0 5.145-2.303 5.145-5.145v-40.554h-178.987v40.554c0 2.842 2.303 5.145 5.145 5.145z" fill="#54469c"/></g></g><g><path d="m229.383 499.355v-40.553h-42.319v40.553c0 2.841 2.303 5.145 5.145 5.145h42.319c-2.842 0-5.145-2.303-5.145-5.145z" fill="#463b84"/></g><path d="m373.891 217.209h-73.777v11.753c0 12.671-10.272 22.944-22.944 22.944s-22.943-10.272-22.943-22.944v-11.753h-73.777c-2.841 0-5.145 2.303-5.145 5.145v85.543c1.16-.401 2.417-.588 3.726-.508 5.143.314 9.065 4.76 9.065 9.912v30.865c0 1.877-.372 3.666-1.032 5.307v105.328h178.986v-113.654l.971-1.331c7.859-10.775 12.015-23.141 12.015-35.748v-85.714c0-2.841-2.303-5.145-5.145-5.145z" fill="#8bc727"/><path d="m212.007 395.528c-2.807 0-5.083-2.275-5.083-5.083v-111.104c0-2.807 2.276-5.083 5.083-5.083h5.989v-51.904c0-2.841 2.303-5.145 5.145-5.145h-42.691c-2.841 0-5.145 2.303-5.145 5.145v85.543c1.159-.401 2.417-.588 3.726-.508 5.143.314 9.065 4.76 9.065 9.912v30.865c0 1.877-.372 3.666-1.032 5.307v105.328h42.319v-63.274h-17.376z" fill="#81b823"/><g><path d="m294.541 199.629h-34.741c-1.89 0-3.747-.136-5.573-.375v29.709c0 12.671 10.272 22.944 22.943 22.944 12.671 0 22.944-10.272 22.944-22.944v-29.709c-1.826.239-3.683.375-5.573.375z" fill="#ffbd86"/></g><g><g><path d="m275.996 228.963v-29.334h-16.196c-1.89 0-3.747-.136-5.573-.375v29.709c0 12.671 10.272 22.944 22.943 22.944 3.939 0 7.646-.994 10.885-2.743-7.18-3.877-12.059-11.469-12.059-20.201z" fill="#f6a96c"/></g></g><g><path d="m203.739 106.387h12.359v-9.358c0-9.051 7.337-16.388 16.388-16.388h89.369c9.051 0 16.388 7.337 16.388 16.388v9.358h12.358c4.417 0 8.544 1.243 12.052 3.396v-36.209c0-36.491-29.582-66.074-66.074-66.074h-74.397c-16.842 0-30.496 13.653-30.496 30.496v71.787c3.509-2.153 7.636-3.396 12.053-3.396z" fill="#bb5d4c"/><path d="m203.739 106.387h12.359v-9.358c0-6.363 3.634-11.867 8.932-14.582v-44.451c0-16.842 13.653-30.496 30.496-30.496h-33.343c-16.842 0-30.496 13.653-30.496 30.496v71.787c3.508-2.153 7.635-3.396 12.052-3.396z" fill="#a44f3e"/><g fill="#fed2a4"><path d="m216.098 106.387h-12.359c-12.746 0-23.079 10.333-23.079 23.079 0 12.746 10.333 23.079 23.079 23.079h12.359z"/><path d="m350.602 106.387h-12.358v46.157h12.358c12.746 0 23.079-10.333 23.079-23.079-.001-12.745-10.333-23.078-23.079-23.078z"/></g><g><path d="m216.098 97.029v59.897c0 24.136 19.566 43.702 43.702 43.702h34.741c24.136 0 43.702-19.566 43.702-43.702v-59.897c0-9.051-7.337-16.388-16.388-16.388h-89.369c-9.051 0-16.388 7.337-16.388 16.388z" fill="#fed2a4"/></g><g><path d="m241.851 156.927v-59.898c0-9.051 7.337-16.388 16.388-16.388h-25.753c-9.051 0-16.388 7.337-16.388 16.388v59.897c0 24.136 19.566 43.702 43.702 43.702h25.753c-24.136 0-43.702-19.566-43.702-43.701z" fill="#ffbd86"/></g></g></g></g><g><g><g fill="#c2bce0"><path d="m97.14 322.187h18.93v25.413h-18.93z"/><path d="m188.096 322.187h18.828v25.413h-18.828z"/></g><g fill="#01d0fb"><path d="m53.33 302.721h-14.69c-8.421 0-15.248 6.827-15.248 15.248v33.849c0 8.421 6.827 15.248 15.248 15.248h14.69z"/><path d="m265.144 302.721h-14.308v64.345h14.308c8.421 0 15.248-6.827 15.248-15.248v-33.849c0-8.422-6.826-15.248-15.248-15.248z"/></g><g><g><g><path d="m92.058 395.528h-33.645c-2.807 0-5.083-2.276-5.083-5.083v-111.104c0-2.807 2.276-5.083 5.083-5.083h33.645c2.807 0 5.083 2.276 5.083 5.083v111.105c-.001 2.807-2.276 5.082-5.083 5.082z" fill="#fd4755"/></g></g><g><path d="m74.186 390.446v-111.105c0-2.807 2.276-5.083 5.083-5.083h-20.856c-2.807 0-5.083 2.276-5.083 5.083v111.105c0 2.807 2.275 5.083 5.083 5.083h20.856c-2.807-.001-5.083-2.276-5.083-5.083z" fill="#fb2b3a"/></g><g><g><path d="m245.753 395.528h-33.746c-2.807 0-5.083-2.276-5.083-5.083v-111.104c0-2.807 2.276-5.083 5.083-5.083h33.746c2.807 0 5.083 2.276 5.083 5.083v111.105c0 2.807-2.276 5.082-5.083 5.082z" fill="#fd4755"/></g></g><g><path d="m227.78 390.446v-111.105c0-2.807 2.276-5.083 5.083-5.083h-20.856c-2.807 0-5.083 2.276-5.083 5.083v111.105c0 2.807 2.275 5.083 5.083 5.083h20.856c-2.807-.001-5.083-2.276-5.083-5.083z" fill="#fb2b3a"/></g></g></g><path d="m130.87 362.415v72.587c0 11.715 9.497 21.213 21.213 21.213 11.715 0 21.213-9.497 21.213-21.213v-72.587z" fill="#fed2a4"/><path d="m147.571 435.003v-72.587h-16.701v72.587c0 11.715 9.497 21.213 21.213 21.213 2.966 0 5.787-.613 8.35-1.712-7.562-3.244-12.862-10.752-12.862-19.501z" fill="#ffbd86"/><g><path d="m143.299 307.371c-3.891 0-7.256 2.336-8.784 5.671-1.605-3.504-5.239-5.905-9.381-5.652-5.143.314-9.065 4.76-9.065 9.912v30.866c0 7.869 6.379 14.248 14.248 14.248h43.529c7.869 0 14.248-6.379 14.248-14.248v-30.866c0-5.152-3.922-9.598-9.065-9.912-4.142-.253-7.776 2.148-9.381 5.652-1.527-3.335-4.892-5.671-8.784-5.671s-7.256 2.336-8.784 5.671c-1.524-3.335-4.89-5.671-8.781-5.671z" fill="#ffbd86"/></g><g><g><path d="m141.97 348.167v-30.865c0-3.874 2.218-7.347 5.503-8.966-1.265-.614-2.679-.964-4.175-.964-3.891 0-7.256 2.336-8.784 5.67-1.605-3.504-5.239-5.905-9.381-5.652-5.143.314-9.065 4.76-9.065 9.912v30.865c0 7.869 6.379 14.248 14.248 14.248h25.9c-7.866 0-14.246-6.379-14.246-14.248z" fill="#f6a96c"/></g></g></g><g><circle cx="326.466" cy="302.721" fill="#fff" r="19.314"/></g><g><path d="m253.84 122.826v-11.211c0-4.143-3.357-7.5-7.5-7.5s-7.5 3.357-7.5 7.5v11.211c0 4.143 3.357 7.5 7.5 7.5s7.5-3.357 7.5-7.5z"/><path d="m308 130.326c4.143 0 7.5-3.357 7.5-7.5v-11.211c0-4.143-3.357-7.5-7.5-7.5s-7.5 3.357-7.5 7.5v11.211c0 4.143 3.358 7.5 7.5 7.5z"/><path d="m264.351 142.396 8.408 6.114c1.332.969 2.875 1.436 4.405 1.436 2.317 0 4.604-1.071 6.071-3.09 2.437-3.351 1.695-8.041-1.654-10.477l-2.112-1.536 3.599-4.581c2.56-3.258 1.993-7.973-1.264-10.531s-7.973-1.993-10.531 1.264l-8.408 10.702c-1.259 1.603-1.812 3.647-1.531 5.666s1.369 3.834 3.017 5.033z"/><path d="m301.301 168.261c2.93-2.929 2.93-7.678.001-10.606s-7.678-2.93-10.606-.001c-7.457 7.459-19.592 7.459-27.049 0-2.93-2.928-7.678-2.928-10.607 0-2.929 2.93-2.929 7.678 0 10.607 6.654 6.653 15.391 9.979 24.131 9.979 8.737-.001 17.478-3.328 24.13-9.979z"/><path d="m489.452 320.855-33.613-45.653c-2.457-3.337-7.154-4.05-10.486-1.594-3.336 2.456-4.049 7.151-1.594 10.486l33.613 45.653c3.075 4.177 4.31 9.296 3.478 14.415-.833 5.119-3.626 9.582-7.866 12.568l-99.434 70.041v-37.875l54.607-42.874c2.286-1.795 3.329-4.749 2.677-7.582-.651-2.832-2.881-5.033-5.722-5.647-10.725-2.321-17.211-18.186-15.764-27.31.358-2.258-.333-4.557-1.878-6.242-1.546-1.686-3.771-2.584-6.055-2.414-5.021.356-10.057-.307-14.881-1.854v-62.845h.721c17.311 0 24.732 6.881 35.804 23.342 2.312 3.438 6.972 4.348 10.409 2.038 3.438-2.312 4.35-6.973 2.038-10.409-11.029-16.397-22.272-29.971-48.251-29.971h-1.865c-1.993-4.369-6.393-7.419-11.5-7.419h-66.277v-3.278c20.952-5.537 36.677-24.052 38.026-46.387h4.962c16.861 0 30.579-13.718 30.579-30.578 0-9.431-4.294-17.877-11.027-23.491v-32.401c0-12.517-3.214-24.894-9.295-35.793-2.018-3.617-6.588-4.915-10.204-2.896-3.617 2.019-4.913 6.587-2.896 10.204 4.838 8.67 7.395 18.52 7.395 28.484v25.653c-1.486-.223-3.005-.34-4.552-.34h-4.858v-1.857c0-13.172-10.717-23.889-23.889-23.889h-25.144l-24.024-24.024c-2.93-2.928-7.678-2.928-10.607 0-2.929 2.93-2.929 7.678 0 10.607l13.417 13.417h-15.386l-24.024-24.024c-2.93-2.928-7.678-2.928-10.607 0-2.929 2.93-2.929 7.678 0 10.607l13.417 13.417h-6.409c-13.172 0-23.888 10.717-23.888 23.889v1.857h-4.858c-1.547 0-3.066.118-4.552.34v-61.23c0-12.68 10.315-22.996 22.995-22.996h74.397c10.34 0 20.517 2.746 29.431 7.94 3.579 2.082 8.171.874 10.257-2.704 2.085-3.579.874-8.171-2.704-10.257-11.207-6.528-23.995-9.979-36.985-9.979h-74.397c-20.95 0-37.995 17.045-37.995 37.996v67.979c-6.733 5.614-11.027 14.059-11.027 23.491 0 16.86 13.718 30.578 30.579 30.578h4.962c1.349 22.335 17.073 40.85 38.025 46.387v3.278h-66.277c-5.112 0-9.514 3.055-11.506 7.43-24.361.235-44.109 20.116-44.109 44.531v11.112c0 8.65 2.545 17.08 7.255 24.283-.716 1.095-1.362 2.228-1.976 3.376-1.737-.454-3.566-.647-5.435-.538-8.16.498-14.704 6.788-15.896 14.783h-4.143v-35.346c0-6.938-5.645-12.583-12.582-12.583h-33.646c-6.938 0-12.582 5.645-12.582 12.583v15.88h-7.19c-12.543 0-22.747 10.205-22.747 22.748v33.849c0 12.543 10.204 22.748 22.747 22.748h7.19v15.88c0 6.938 5.645 12.583 12.582 12.583h33.646c6.938 0 12.582-5.645 12.582-12.583v-35.345h5.067c2.166 6.416 7.248 11.501 13.664 13.671v66.233c0 15.832 12.881 28.712 28.713 28.712 12.941 0 23.906-8.607 27.48-20.396v56.037c0 6.973 5.672 12.645 12.645 12.645h168.697c6.973 0 12.645-5.672 12.645-12.645v-54.237l108.072-76.125c7.563-5.328 12.547-13.291 14.033-22.424 1.485-9.132-.718-18.264-6.204-25.716zm-115.902 26.731c8-11.218 12.442-23.969 12.936-37.067 2.592.598 5.22 1.011 7.869 1.226 1.012 10.465 6.17 22.5 15.253 29.77l-36.058 28.31zm-334.91 11.979c-4.271 0-7.747-3.476-7.747-7.748v-33.849c0-4.272 3.476-7.748 7.747-7.748h7.19v49.345zm51 28.463h-28.81v-106.27h28.81zm15-58.341h3.93v10.413h-3.93zm157.087-121.558h30.887v20.834c0 8.516-6.928 15.443-15.443 15.443s-15.443-6.928-15.443-15.443v-20.834zm88.875-94.242c8.591 0 15.579 6.988 15.579 15.579 0 8.59-6.988 15.578-15.579 15.578h-4.858v-31.157zm-162.442 15.579c0-8.591 6.988-15.579 15.579-15.579h4.858v31.157h-4.858c-8.59 0-15.579-6.988-15.579-15.578zm35.438 27.461v-59.898c0-4.901 3.987-8.889 8.888-8.889h89.369c4.901 0 8.889 3.987 8.889 8.889v59.897c0 19.962-16.24 36.202-36.202 36.202h-34.742c-19.962.001-36.202-16.239-36.202-36.201zm-83.763 104.743c0-15.761 12.409-28.679 27.97-29.499v69.186c-2.151-.959-4.507-1.486-6.938-1.486-3.148 0-6.173.875-8.783 2.439-1.244-.745-2.583-1.328-3.983-1.74 1.425-2.69 1.106-6.053-.971-8.434-4.703-5.393-7.294-12.267-7.294-19.354v-11.112zm25.961 173.333c0 7.561-6.151 13.712-13.713 13.712s-13.713-6.151-13.713-13.712v-65.088h27.426zm14.8-86.836c0 3.721-3.027 6.748-6.748 6.748h-43.529c-3.722 0-6.749-3.027-6.749-6.748v-30.865c0-1.248.926-2.359 2.024-2.426.047-.003.094-.005.139-.005 1.009 0 1.686.686 1.965 1.294 1.222 2.667 3.886 4.377 6.818 4.377 2.934 0 5.598-1.71 6.819-4.377.272-.597.951-1.294 1.964-1.294 1.014 0 1.692.697 1.965 1.294 1.222 2.667 3.886 4.377 6.819 4.377s5.598-1.71 6.819-4.377c.272-.597.951-1.294 1.964-1.294 1.014 0 1.692.697 1.965 1.294 1.222 2.667 3.887 4.377 6.82 4.377s5.598-1.711 6.818-4.378c.291-.636 1.001-1.354 2.105-1.288 1.095.066 2.021 1.178 2.021 2.426v30.865zm18.828-18.48v10.413h-3.828v-10.413zm172.111-21.619c0 11.011-3.656 21.844-10.571 31.326l-.972 1.331c-.938 1.283-1.442 2.832-1.442 4.422v106.154h-79.554c-4.143 0-7.5 3.357-7.5 7.5s3.357 7.5 7.5 7.5h79.554v30.699h-163.986v-30.698h49.433c4.143 0 7.5-3.357 7.5-7.5s-3.357-7.5-7.5-7.5h-49.433v-96.202h4.86v35.346c0 6.938 5.645 12.583 12.583 12.583h33.746c6.938 0 12.583-5.645 12.583-12.583v-15.88h6.809c12.543 0 22.748-10.205 22.748-22.748v-33.849c0-12.543-10.205-22.748-22.748-22.748h-6.809v-15.88c0-6.938-5.645-12.583-12.583-12.583h-33.746c-6.938 0-12.583 5.645-12.583 12.583v35.346h-4.032c-1.025-6.879-6.016-12.495-12.587-14.246v-75.732h63.922v4.254c0 16.786 13.657 30.443 30.443 30.443s30.443-13.657 30.443-30.443v-4.254h63.922zm-157.111 79.96v-106.27h28.912v106.271h-28.912zm43.912-77.807h6.809c4.272 0 7.748 3.476 7.748 7.748v33.849c0 4.272-3.476 7.748-7.748 7.748h-6.809z"/><path d="m299.652 302.721c0 14.785 12.028 26.813 26.813 26.813s26.814-12.028 26.814-26.813-12.029-26.813-26.814-26.813-26.813 12.028-26.813 26.813zm38.628 0c0 6.514-5.3 11.813-11.814 11.813s-11.813-5.3-11.813-11.813 5.3-11.813 11.813-11.813c6.515-.001 11.814 5.299 11.814 11.813z"/></g></g></svg>