<svg id="Capa_1" enable-background="new 0 0 510 510" viewBox="0 0 510 510" xmlns="http://www.w3.org/2000/svg"><g><g><g><g><g><path d="m178.287 240.444v213.492h48.406l11.594-155.011 7.716 103.509c1.019 13.665 12.403 24.232 26.106 24.232 14.458 0 26.178-11.72 26.178-26.178v-160.044z" fill="#93b2f4"/></g><g><path d="m239.319 312.774 6.684 89.659c1.019 13.665 12.403 24.232 26.106 24.232 14.458 0 26.178-11.72 26.178-26.178v-87.713z" fill="#fff"/></g></g><g><g><path d="m370.223 274.66-25.7-118.809c-7.807-36.093-39.732-61.851-76.66-61.851h-58.577c-38.66 0-70 31.34-70 70v30.866c0 25.172 20.406 45.578 45.578 45.578h132.448l11.454 44.081c2.441 9.394 10.921 15.952 20.626 15.952 13.586 0 23.703-12.54 20.831-25.817z" fill="#fdcb50"/></g><g><g><path d="m272.178 131.505c0-12.74 1.486-25.131 4.282-37.018-2.83-.31-5.695-.487-8.596-.487h-58.577c-38.66 0-70 31.34-70 70v30.866c0 25.172 20.406 45.578 45.578 45.578h129.762c-26.354-28.674-42.449-66.925-42.449-108.939z" fill="#fd8f01"/></g></g></g><g><path d="m187.173 97.586v142.857h66.636l-29.33-146.443h-15.193c-7.73 0-15.16 1.272-22.113 3.586z" fill="#fff"/></g><g><circle cx="238.287" cy="52" fill="#d46b5c" r="42"/></g><g><g><path d="m209.493 453.936h-14.324c-11.233 0-20.34 9.106-20.34 20.34v25.724h55.003v-25.725c.001-11.233-9.106-20.339-20.339-20.339z" fill="#fff"/></g></g></g><g><g><path d="m370.713 256.477h-50.427c-12.15 0-22-9.85-22-22 0-12.15 9.85-22 22-22h29.887c11.344 0 20.539 9.196 20.539 20.539v23.461z" fill="#fd7da0"/></g></g></g><g><g><path d="m260.138 332.312h20v64.948h-20z" fill="#93b2f4" transform="matrix(.499 -.867 .867 .499 -180.765 417.033)"/></g><path d="m365.77 206.773-11.472-53.037c-4.258-19.682-15.233-37.484-30.905-50.128-12.846-10.364-28.413-16.904-44.698-18.928 7.241-8.937 11.592-20.308 11.592-32.679.001-13.89-5.408-26.948-15.229-36.77-9.824-9.822-22.881-15.231-36.771-15.231-28.672 0-52 23.327-52.001 52 0 12.433 4.391 23.857 11.697 32.813-38.777 5.51-68.697 38.912-68.697 79.187v30.866c0 24.875 16.427 45.983 39.001 53.052v206.018c0 1.599.385 3.105 1.052 4.445-2.857 4.626-4.51 10.07-4.51 15.895v25.724c0 5.523 4.478 10 10 10h55.004c5.522 0 10-4.477 10-10v-25.725c0-5.707-1.586-11.05-4.337-15.614.644-1.199 1.061-2.541 1.168-3.979l2.879-38.487c5.903 12.133 18.39 20.471 32.565 20.471 19.949 0 36.179-16.229 36.179-36.178v-136.354c1.691.687 3.453 1.235 5.272 1.626l5.53 21.28c3.585 13.8 16.047 23.438 30.305 23.438 3.937 0 7.761-.738 11.32-2.115v26.115h-12.865c-5.522 0-10 4.477-10 10s4.478 10 10 10h12.865v145.522c0 5.523 4.478 10 10 10s10-4.477 10-10v-266.984c0-11.144-6.004-20.91-14.944-26.243zm-127.483-186.773c8.547 0 16.583 3.329 22.627 9.373s9.372 14.08 9.372 22.627c0 17.645-14.355 32-32 32s-32-14.355-32-32c.001-17.645 14.357-32 32.001-32zm-41.114 85.23c3.914-.806 7.965-1.23 12.113-1.23h6.997l25.324 126.444h-44.434zm-20 124.367c-15.932-3.526-27.887-17.755-27.887-34.731v-30.866c0-21.276 11.142-39.988 27.887-50.644zm42.66 260.403h-35.004v-15.725c0-5.701 4.639-10.34 10.34-10.34h14.324c5.701 0 10.34 4.639 10.34 10.34zm68.454-89.513c0 8.921-7.258 16.178-16.179 16.178-8.421 0-15.507-6.578-16.133-14.975l-5.883-78.916h38.194v77.713zm0-97.713h-39.685l-.342-4.593c-.39-5.22-4.737-9.256-9.972-9.257 0 0 0 0-.001 0-5.233 0-9.582 4.035-9.972 9.254l-10.903 145.757h-29.125v-193.491h100zm-31.489-98.33h18.49c7.168 0 12.999 5.832 12.999 13s-5.831 13-12.999 13h-13.282zm51.168-39.737c-1.266-4.87-5.952-8.043-10.946-7.405-4.992.638-8.732 4.887-8.732 9.919v19.896c-3.992-1.718-8.386-2.673-13-2.673h-22.495l-16.112-80.444h31.182c15.583 0 30.844 5.389 42.971 15.173 12.128 9.785 20.621 23.561 23.915 38.792l9.628 44.512h-26.597zm50.231 121.561c-2.158 2.675-5.367 4.209-8.804 4.209-5.15 0-9.652-3.481-10.947-8.467l-4.036-15.533h23.812l2.227 10.297c.727 3.359-.094 6.819-2.252 9.494zm2.517-39.791h-40.428c-6.611 0-11.988-5.373-11.999-11.981v-.039c.011-6.608 5.388-11.981 11.999-11.981h29.888c5.812 0 10.54 4.728 10.54 10.54z" fill="#052a75"/></g></g><g/><g/><g/><g/><g/><g/><g/><g/><g/><g/><g/><g/><g/><g/><g/></svg>