<svg id="Capa_1" enable-background="new 0 0 512 512" height="512" viewBox="0 0 512 512" width="512" xmlns="http://www.w3.org/2000/svg"><g><g clip-rule="evenodd" fill-rule="evenodd"><path d="m140 286c-33 0-60 27-60 60s27 60 60 60c20.64 0 37.527 16.89 37.527 37.527v32.473h67.527v-72.473c0-20.638-16.887-37.527-37.527-37.527h116.708c9.095-40.079 44.935-70 87.766-70 7.815 0 15.397.998 22.626 2.87 4.63 1.199 9.113 2.76 13.423 4.646 1.273-5.642 1.95-11.504 1.95-17.516 0-44-36-79.999-79.999-79.999h-55c33 0 60-27 60-60s-27-60-60-60c-20.64 0-37.527-16.889-37.527-37.527v-12.473h-67.527v52.473c0 20.638 16.887 37.527 37.527 37.527h-157.475c-43.999-.001-79.999 35.999-79.999 79.999s36 80 79.999 80z" fill="#ffbdbc"/><path d="m502 385.999c0-41.891-28.62-77.097-67.374-87.13-7.229-1.871-14.811-2.869-22.626-2.869-49.705 0-90 40.294-90 90 0 4.47.331 8.863.96 13.159-.002.001-.003.001-.005.002 6.369 43.467 43.81 76.839 89.044 76.839 49.707-.001 90.001-40.295 90.001-90.001zm-94.021-18.297c0 11.046-8.954 20-20 20-11.045 0-20-8.954-20-20s8.954-20 20-20 20 8.954 20 20z" fill="#c193dc"/><ellipse cx="387.979" cy="367.702" fill="#ff7b79" rx="20" ry="20" transform="matrix(.99 -.138 .138 .99 -47.133 57.202)"/></g><g><path d="m174.892 136h110.106c5.523 0 10-4.478 10-10s-4.477-10-10-10h-37.529c-15.177-.001-27.524-12.349-27.524-27.526v-52.473c0-5.522-4.477-10-10-10s-10 4.478-10 10v52.473c0 10.251 3.262 19.754 8.803 27.526h-33.856c-5.523 0-10 4.478-10 10s4.477 10 10 10z"/><path d="m459.21 297.862c.524-3.93.789-7.899.789-11.863 0-49.626-40.374-89.999-90-89.999h-6.058c12.987-12.715 21.057-30.433 21.057-50 0-38.598-31.402-70-70-70-15.178 0-27.526-12.349-27.526-27.526v-12.473c0-5.522-4.477-10-10-10s-10 4.478-10 10v12.473c0 26.206 21.32 47.526 47.526 47.526 27.57 0 50 22.43 50 50 0 27.569-22.429 49.999-49.998 50h-225c-5.523 0-10 4.478-10 10s4.477 10 10 10h280c38.598 0 70 31.401 70 69.999 0 1.319-.038 2.639-.113 3.957-8.856-2.575-18.213-3.956-27.887-3.956-44.693 0-82.631 29.471-95.403 69.999h-146.597c-5.523 0-10 4.478-10 10s4.477 10 10 10h37.529c15.177.001 27.525 12.351 27.525 27.527v72.473c0 5.522 4.477 10 10 10s10-4.478 10-10v-72.473c0-10.251-3.263-19.755-8.804-27.527h66.248c-.328 3.29-.497 6.625-.497 10 0 55.141 44.859 100 100 100s100-44.859 100-100c-.001-38.077-21.394-71.252-52.791-88.137zm-47.21 168.137c-44.112 0-80-35.888-80-80 0-44.111 35.888-79.999 80-79.999s80 35.888 80 79.999c0 44.112-35.888 80-80 80z"/><path d="m454.735 401.981h-.007c-5.523 0-9.997 4.478-9.997 10s4.481 10 10.004 10 10-4.478 10-10-4.477-10-10-10z"/><path d="m461.107 368.349c0-5.522-4.477-10-10-10h-.007c-5.523 0-9.997 4.478-9.997 10s4.481 10 10.004 10 10-4.478 10-10z"/><path d="m406.642 415.363h-.007c-5.523 0-9.996 4.478-9.996 10s4.48 10 10.003 10 10-4.478 10-10-4.477-10-10-10z"/><path d="m387.979 337.702c-16.542 0-30 13.458-30 30s13.458 29.999 30 29.999 30-13.457 30-29.999-13.458-30-30-30zm0 39.999c-5.514 0-10-4.485-10-9.999s4.486-10 10-10 10 4.486 10 10-4.486 9.999-10 9.999z"/><path d="m140 395.999c-27.57 0-50-22.43-50-50 0-27.558 22.419-49.986 49.976-49.999h185.022c5.523 0 10-4.478 10-10s-4.477-10-10-10h-234.998c-38.598 0-70-31.402-70-70 0-36.824 28.784-67.507 65.529-69.852 5.512-.352 9.695-5.104 9.343-10.616s-5.102-9.696-10.616-9.343c-47.246 3.015-84.256 42.464-84.256 89.811 0 49.626 40.374 90 90 90h1.061c-12.989 12.716-21.061 30.434-21.061 49.999 0 38.598 31.402 70 70 70 15.178 0 27.527 12.349 27.527 27.526v32.474c0 5.522 4.477 10 10 10s10-4.478 10-10v-32.474c-.001-26.206-21.321-47.526-47.527-47.526z"/><path d="m129.896 136c5.523 0 10-4.478 10-10s-4.477-10-10-10h-.007c-5.523 0-9.996 4.478-9.996 10s4.48 10 10.003 10z"/></g></g></svg>