<svg id="Layer_3" height="512" viewBox="0 0 64 64" width="512" xmlns="http://www.w3.org/2000/svg" data-name="Layer 3"><path d="m15.727 33.005a8 8 0 0 0 -7.21 5.16l-.517 17.835h47v-23z" fill="#f9cb52"/><path d="m10.517 35.186a17.332 17.332 0 0 0 17.325 17.814h27.158v-20l-39.273.005a7.96 7.96 0 0 0 -5.21 2.181z" fill="#ffd986"/><path d="m15 43v3a5.653 5.653 0 0 0 3.772 5.331l12.086 4.269a7.068 7.068 0 0 0 2.354.4 7.072 7.072 0 0 0 6.566-4.446l1.657-4.141-4.286-4.6z" fill="#e9353f"/><path d="m18.772 48.331 12.086 4.269a7.072 7.072 0 0 0 8.92-4.043l.817-2.042-3.447-3.7-22.148.185a5.653 5.653 0 0 0 3.772 5.331z" fill="#ff4b50"/><path d="m53.071 29h-3.071a10 10 0 0 0 -6.618 2.5l-1.382 7.5v6h12" fill="#3bb4e6"/><path d="m44 35h1.5a2.5 2.5 0 0 1 2.5 2.5 2.5 2.5 0 0 1 -2.5 2.5h-3.14" fill="#d08c76"/><path d="m52 48-16-.889a2.114 2.114 0 0 1 -2-2.111 2 2 0 0 1 2-2h7l9-1.8" fill="#62c1ea"/><path d="m22 44a9.468 9.468 0 0 1 -4.236 1h-4.764l4.114-18.1a5.01 5.01 0 0 1 4.886-3.9l.765-1.529a4.467 4.467 0 0 1 4-2.471 4.088 4.088 0 0 1 2.268.687l3.567 2.377" fill="#795348"/><path d="m18.114 28.9-2.926 12.873a2.642 2.642 0 0 0 2.576 3.227 9.468 9.468 0 0 0 4.236-1l10.109-20.927-1.978-1.319a4.262 4.262 0 0 0 -1.994-.738 4.469 4.469 0 0 0 -4.372 2.454l-.765 1.53a5.01 5.01 0 0 0 -4.886 3.9z" fill="#916657"/><path d="m34.268 44h-12.268l2.671-16.027a2.361 2.361 0 0 1 2.329-1.973h8.264a8.736 8.736 0 0 1 8.736 8.736 9.265 9.265 0 0 1 -5.073 8.264" fill="#d08c76"/><path d="m35.265 26h-8.184a2.357 2.357 0 0 0 -.41.973l-1.913 11.481a3.9 3.9 0 0 0 3.851 4.546h6.759a8.465 8.465 0 0 0 1.781-.189l.152-.033a8.357 8.357 0 0 0 6.699-7.952v-.09a8.735 8.735 0 0 0 -8.735-8.736z" fill="#f2b89e"/><path d="m9 56-.934-34.54-4.131-.039-.935 34.579z" fill="#795348"/><path d="m5.934 21.44-.934 34.56h4l-.933-34.54z" fill="#916657"/><path d="m63 56h-61v6h61" fill="#93add1"/><circle cx="6" cy="18" fill="#a37763" r="4"/><path d="m30 26 .468-1.873a2.809 2.809 0 0 1 2.724-2.127 2.808 2.808 0 0 1 2.808 2.808v1.223" fill="#d08c76"/><path d="m52 56v-23a8 8 0 0 1 8-8h3v31z" fill="#ff4b50"/><g fill="#d08c76"><path d="m28 42v-2a1 1 0 0 0 0-2v-2a3 3 0 0 1 0 6z"/><path d="m29 34v-2a1 1 0 0 0 0-2v-2a3 3 0 0 1 0 6z"/><path d="m37 33h2v5h-2z"/></g><path d="m39 19h-5a1 1 0 0 1 -.781-1.625l2.7-3.375h-2.919v-2h5a1 1 0 0 1 .781 1.625l-2.7 3.375h2.919z" fill="#3bb4e6"/><path d="m49 9h-9a1 1 0 0 1 -.6-1.8l5.6-4.2h-5v-2h8a1 1 0 0 1 .6 1.8l-5.6 4.2h6z" fill="#3bb4e6"/><path d="m8 59h55v-3h-58a3 3 0 0 0 3 3z" fill="#a3b8db"/><path d="m6 14a3.977 3.977 0 0 0 -2.281.719 3.994 3.994 0 0 0 5.562 5.561 3.994 3.994 0 0 0 -3.281-6.28z" fill="#bf9275"/><path d="m55 34v22h8v-30a8 8 0 0 0 -8 8z" fill="#ff797b"/><path d="m36 43a2 2 0 0 0 -2 2 2.114 2.114 0 0 0 2 2.111l7 .389v-4.5z" fill="#f2b89e"/><path d="m45.5 35h-.519a9.2 9.2 0 0 1 -1.042 4h1.561a2.5 2.5 0 0 0 2.45-2 2.5 2.5 0 0 0 -2.45-2z" fill="#f2b89e"/><path d="m60 26h3v-2h-3a9 9 0 0 0 -7.478 4h-2.522a10.984 10.984 0 0 0 -6.258 1.964 9.753 9.753 0 0 0 -6.742-4.8v-.356a3.812 3.812 0 0 0 -3.808-3.808c-.117 0-.23.019-.346.029l-3.261-2.175a5.075 5.075 0 0 0 -2.823-.854 5.441 5.441 0 0 0 -4.892 3.023l-.505 1.01a5.975 5.975 0 0 0 -5.227 4.646l-1.23 5.411a8.933 8.933 0 0 0 -5.478 2.785l-.351-12.966a5 5 0 1 0 -6.158 0l-.895 33.091h-.026a1 1 0 0 0 -1 1v6a1 1 0 0 0 1 1h61v-2h-60v-4h60v-2h-10v-22a7.008 7.008 0 0 1 7-7zm-9 20.943-7-.389v-2.734l7-1.4zm-17.788 8.057a6.078 6.078 0 0 1 -2.022-.346l-12.09-4.266a4.66 4.66 0 0 1 -3.1-4.388h1.764a10.513 10.513 0 0 0 4.436-1h10.8a3.114 3.114 0 0 0 2.941 3.109l4.048.225-1.139 2.849a6.045 6.045 0 0 1 -5.638 3.817zm8.788-11v2.443l-5.947-.331a1.114 1.114 0 0 1 -1.053-1.112 1 1 0 0 1 1-1zm8-14h1.525a8.936 8.936 0 0 0 -.525 3v7.38l-8.1 1.62h-.93a10.216 10.216 0 0 0 .886-1h2.644a3.5 3.5 0 0 0 0-7h-.537a9.654 9.654 0 0 0 -.4-2.162 8.986 8.986 0 0 1 5.437-1.838zm-5.087 6h.587a1.5 1.5 0 0 1 0 3h-1.429a10.24 10.24 0 0 0 .842-3zm-1.913-1.265a8.223 8.223 0 0 1 -4.345 7.265h-2.655a2.985 2.985 0 0 0 -2.22 1h-10.6l2.476-14.862a1.359 1.359 0 0 1 1.344-1.138h8.265a7.744 7.744 0 0 1 7.735 7.735zm-8-9.927v.192h-3.719l.157-.63a1.808 1.808 0 0 1 3.562.438zm-16.911 2.314a3.99 3.99 0 0 1 3.911-3.122 1 1 0 0 0 .895-.553l.764-1.529a3.449 3.449 0 0 1 3.103-1.918 3.076 3.076 0 0 1 1.714.519l2.186 1.458a3.788 3.788 0 0 0 -1.162 1.907l-.28 1.116h-2.22a3.352 3.352 0 0 0 -3.315 2.808l-2.585 15.492a8.5 8.5 0 0 1 -3.339.7h-3.508zm-3.659 7.07-2.406 10.586a1 1 0 0 0 .976 1.222h1a6.664 6.664 0 0 0 4.438 6.274l7.724 2.726h-16.188l-.45-16.636a6.966 6.966 0 0 1 4.906-4.172zm-8.43-19.192a3 3 0 1 1 -3 3 3 3 0 0 1 3-3zm-1.1 7.868a4.971 4.971 0 0 0 1.1.132 4.971 4.971 0 0 0 1.1-.132l.872 32.132h-3.944zm33.624 32.132a8.055 8.055 0 0 0 2.183-3.074l1.39-3.475 8.9.495v6.054z"/><path d="m28 36v2a1 1 0 0 1 0 2v2a3 3 0 0 0 0-6z"/><path d="m29 28v2a1 1 0 0 1 0 2v2a3 3 0 0 0 0-6z"/><path d="m37 33h2v5h-2z"/><path d="m33.219 17.375a1 1 0 0 0 .781 1.625h5v-2h-2.919l2.7-3.375a1 1 0 0 0 -.781-1.625h-5v2h2.919z"/><path d="m40 9h9v-2h-6l5.6-4.2a1 1 0 0 0 -.6-1.8h-8v2h5l-5.6 4.2a1 1 0 0 0 .6 1.8z"/></svg>