<svg id="Capa_1" enable-background="new 0 0 512 512" height="512" viewBox="0 0 512 512" width="512" xmlns="http://www.w3.org/2000/svg"><g><g><path clip-rule="evenodd" d="m382.439 442.388h-162.273-176.52-15.974c-6.764 0-12.664 3.86-15.657 9.477v37.159c2.993 5.617 8.894 9.477 15.657 9.477h456.656c9.728 0 17.672-7.95 17.672-17.687v-20.74c0-9.736-7.944-17.687-17.672-17.687h-4.461-97.428z" fill="#ffda8f" fill-rule="evenodd"/></g><g><path clip-rule="evenodd" d="m202.724 309.277c-12.204-36.785-30.451-68.385-54.254-87.944-7.426 2.247-15.024 3.457-22.508 3.457-13.269 0-24.896-2.132-34.999-6.02-50.887 40.155-58.428 139.131-47.318 223.618h176.52c1.209-23.995 0-48.883-3.511-73.109l-32.063-14.633 20.205-44.418z" fill="#ccf5fc" fill-rule="evenodd"/></g><g><path clip-rule="evenodd" d="m298.166 352.773-93.369-42.546-20.205 44.418 32.063 14.633 61.306 27.913c12.204 5.56 26.738.115 32.293-12.098s.115-26.76-12.088-32.32z" fill="#ffdcd5" fill-rule="evenodd"/></g><g><path clip-rule="evenodd" d="m456.927 310.055c-3.195-2.679-4.576-4.782-4.576-11.033v-52.512h-42.396v52.513c0 6.251-1.382 8.382-4.548 11.033l-25.789 21.46c-8.001 6.078-6.764 12.386-6.015 20.106l4.058 41.653h106.983l4.058-41.653c.748-7.72 1.986-14.028-6.015-20.106z" fill="#b8ecbc" fill-rule="evenodd"/></g><g><path clip-rule="evenodd" d="m484.644 393.274h-106.982l4.777 49.114h97.428z" fill="#e7f9e9" fill-rule="evenodd"/></g><g><path clip-rule="evenodd" d="m456.467 205.001h-50.628c-1.583 0-2.878 1.296-2.878 2.881v35.748c0 1.584 1.295 2.881 2.878 2.881h4.116 42.396 4.116c1.583 0 2.878-1.296 2.878-2.881v-35.748c0-1.585-1.295-2.881-2.878-2.881z" fill="#ffda8f" fill-rule="evenodd"/></g><g><path clip-rule="evenodd" d="m331.38 270.994v-27.567c0-4.551-3.713-8.296-8.26-8.296h-49.908c-4.576 0-8.289 3.745-8.289 8.296v27.567c0 18.32 14.967 33.27 33.243 33.27 18.276.001 33.214-14.949 33.214-33.27z" fill="#ccf5fc" fill-rule="evenodd"/></g><g><path clip-rule="evenodd" d="m215.043 135.637c0-23.073-8.836-44.159-23.227-60.002-20.435 13.625-50.829 20.222-73.653 21.95-50.426 3.831-74.258 72.792-74.258 72.792 9.354 22.123 24.436 39.665 47.059 48.393 10.102 3.889 21.73 6.02 34.999 6.02 7.483 0 15.082-1.21 22.508-3.457 22.594-6.913 43.662-23.534 55.808-45.34 6.735-12.127 10.764-25.809 10.764-40.356z" fill="#ffdcd5" fill-rule="evenodd"/></g><g><path clip-rule="evenodd" d="m206.696 13.501c-54.168 26.991-86.548 9.304-117.028 20.078-52.613 18.637-69.306 65.302-45.763 136.797 0 0 23.832-68.961 74.258-72.792 22.824-1.728 53.218-8.325 73.653-21.95 20.004-13.308 30.423-33.327 14.88-62.133z" fill="#ffda8f" fill-rule="evenodd"/></g><g><path d="m490.812 433.163 7.987-81.998c.795-7.778 1.883-18.415-9.869-27.466l-25.577-21.308c-.456-.383-.697-.612-.82-.739-.063-.293-.182-1.051-.182-2.63v-43.949c4.147-2.142 6.994-6.463 6.994-11.444v-35.748c0-7.102-5.777-12.88-12.878-12.88h-50.628c-7.101 0-12.878 5.778-12.878 12.88v35.748c0 4.981 2.847 9.302 6.994 11.444v43.949c0 1.604-.122 2.37-.187 2.662-.116.119-.343.336-.758.684l-25.631 21.329c-11.756 9.051-10.668 19.688-9.873 27.466l7.911 81.225h-140.888c.343-15.437-.26-31.039-1.801-46.64l45.087 20.543c4.521 2.061 9.336 3.095 14.174 3.095 4.079 0 8.175-.736 12.119-2.214 8.62-3.229 15.456-9.6 19.248-17.938 6.897-15.163 1.833-32.774-11.19-42.16v-33.991c19.021-4.531 33.214-21.676 33.214-42.088v-27.566c0-10.089-8.191-18.297-18.26-18.297h-49.908c-10.085 0-18.289 8.208-18.289 18.297v27.566c0 20.415 14.206 37.561 33.243 42.09v24.144l-77.361-35.248c-11.1-31.951-26.147-58.258-44.059-77.197 9.583-4.756 18.676-11.108 26.799-18.866 6.422-6.133 11.929-12.824 16.462-19.924h59.175c5.522 0 10-4.478 10-10s-4.478-10-10-10h-49.384c3.449-9.769 5.245-19.985 5.245-30.356 0-21.059-6.69-41.379-18.981-58.279 4.968-4.435 9.22-9.509 12.392-15.319 5.924-10.851 10.219-28.903-2.96-53.292-2.565-4.745-8.431-6.603-13.258-4.196-31.004 15.448-54.372 15.245-74.984 15.068-14.106-.116-27.431-.235-40.922 4.532-29.366 10.402-48.735 28.833-57.568 54.78-8.6 25.262-6.7 57.08 5.646 94.571.085.26.181.513.286.762.001.002.002.004.002.007 8.915 21.073 22.028 36.857 38.821 47.013-19.348 20.668-32.551 51.189-39.319 90.991-7.378 43.384-5.427 87.575-1.831 120.11h-4.694c-15.259.002-27.673 12.422-27.673 27.688v20.74c0 15.267 12.414 27.687 27.672 27.687h122.151c5.523 0 10-4.478 10-10s-4.477-10-10-10h-122.151c-4.159 0-7.672-3.52-7.672-7.687v-20.74c0-4.238 3.442-7.687 7.672-7.687h15.94c.007 0 .014.001.021.001.005 0 .01-.001.015-.001h338.759c.007 0 .014.001.021.001s.013-.001.02-.001h97.41c.007 0 .013.001.02.001s.014-.001.021-.001h4.43c4.23 0 7.672 3.448 7.672 7.687v20.74c0 4.167-3.514 7.687-7.672 7.687h-243.325c-5.523 0-10 4.478-10 10s4.477 10 10 10h243.324c15.259 0 27.672-12.42 27.672-27.687v-20.74c0-13.032-9.048-23.983-21.188-26.911zm-77.851-218.162h36.384v21.509h-36.384zm-27.293 124.477c.118-.089 26.158-21.755 26.158-21.755 5.85-4.897 8.129-10.14 8.129-18.7v-42.513h22.396v42.513c0 8.646 2.21 13.713 8.177 18.716l25.76 21.46c.114.096.232.188.352.279 2.819 2.142 2.967 2.773 2.264 9.654l-3.326 34.143h-88.844l-3.329-34.145c-.705-6.879-.556-7.511 2.263-9.652zm3.011 63.796h84.949l-2.836 29.113h-79.279zm-87.528-22.32c-1.581 3.475-4.442 6.134-8.059 7.488-3.614 1.354-7.516 1.231-10.985-.351l-84.277-38.399 11.924-26.214 84.266 38.394c7.221 3.291 10.419 11.851 7.131 19.082zm-26.228-109.96v-25.863h46.457v25.863c0 12.831-10.414 23.271-23.214 23.271-12.816 0-23.243-10.44-23.243-23.271zm-181.923-227.987c8.445-2.984 17.518-3.425 27.702-3.425 2.078 0 4.204.019 6.377.037 19.763.178 43.928.38 74.698-12.819 3.507 9.727 3.206 18.177-.877 25.654-2.967 5.435-7.825 10.252-13.961 14.459-.478.268-.937.581-1.376.934-17.373 11.304-44.154 17.943-68.157 19.766-35.067 2.665-58.21 31.633-70.941 53.861-10.293-50.792 5.301-83.861 46.535-98.467zm-38.272 127.08c5.421-13.332 26.892-59.697 64.193-62.531 9.025-.686 43.517-4.192 70.673-18.852 10.004 13.576 15.449 29.957 15.449 46.932 0 12.556-3.373 24.318-9.036 34.738-.309.454-.574.94-.806 1.444-14.705 25.774-43.448 42.972-69.238 42.972-33.444 0-57.387-15.04-71.235-44.703zm38.379 59.969c10.04 3.134 21.012 4.734 32.856 4.734 6.642 0 13.353-.825 19.997-2.414 15.058 13.646 28.236 33.297 38.8 57.737l-54.219-24.704c-5.027-2.294-10.957-.072-13.247 4.953-2.29 5.026-.072 10.956 4.954 13.246l69.307 31.578-11.924 26.214-69.295-31.573c-5.025-2.294-10.957-.072-13.246 4.953-2.29 5.026-.072 10.956 4.954 13.246l105.425 48.035c2.455 18.825 3.49 37.709 3.053 56.326h-158.026c-8.545-74.897-1.968-163.782 40.611-202.331z"/><path d="m278.229 83.064c3.89 4.624 4.594 10.158 4.499 13.986-.004.164-.004.328 0 .492.095 3.829-.609 9.364-4.499 13.985l-.296.356c-3.477 4.291-2.829 10.604 1.462 14.081 1.856 1.504 4.085 2.236 6.299 2.236 2.903 0 5.781-1.261 7.754-3.696l.084-.1c6.221-7.392 9.397-16.762 9.195-27.109.202-10.346-2.974-19.714-9.192-27.106l-.359-.432c-3.889-4.621-4.593-10.154-4.498-13.983.004-.165.004-.329 0-.494-.095-3.829.609-9.362 4.498-13.983l.297-.357c3.477-4.291 2.829-10.604-1.462-14.081s-10.575-2.832-14.053 1.459l-.084.101c-6.221 7.392-9.398 16.761-9.195 27.109-.203 10.349 2.975 19.718 9.195 27.109z"/><path d="m349.092 62.376c.077.096.182.222.312.377 3.893 4.637 4.598 10.151 4.504 13.96-.004.165-.004.329 0 .493.136 5.511-1.381 10.217-4.507 13.989-.167.2-.298.361-.391.48-3.406 4.347-2.67 10.664 1.677 14.071 1.839 1.441 4.021 2.142 6.183 2.142 2.95 0 5.866-1.304 7.831-3.813l.098-.118c7.756-9.356 9.247-19.799 9.108-26.997.202-10.312-2.972-19.666-9.185-27.067l-.367-.441c-3.89-4.621-4.594-10.156-4.499-13.985.004-.164.004-.328 0-.492-.095-3.828.609-9.362 4.499-13.986l.299-.36c3.475-4.293 2.825-10.604-1.468-14.08-4.292-3.474-10.577-2.826-14.052 1.465l-.085.102c-6.219 7.393-9.395 16.761-9.192 27.106-.202 10.348 2.975 19.718 9.195 27.109z"/><path d="m195.414 488.501c-5.523 0-10 4.478-10 10s4.477 10 10 10h.057c5.523 0 9.972-4.478 9.972-10s-4.506-10-10.029-10z"/></g></g></svg>