<svg enable-background="new 0 0 100 100" viewBox="0 0 100 100" xmlns="http://www.w3.org/2000/svg"><g id="Layer_1"/><g id="Layer_2"/><g id="Layer_3"/><g id="Layer_4"/><g id="Layer_5"/><g id="Layer_6"/><g id="Layer_7"/><g id="Layer_8"/><g id="Layer_9"/><g id="Layer_10"/><g id="Layer_11"/><g id="Layer_12"/><g id="Layer_13"/><g id="Layer_14"/><g id="Layer_15"/><g id="Layer_16"/><g id="Layer_17"/><g id="Layer_18"/><g id="Layer_19"/><g id="Layer_20"/><g id="Layer_21"/><g id="Layer_22"/><g id="Layer_23"/><g id="Layer_24"/><g id="Layer_25"/><g id="Layer_26"/><g id="Layer_27"/><g id="Layer_28"/><g id="Layer_29" display="none"/><g id="Layer_30"/><g id="Layer_31"/><g id="Layer_32"/><g id="Layer_35"><g id="Layer_34"/><g id="Layer_33"/><g><g><path clip-rule="evenodd" d="m40.6 6.5c-7.8 11.6-22.1 30.4-27.9 41.9-2.1 4.2-3.3 8.9-3.3 13.9 0 17.2 14 31.2 31.2 31.2s31.2-14 31.2-31.2c0-5-1.2-9.7-3.3-13.9-5.7-11.5-20.1-30.3-27.9-41.9z" fill="#fb6572" fill-rule="evenodd"/></g><g><path clip-rule="evenodd" d="m68.5 48.4c-5.7-11.5-20.1-30.3-27.9-41.9-1.3 2-2.8 4.1-4.5 6.5 7.9 11.3 18.7 25.9 23.4 35.5 2.1 4.2 3.3 8.9 3.3 13.9.1 15.6-11.5 28.6-26.6 30.8 1.5.2 2.9.3 4.5.3 17.2 0 31.2-14 31.2-31.2-.1-5-1.3-9.7-3.4-13.9z" fill="#e0656f" fill-rule="evenodd"/></g><g><path clip-rule="evenodd" d="m65.2 33.5c-14 0-25.3 11.3-25.3 25.3s11.3 25.3 25.3 25.3 25.3-11.3 25.3-25.3c.1-14-11.3-25.3-25.3-25.3z" fill="#f2fbff" fill-rule="evenodd"/></g><g><path clip-rule="evenodd" d="m90.6 58.8c0-14-11.3-25.3-25.3-25.3-1.5 0-3 .1-4.5.4 11.8 2.1 20.8 12.5 20.8 24.9 0 12.5-9 22.8-20.9 24.9 1.4.3 2.9.4 4.5.4 14 0 25.4-11.3 25.4-25.3z" fill="#dceff7" fill-rule="evenodd"/></g><g><path clip-rule="evenodd" d="m78.8 51.2-13.6-5.8-13.5 5.8 13.5 5.8z" fill="#c8effe" fill-rule="evenodd"/></g><g><path clip-rule="evenodd" d="m78.8 51.2-13.6 5.8v15.2l13.6-5.8z" fill="#a4e3fc" fill-rule="evenodd"/></g><g><path clip-rule="evenodd" d="m65.2 57-13.5-5.8v15.2l13.5 5.8z" fill="#b9deed" fill-rule="evenodd"/></g><g><path d="m65.2 32c-1.6 0-3.2.2-4.7.4-3.3-4.9-6.9-10-10.3-14.8-3.1-4.4-6-8.5-8.3-11.9-.6-.8-1.9-.8-2.5 0-2.3 3.5-5.3 7.6-8.4 12-7.3 10.3-15.6 22-19.6 30.1-2.3 4.6-3.4 9.5-3.4 14.6 0 18 14.7 32.7 32.7 32.7 8.7 0 16.8-3.3 22.9-9.4.6 0 1.1.1 1.7.1 14.8 0 26.8-12 26.8-26.8 0-15-12.1-27-26.9-27zm-24.6 60c-16.4 0-29.7-13.3-29.7-29.7 0-4.6 1-9.1 3.1-13.2 4-7.9 12.2-19.5 19.4-29.7 2.6-3.6 5.1-7.1 7.2-10.2 2.1 3.1 4.6 6.5 7.1 10.2 3.2 4.6 6.6 9.3 9.7 13.9-11 3.4-19 13.6-19 25.6 0 12.9 9.1 23.7 21.3 26.2-5.3 4.4-12 6.9-19.1 6.9zm24.6-9.4c-13.1 0-23.8-10.7-23.8-23.8s10.7-23.8 23.8-23.8 23.8 10.7 23.8 23.8c.1 13.1-10.6 23.8-23.8 23.8z"/><path d="m79.4 49.8-13.6-5.8c-.4-.2-.8-.2-1.2 0l-13.5 5.8c-.6.2-.9.8-.9 1.4v15.2c0 .6.4 1.1.9 1.4l13.5 5.8c.2.1.4.1.6.1s.4 0 .6-.1l13.5-5.8c.6-.2.9-.8.9-1.4v-15.2c.1-.6-.3-1.1-.8-1.4zm-14.2-2.7 9.7 4.2-9.7 4.2-9.7-4.2zm-12 6.4 10.5 4.5v12l-10.5-4.5zm13.5 16.5v-12l10.5-4.5v12z"/></g></g></g></svg>