<svg id="Capa_1" enable-background="new 0 0 512 512" height="512" viewBox="0 0 512 512" width="512" xmlns="http://www.w3.org/2000/svg"><g><path d="m405.163 244.785-149.163-244.785-75 256 75 256c96.799 0 175.27-78.462 175.27-175.25 0-33.741-9.747-65.116-26.107-91.965z" fill="#ff352e"/><path d="m106.837 244.785c-16.36 26.849-26.107 58.224-26.107 91.965 0 96.788 78.471 175.25 175.27 175.25v-512z" fill="#fe5e49"/><path d="m196 281.535 60 165.587 95.602-55.196v-110.391z" fill="#9fddf4"/><path d="m160.398 281.535v110.391l95.602 55.196v-165.587z" fill="#adf2f5"/><path d="m351.602 281.535-95.602-55.196-45 55.196 45 55.195z" fill="#adf2f5"/><path d="m256 226.339-95.602 55.196 95.602 55.195z" fill="#fff"/></g></svg>