<svg clip-rule="evenodd" fill-rule="evenodd" height="1.707in" image-rendering="optimizeQuality" shape-rendering="geometricPrecision" text-rendering="geometricPrecision" viewBox="0 0 1.70666 1.70666" width="1.707in" xmlns="http://www.w3.org/2000/svg"><g id="Layer_x0020_1"><path d="m.41322.481547h-.319c-.0447874 0-.0812205-.0364409-.0812205-.0812126v-.318992c0-.0447874.0364409-.0812205.0812205-.0812205h.319c.0447835 0 .0812087.0364409.0812087.0812205v.318992c0 .0447756-.0364252.0812126-.0812087.0812126z" fill="#fdbf00"/><path d="m1.60939.386701h-.86998c-.0464685 0-.0842677-.0377992-.0842677-.0842835v-.123157c0-.0464803.0377992-.0842795.0842677-.0842795h.86998c.0464685 0 .0842677.0377992.0842677.0842795v.123165c0 .0464646-.037815.0842756-.0842677.0842756z" fill="#1b5c91"/><path d="m.41322 1.09405h-.319c-.0447874 0-.0812205-.0364409-.0812205-.0812244v-.31898c0-.0447874.0364409-.0812126.0812205-.0812126h.319c.0447835 0 .0812087.0364409.0812087.0812126v.31898c0 .0447835-.0364252.0812244-.0812087.0812244z" fill="#fb4c2e"/><path d="m1.60939.999185h-.86998c-.0464685 0-.0842677-.0378189-.0842677-.0842677v-.123177c0-.0464843.0377992-.0842835.0842677-.0842835l.86998.00000394c.0464685 0 .0842677.0378031.0842677.0842835v.123177c0 .0464606-.037815.0842638-.0842677.0842638z" fill="#1b5c91"/><path d="m.41322 1.70654h-.319c-.0447874 0-.0812205-.0364409-.0812205-.0812205v-.318988c0-.0447874.0364409-.0812205.0812205-.0812205h.319c.0447835 0 .0812087.0364409.0812087.0812205v.318992c0 .0447756-.0364252.0812165-.0812087.0812165z" fill="#00d7df"/><path d="m1.60939 1.61169h-.86998c-.0464685 0-.0842677-.037815-.0842677-.0842795v-.123165c0-.0464646.0377992-.0842638.0842677-.0842638h.86998c.0464685 0 .0842677.037815.0842677.0842638v.123165c0 .0464646-.037815.0842795-.0842677.0842795z" fill="#1b5c91"/></g></svg>