<svg id="Filled_Outline" height="512" viewBox="0 0 128 128" width="512" xmlns="http://www.w3.org/2000/svg" data-name="Filled Outline"><path d="m80.987 11.34-44.128.16c1.241 10.18-3.979 17.025-.702 20.3 1.467 1.467 3.663.975 5.413-.151a1.276 1.276 0 0 1 1.813.536 3.779 3.779 0 0 0 3.161 2.03 6.744 6.744 0 0 0 5.173-1.854 1.283 1.283 0 0 1 1.57-.116c1.749 1.159 5.848 3.26 9.017.1a1.289 1.289 0 0 1 1.981.157 4.76 4.76 0 0 0 3.925 2.288 4.613 4.613 0 0 0 4.006-1.951 1.29 1.29 0 0 1 1.736-.383c1.332.784 3.561 1.614 5.425-.046 2.96-2.635-1.806-10.819 1.61-21.07z" fill="#f5f6ff"/><g fill="#aecdff"><path d="m6.956 50.071c1.731-2.754 8.85-1.6 8.571 3.344s-4.527 5.099-6.99 3.785c-2.922-1.555-3.114-4.69-1.581-7.129z"/><path d="m104.376 55.56c1.273-2.024 6.507-1.178 6.3 2.46s-3.325 3.748-5.14 2.783c-2.146-1.144-2.287-3.449-1.16-5.243z"/><path d="m21.306 23.189c5.315.6 6.091 7.393 3.114 11.088s-7.768 1.847-10.1-1.712 2.127-9.924 6.986-9.376z"/><path d="m90.073 31.413c1.848-3.768 7.072-2.543 9.013.633s-.691 6.226-3.935 7-6.768-4.189-5.078-7.633z"/></g><path d="m11.345 59.4a7.7 7.7 0 0 1 -3.513-.878 6.014 6.014 0 0 1 -3.122-3.785 7 7 0 0 1 .976-5.465c1.377-2.19 4.533-2.56 6.942-1.792a5.873 5.873 0 0 1 4.4 6.02c-.172 3.07-1.632 4.516-2.826 5.188a5.77 5.77 0 0 1 -2.857.712zm-3.119-8.531a4.006 4.006 0 0 0 -.617 3.1 3.051 3.051 0 0 0 1.633 1.911 3.92 3.92 0 0 0 3.484.2 3.1 3.1 0 0 0 1.3-2.743 2.991 2.991 0 0 0 -2.313-2.993c-1.572-.5-3.075-.131-3.49.531z" fill="#3c3559"/><path d="m107.606 62.817a6.075 6.075 0 0 1 -2.772-.69 4.808 4.808 0 0 1 -2.493-3.034 5.541 5.541 0 0 1 .765-4.331c1.121-1.782 3.647-2.1 5.561-1.485a5 5 0 0 1 1.229 8.966 4.632 4.632 0 0 1 -2.29.574zm-.794-6.83a1.511 1.511 0 0 0 -1.166.371 2.546 2.546 0 0 0 -.406 1.963 1.867 1.867 0 0 0 1 1.158 2.489 2.489 0 0 0 2.181.149 1.923 1.923 0 0 0 .757-1.692 1.765 1.765 0 0 0 -1.425-1.8 3.119 3.119 0 0 0 -.941-.149z" fill="#3c3559"/><path d="m20.421 37.8c-.109 0-.219 0-.329-.008a9.33 9.33 0 0 1 -7.022-4.4c-1.316-2.012-1.161-4.741.413-7.3a8.589 8.589 0 0 1 7.991-4.39 6.641 6.641 0 0 1 5.538 4.179 9.661 9.661 0 0 1 -1.424 9.341 6.561 6.561 0 0 1 -5.167 2.578zm.287-13.143a5.95 5.95 0 0 0 -4.67 3.006c-.733 1.191-1.239 2.888-.457 4.083a6.393 6.393 0 0 0 4.66 3.049 3.522 3.522 0 0 0 3.011-1.458 6.63 6.63 0 0 0 .985-6.317 3.629 3.629 0 0 0 -3.1-2.338 3.889 3.889 0 0 0 -.429-.027z" fill="#3c3559"/><path d="m94.447 40.632a5.966 5.966 0 0 1 -4.555-2.473 7.056 7.056 0 0 1 -1.166-7.407 5.524 5.524 0 0 1 4.828-3.165 7.948 7.948 0 0 1 6.812 3.677 5.442 5.442 0 0 1 .468 5.032 7.644 7.644 0 0 1 -5.334 4.212 4.529 4.529 0 0 1 -1.053.124zm-.59-10.052q-.082 0-.165 0a2.51 2.51 0 0 0 -2.273 1.491 4.179 4.179 0 0 0 .815 4.211 2.853 2.853 0 0 0 2.566 1.309 4.687 4.687 0 0 0 3.262-2.445 2.422 2.422 0 0 0 -.257-2.317 4.888 4.888 0 0 0 -3.948-2.249z" fill="#3c3559"/><path d="m83.98 92.95c-7.08 12.58-4.61 34.13-14.68 32.43-7.35-1.24-3.41-35.58-11.28-35.58s-3.92 34.34-11.27 35.58c-10.07 1.7-7.6-19.85-14.68-32.43s-14.23-30.42-7.08-42.67c5.44-9.34 18.33-9.74 26.86-5.56.33.16.67.31 1.01.45a14.106 14.106 0 0 0 11.34-.45c8.53-4.18 21.41-3.78 26.86 5.56 7.14 12.25 0 30.08-7.08 42.67z" fill="#f5f6ff"/><path d="m82.205 3.819c-13.824-.412-24.585-1.34-44.436-.707a4.242 4.242 0 0 0 0 8.483s29.591-.363 43.218-.255c6.457.051 44.846-.746 44.846-.746v-6.951s-37.304.365-43.628.176z" fill="#739eff"/><path d="m68.147 36.291a6.069 6.069 0 0 1 -4.947-2.728c-2.723 2.568-6.66 2.579-10.605.025a8.182 8.182 0 0 1 -6.217 2.12 5.348 5.348 0 0 1 -4.231-2.65c-2.642 1.6-5.325 1.532-7.052-.2-2.276-2.276-1.563-5.532-.737-9.3a34.1 34.1 0 0 0 1.012-11.882 1.5 1.5 0 1 1 2.977-.364 36.616 36.616 0 0 1 -1.057 12.888c-.759 3.465-1.137 5.476-.073 6.54 1.089 1.089 2.986.007 3.541-.351a2.729 2.729 0 0 1 2.174-.336 2.84 2.84 0 0 1 1.785 1.447 2.334 2.334 0 0 0 1.993 1.224 5.289 5.289 0 0 0 4.005-1.479 2.789 2.789 0 0 1 3.4-.25c1.664 1.1 4.8 2.607 7.129.286a2.817 2.817 0 0 1 2.241-.819 2.768 2.768 0 0 1 2.029 1.179 3.279 3.279 0 0 0 5.46.359 2.8 2.8 0 0 1 3.739-.835c1.521.9 2.755.939 3.667.127.773-.688.526-2.856.241-5.367-.428-3.767-1.015-8.927.943-14.8a1.5 1.5 0 0 1 2.846.948c-1.748 5.247-1.227 9.832-.808 13.515.395 3.478.708 6.224-1.227 7.946-1.874 1.669-4.427 1.778-7.028.308a6.209 6.209 0 0 1 -5.116 2.452z" fill="#3c3559"/><path d="m92.353 49.52c-5.753-9.875-19.172-10.877-28.817-6.143a12.6 12.6 0 0 1 -10.4.284c-.209-.088-.986-.459-1.159-.539-9.6-4.439-22.631-3.3-28.281 6.4-7.475 12.825-.282 31.094 7.068 44.161 2.7 4.791 3.992 11.158 5.136 16.775 1.852 9.086 3.59 17.669 11.1 16.4 4.72-.8 5.6-9.239 6.627-19.016.69-6.587 1.731-16.542 4.4-16.542s3.707 9.954 4.4 16.542c1.022 9.777 1.906 18.221 6.626 19.016a8.517 8.517 0 0 0 1.418.125c6.316 0 7.956-8.045 9.685-16.528 1.144-5.617 2.442-11.983 5.136-16.774 7.344-13.067 14.537-31.336 7.061-44.161zm-9.683 42.69c-2.925 5.2-4.272 11.813-5.461 17.646-1.873 9.193-3.246 14.792-7.664 14.044-2.473-.417-3.477-10.017-4.141-16.371-1.08-10.318-2.011-19.229-7.38-19.229s-6.3 8.911-7.38 19.23c-.665 6.353-1.67 15.953-4.143 16.37-4.417.742-5.791-4.85-7.664-14.043-1.189-5.834-2.536-12.445-5.462-17.647-6.965-12.384-13.85-29.581-7.09-41.179 2.98-5.112 8.661-7.344 14.511-7.344a23.3 23.3 0 0 1 10.23 2.3 14.672 14.672 0 0 1 4.2 3.113 7.861 7.861 0 0 0 5.307 2.91 1.5 1.5 0 0 0 .293-2.985 4.238 4.238 0 0 1 -2.814-1.384 15.507 15.507 0 0 0 6.847-1.575c8.23-4.041 20.092-3.293 24.9 4.961 6.762 11.602-.122 28.799-7.089 41.183z" fill="#3c3559"/><path d="m125.8 9.094c-.383.008-38.443.787-44.8.746-13.483-.106-42.953.252-43.23.255a2.742 2.742 0 1 1 .048-5.484c14.853-.474 24.782-.063 34.382.335 3.255.135 6.511.27 9.958.373 6.284.185 42.163-.161 43.687-.176a1.5 1.5 0 0 0 1.486-1.515 1.483 1.483 0 0 0 -1.515-1.485c-.373 0-37.345.363-43.568.177-3.435-.1-6.681-.237-9.923-.371-9.657-.4-19.642-.813-34.558-.337a5.742 5.742 0 1 0 .021 11.488c.1 0 3.773-.046 9.071-.1q.021.439.043.825c.1 1.79.162 2.871-.619 7.542a1.5 1.5 0 0 0 2.959.5c.837-5 .764-6.276.655-8.206-.012-.215-.024-.445-.036-.685 2.281-.022 4.758-.043 7.319-.063a61.354 61.354 0 0 1 -.334 6.318 1.5 1.5 0 0 0 1.339 1.645 1.353 1.353 0 0 0 .155.008 1.5 1.5 0 0 0 1.491-1.346 63.7 63.7 0 0 0 .345-6.647c2.565-.018 5.162-.034 7.688-.045a29.284 29.284 0 0 0 .548 10.017 1.5 1.5 0 0 0 1.46 1.16 1.538 1.538 0 0 0 .341-.039 1.5 1.5 0 0 0 1.121-1.8 26.821 26.821 0 0 1 -.458-9.347c3.787-.011 7.293-.009 10.1.013 6.4.039 43.319-.714 44.888-.747a1.5 1.5 0 0 0 1.468-1.53 1.478 1.478 0 0 0 -1.532-1.479z" fill="#3c3559"/></svg>