<?xml version="1.0" encoding="iso-8859-1"?>
<!-- Generator: Adobe Illustrator 19.0.0, SVG Export Plug-In . SVG Version: 6.00 Build 0)  -->
<svg xmlns="http://www.w3.org/2000/svg" xmlns:xlink="http://www.w3.org/1999/xlink" version="1.1" id="Layer_1" x="0px" y="0px" viewBox="0 0 512 512" style="enable-background:new 0 0 512 512;" xml:space="preserve" width="512" height="512">
<g>
	<g>
		<g>
			<path style="fill:#4E6665;" d="M353.668,487.928l-26.646-139.437H184.977l-26.646,139.437     c-1.624,8.497,4.873,16.379,13.524,16.408l50.39,0.164c5.944,0.019,11.234-3.766,13.135-9.398L256,433.983l20.62,61.118     c1.9,5.632,7.19,9.418,13.135,9.398l50.39-0.164C348.795,504.308,355.292,496.426,353.668,487.928z"/>
			<path style="fill:#3F4F4F;" d="M304.83,504.451l35.314-0.115c8.651-0.028,15.148-7.91,13.524-16.407l-26.646-139.437h-51.995     L304.83,504.451z"/>
			<g>
				<g>
					<g>
						<g>
							<g>
								<g>
									<path style="fill:#4E6665;" d="M496.841,119.225h-13.017c-4.218,0-7.637-3.419-7.637-7.637V57.339           c0-4.218,3.419-7.637,7.637-7.637h13.017c4.218,0,7.637,3.419,7.637,7.637v54.249           C504.478,115.806,501.059,119.225,496.841,119.225z"/>
								</g>
							</g>
							<g>
								<g>
									<path style="fill:#4E6665;" d="M384.359,119.225h-13.017c-4.218,0-7.637-3.419-7.637-7.637V57.339           c0-4.218,3.419-7.637,7.637-7.637h13.017c4.218,0,7.637,3.419,7.637,7.637v54.249           C391.996,115.806,388.577,119.225,384.359,119.225z"/>
								</g>
							</g>
						</g>
						<path style="fill:#FFE6CF;" d="M434.728,70.788c-10.377,0-18.789,8.391-18.789,18.742v64.59h-42.821v37.485h48.523        c17.576,0,31.875-14.264,31.875-31.797V89.53C453.517,79.179,445.105,70.788,434.728,70.788z"/>
					</g>
					<g>
						<g>
							<g>
								<g>
									<path style="fill:#4E6665;" d="M15.159,119.225h13.017c4.218,0,7.637-3.419,7.637-7.637V57.339           c0-4.218-3.419-7.637-7.637-7.637H15.159c-4.218,0-7.637,3.419-7.637,7.637v54.249           C7.522,115.806,10.941,119.225,15.159,119.225z"/>
								</g>
							</g>
							<g>
								<g>
									<path style="fill:#4E6665;" d="M127.641,119.225h13.017c4.218,0,7.637-3.419,7.637-7.637V57.339           c0-4.218-3.419-7.637-7.637-7.637h-13.017c-4.218,0-7.637,3.419-7.637,7.637v54.249           C120.004,115.806,123.423,119.225,127.641,119.225z"/>
								</g>
							</g>
						</g>
						<path style="fill:#FFE6CF;" d="M77.272,70.788c10.377,0,18.789,8.391,18.789,18.742v64.59h42.821v37.485H90.358        c-17.576,0-31.875-14.264-31.875-31.797V89.53C58.483,79.179,66.895,70.788,77.272,70.788z"/>
					</g>
				</g>
				<path style="fill:#F4567F;" d="M306.364,143.973c-4.912,0-9.374,2.851-11.426,7.302c-6.775,14.695-21.661,24.898-38.938,24.898      c-17.277,0-32.163-10.203-38.938-24.898c-2.052-4.451-6.514-7.302-11.426-7.302h-72.178c-4.473,0-8.099,3.617-8.099,8.079      v44.241c0,4.462,3.626,8.079,8.099,8.079h31.644c5.762,0,10.433,4.66,10.433,10.407V336.36c0,10.655,8.659,19.293,19.341,19.293      h122.249c10.681,0,19.34-8.638,19.34-19.293V214.78c0-5.748,4.671-10.407,10.433-10.407h31.644c4.473,0,8.099-3.617,8.099-8.079      v-44.241c0-4.462-3.626-8.079-8.099-8.079H306.364z"/>
				<g>
					<path style="fill:#EF0F44;" d="M378.542,143.973H326.88c4.473,0,8.099,3.617,8.099,8.079v44.241       c0,4.462-3.626,8.079-8.099,8.079h-31.644c-5.762,0-10.433,4.66-10.433,10.407V336.36c0,10.655-8.659,19.293-19.341,19.293       h51.662c10.681,0,19.341-8.638,19.341-19.293V214.78c0-5.748,4.671-10.407,10.433-10.407h31.644       c4.473,0,8.099-3.617,8.099-8.079v-44.241C386.641,147.59,383.015,143.973,378.542,143.973z"/>
				</g>
			</g>
			<ellipse style="fill:#FFE6CF;" cx="256" cy="68.335" rx="54.277" ry="60.834"/>
			<path style="fill:#EFD0B6;" d="M256,7.5c-9.215,0-17.889,2.582-25.49,7.123c17.126,10.231,28.788,30.441,28.788,53.711     s-11.662,43.48-28.788,53.711c7.601,4.541,16.275,7.123,25.49,7.123c29.977,0,54.278-27.236,54.278-60.834S285.977,7.5,256,7.5z"/>
		</g>
	</g>
	<g>
		<path d="M341.167,382.553c-0.777-4.068-4.704-6.741-8.774-5.958c-4.068,0.777-6.736,4.705-5.959,8.774l19.868,103.967    c0.484,2.535-0.625,4.347-1.33,5.202c-0.705,0.854-2.272,2.289-4.853,2.298L289.73,497h-0.021c-2.712,0-5.115-1.725-5.982-4.296    l-20.62-61.118c-1.029-3.05-3.888-5.103-7.106-5.103s-6.078,2.053-7.106,5.103l-20.62,61.118    c-0.868,2.571-3.271,4.296-5.983,4.296h-0.021l-50.39-0.164c-2.581-0.009-4.148-1.443-4.853-2.298    c-0.704-0.855-1.814-2.667-1.33-5.201l19.925-104.269c0.777-4.069-1.891-7.997-5.959-8.774c-4.067-0.788-7.997,1.891-8.774,5.958    l-19.925,104.27c-1.194,6.248,0.442,12.647,4.488,17.557s10.016,7.737,16.378,7.758l50.39,0.164h0.071    c9.155-0.001,17.266-5.82,20.195-14.501L256,457.445l13.513,40.054c2.929,8.682,11.039,14.501,20.195,14.501h0.071l50.39-0.164    c6.362-0.021,12.332-2.849,16.378-7.758s5.682-11.309,4.488-17.558L341.167,382.553z"/>
		<path d="M256,136.669c34.064,0,61.777-30.654,61.777-68.334S290.064,0,256,0s-61.777,30.655-61.777,68.335    S221.936,136.669,256,136.669z M256,15c25.793,0,46.777,23.926,46.777,53.335c0,29.408-20.984,53.334-46.777,53.334    s-46.777-23.926-46.777-53.334C209.223,38.926,230.207,15,256,15z"/>
		<path d="M496.841,42.202h-13.017c-8.347,0-15.137,6.79-15.137,15.137v19.625h-10.886c-4.468-8.142-13.135-13.676-23.073-13.676    s-18.605,5.533-23.073,13.676h-12.159V57.339c0-8.347-6.791-15.137-15.137-15.137h-13.017c-8.347,0-15.137,6.79-15.137,15.137    v54.249c0,8.347,6.791,15.137,15.137,15.137h13.017c8.347,0,15.137-6.79,15.137-15.137V91.964h8.944v54.656h-15.277    c-2.212-5.92-7.931-10.147-14.621-10.147h-72.178c-7.812,0-14.97,4.578-18.237,11.663c-5.752,12.477-18.363,20.538-32.127,20.538    s-26.375-8.062-32.127-20.539c-3.267-7.084-10.425-11.662-18.237-11.662h-12.959c-4.142,0-7.5,3.357-7.5,7.5s3.358,7.5,7.5,7.5    h12.959c1.979,0,3.791,1.155,4.615,2.942c8.194,17.774,26.152,29.259,45.749,29.259s37.555-11.484,45.749-29.258    c0.824-1.788,2.636-2.943,4.615-2.943h72.178c0.331,0,0.599,0.26,0.599,0.579v44.241c0,0.319-0.269,0.579-0.599,0.579h-31.644    c-9.888,0-17.933,8.033-17.933,17.907V336.36c0,6.503-5.312,11.793-11.84,11.793H194.875c-6.529,0-11.84-5.29-11.84-11.793    V214.779c0-9.874-8.045-17.907-17.933-17.907h-31.644c-0.331,0-0.599-0.26-0.599-0.579v-44.241c0-0.319,0.269-0.579,0.599-0.579    h29.221c4.142,0,7.5-3.357,7.5-7.5s-3.358-7.5-7.5-7.5h-29.221c-6.69,0-12.409,4.227-14.621,10.147H103.56V91.964h8.944v19.624    c0,8.347,6.791,15.137,15.137,15.137h13.017c8.347,0,15.137-6.79,15.137-15.137V57.339c0-8.347-6.791-15.137-15.137-15.137    h-13.017c-8.347,0-15.137,6.79-15.137,15.137v19.625h-12.159c-4.468-8.142-13.135-13.676-23.073-13.676    s-18.605,5.533-23.073,13.676H43.313V57.339c0-8.347-6.791-15.137-15.137-15.137H15.159c-8.346,0-15.137,6.79-15.137,15.137    v54.249c0,8.347,6.791,15.137,15.137,15.137h13.017c8.347,0,15.137-6.79,15.137-15.137V91.964h7.67v67.844    c0,21.668,17.664,39.297,39.375,39.297h27.755c1.329,7.253,7.704,12.768,15.344,12.768h31.644c1.617,0,2.933,1.304,2.933,2.907    V336.36c0,14.773,12.041,26.793,26.84,26.793h122.249c14.8,0,26.84-12.02,26.84-26.793V214.779c0-1.604,1.316-2.907,2.933-2.907    h31.644c7.641,0,14.015-5.515,15.344-12.768h27.755c21.712,0,39.375-17.629,39.375-39.297V91.964h7.67v19.624    c0,8.347,6.791,15.137,15.137,15.137h13.017c8.346,0,15.137-6.79,15.137-15.137V57.339    C511.978,48.992,505.188,42.202,496.841,42.202z M384.496,111.588c0,0.075-0.062,0.137-0.137,0.137h-13.017    c-0.076,0-0.137-0.062-0.137-0.137V57.339c0-0.075,0.062-0.137,0.137-0.137h13.017c0.076,0,0.137,0.062,0.137,0.137V111.588z     M127.504,57.339c0-0.075,0.062-0.137,0.137-0.137h13.017c0.076,0,0.137,0.062,0.137,0.137v54.249    c0,0.075-0.062,0.137-0.137,0.137h-13.017c-0.076,0-0.137-0.062-0.137-0.137V57.339z M28.313,111.588    c0,0.075-0.062,0.137-0.137,0.137H15.159c-0.075,0-0.137-0.062-0.137-0.137V57.339c0-0.075,0.062-0.137,0.137-0.137h13.017    c0.076,0,0.137,0.062,0.137,0.137V111.588z M65.983,159.808V89.53c0-6.199,5.064-11.242,11.289-11.242S88.56,83.331,88.56,89.53    v64.59c0,4.143,3.358,7.5,7.5,7.5h21.799v22.484h-27.5C76.917,184.104,65.983,173.205,65.983,159.808z M446.017,159.808    c0,13.397-10.935,24.297-24.375,24.297h-27.5V161.62h21.799c4.142,0,7.5-3.357,7.5-7.5V89.53c0-6.199,5.064-11.242,11.289-11.242    s11.289,5.043,11.289,11.242V159.808z M496.978,111.588c0,0.075-0.062,0.137-0.137,0.137h-13.017    c-0.076,0-0.137-0.062-0.137-0.137V57.339c0-0.075,0.062-0.137,0.137-0.137h13.017c0.075,0,0.137,0.062,0.137,0.137V111.588z"/>
	</g>
</g>















</svg>
