<svg id="Capa_1" enable-background="new 0 0 512.007 512.007" height="512" viewBox="0 0 512.007 512.007" width="512" xmlns="http://www.w3.org/2000/svg"><g><g><path d="m497.023 456.37-73.562-40.276c-9.891-5.415-22.299-1.787-27.715 8.104l-7.995 13.745-53.841-20.42-13.327 31.259c21.605 11.385 163.757 18.424 176.44 7.588z" fill="#e0aea2"/><path d="m499.177 457.549-2.154-1.179c-.85.221-1.763.343-2.736.343-59.812 0-116.675-2.732-168.248-7.931h-5.455v21.664c53.204 4.304 112.025 6.268 173.703 6.267 10.56 0 14.152-14.093 4.89-19.164z" fill="#d79b8c"/><path d="m326.039 448.782 7.872-31.259-126.229-47.874c-7.024-14.764-18.006-27.952-32.796-37.068l-78.075 66.389c41.686 27.998 117.727 49.812 229.228 49.812z" fill="#edf6ff"/><path d="m114.022 398.97h-17.211v18.773c2.074 1.322 4.17 2.625 6.305 3.891 42.973 25.496 120.976 41.005 217.468 48.811l5.455-21.664c-91.895-9.263-166.98-26.365-212.017-49.811z" fill="#cde2ff"/><path d="m175.859 102.849c0-29.089-12.924-45.336-26.392-54.573-.584-.334-1.153-.674-1.751-1.002-41.798-22.908-71.475-12.872-94.649 29.411 0 0-20.455 7.351-22.932 12.319-2.332 4.679 1.375 12.501 5.267 19.913-2.463 4.494-6.347 19.088-8.985 29.712-1.725 6.948 1.448 14.182 7.727 17.623 0 0 41.17 10 59.349 10 34.363.001 82.366-23.496 82.366-63.403z" fill="#e0aea2"/><path d="m119.224 235.037c-1.61-10.442-5.367-28.484-22.674-34.725-13.546-4.885-33.872-3.393-46.046-.069-6.581 7.986-15.5 16.986-23.515 26.846l82.235 16.568z" fill="#e0aea2"/><path d="m109.224 235.037v8.62h20.671c0-33.345-20.819-42.492-9.912-65.299 6.849-14.322 38.535-9.684 56.68-42.791 17.923-32.702 10.052-65.993-27.195-87.291 7.375 8.792 16.392 25.484 16.392 54.573 0 39.908-54.188 53.404-72.366 53.404s-59.349 0-59.349 0l26.073 14.29v11.192c0 5.326-3.965 11.531-9.715 18.508 19.21.123 34.577 1.362 46.046 10.069 6.585 5 11.065 14.283 12.675 24.725z" fill="#d79b8c"/><path d="m90.164 227.089h-63.176c-10.53 12.955-19.488 27.394-19.488 42.97 0 39.586 16.347 78.605 45.327 110.697 0 0 37.337-153.667 37.337-153.667z" fill="#e27f86"/><path d="m127.007 319.675c-17.995 0-28.193 0-28.193 0s31.081-50.493 31.081-76.018l-39.73-16.568s-9.262 9.262-20 20c-10.556 10.556-17.337 22.35-17.337 36.02v97.647c12.435 13.771 27.182 26.275 43.985 36.987l78.075-85.161c-13.037-8.035-29.031-12.907-47.881-12.907z" fill="#df646e"/><path d="m119.894 243.657c0-13.761-6.038-27.384-23.345-33.345-18.416 0-33.345 16.048-33.345 34.464 0 20.1 9.623 38.332 9.623 38.332v157.908l-48.375 17.277c-8.871 3.168-6.597 16.299 2.823 16.299l71.317-8.052c8.856-37.126 21.302-155.886 21.302-222.883z" fill="#e0aea2"/><path d="m96.549 210.312c8.358 6.345 13.345 19.584 13.345 33.345 0 61.992-9.31 162.272-17.717 206.321-1.102 5.776-5.508 10.359-11.225 11.731l-53.677 12.882h66.058c7.795 0 14.577-5.355 16.345-12.947 11.608-49.853 20.217-156.99 20.217-217.988-.001-18.415-14.93-33.344-33.346-33.344z" fill="#d79b8c"/></g><g><path d="m494.287 484.213c-111.281 0-263.051-6.57-354.121-37.872-3.918-1.347-6.002-5.613-4.655-9.53 1.347-3.919 5.617-5.999 9.53-4.655 40.709 13.992 98.16 24.178 169.824 30.289l10.143-40.276-13.202-5.007c-3.873-1.469-5.822-5.8-4.354-9.672 1.47-3.875 5.804-5.821 9.672-4.354l67.342 25.54 4.752-8.17c3.586-6.494 9.479-11.215 16.604-13.298 7.156-2.093 14.701-1.274 21.242 2.309l75.716 41.454c7.214 3.949 10.689 11.958 8.65 19.929-2.038 7.962-8.927 13.313-17.143 13.313zm-164.261-20.552c48.823 3.676 103.817 5.552 164.261 5.552 1.728 0 2.373-1.104 2.61-2.032.238-.932.203-2.219-1.321-3.054l-75.716-41.454c-3.026-1.656-6.516-2.035-9.83-1.067-3.312.968-6.048 3.168-7.705 6.194-.03.057-.062.113-.095.17l-7.995 13.744c-1.847 3.172-5.715 4.54-9.143 3.242l-45.966-17.433zm-236.694 18.432h-66.058c-7.877 0-14.316-5.421-15.661-13.182-1.344-7.761 2.897-15.031 10.315-17.681l43.397-15.498v-32.164c-41.55-36.28-65.325-84.805-65.325-133.509 0-4.143 3.357-7.5 7.5-7.5s7.5 3.357 7.5 7.5c0 40.398 18.169 80.845 50.326 112.994v-98.194c-2.527-5.314-9.622-21.854-9.622-40.083 0-3.499.442-6.913 1.271-10.188h-26.369c-2.554 3.278-4.955 6.629-7.06 10.02-2.185 3.521-6.811 4.601-10.327 2.417-3.52-2.184-4.602-6.808-2.417-10.327 6.828-11.003 15.926-21.047 23.952-29.908 8.42-9.296 17.963-19.832 17.963-25.056v-6.749l-22.177-12.155c-9.256-5.072-13.944-15.767-11.401-26.008 3.964-15.962 6.446-23.714 7.951-27.647-3.551-7.04-7.315-16.194-3.667-23.516 2.536-5.085 11.656-10.479 27.109-16.032 3.897-1.401 8.19.624 9.593 4.521 1.401 3.897-.622 8.193-4.519 9.596-7.925 2.852-16.243 6.8-18.72 8.835-.013 1.462.979 4.896 5.156 12.854 1.168 2.225 1.145 4.887-.063 7.091-.58 1.058-2.891 6.198-8.282 27.915-.903 3.637.763 7.436 4.052 9.238l26.073 14.29c2.402 1.316 3.896 3.838 3.896 6.577v11.191c0 11.007-9.641 21.65-21.846 35.125-.812.897-1.637 1.808-2.468 2.729h20.732c7.537-10.117 19.38-16.776 32.412-16.776 5.608 0 10.957 1.137 15.827 3.19-3.282-8.876-5.081-18.498.841-30.88 4.01-8.384 12.615-11.825 21.726-15.467 11.984-4.791 25.567-10.222 35.143-27.693 8.144-14.858 10.32-29.671 6.297-42.838-4.225-13.821-15.384-26.019-32.27-35.273-29.564-16.203-50.897-14.772-69.17 4.636-2.841 3.017-7.587 3.156-10.603.319-3.016-2.84-3.158-7.586-.319-10.603 11.541-12.257 24.82-19.062 39.47-20.224 14.47-1.148 30.122 3.011 47.831 12.717 20.388 11.174 34.014 26.403 39.405 44.044 5.233 17.122 2.645 35.944-7.487 54.431-12.163 22.192-29.829 29.255-42.729 34.412-6.589 2.634-12.279 4.909-13.763 8.011-4.515 9.44-2.153 15.049 2.133 25.229 3.793 9.01 8.514 20.223 8.514 36.834 0 19.56-.86 43.544-2.401 68.793 17.345 1.215 33.009 6.434 46.655 15.562 13.128 8.781 23.952 21.071 31.449 35.67l76.919 29.173c3.873 1.469 5.822 5.8 4.354 9.672-1.469 3.875-5.805 5.82-9.672 4.354l-79.675-30.218c-1.809-.686-3.282-2.044-4.113-3.791-5.998-12.607-14.471-22.882-24.85-30.472l-48.255 52.635c-3.096 26.782-6.783 50.958-10.824 68.312-2.57 11.036-12.294 18.745-23.649 18.745zm3.217-264.281c-14.009 0-25.845 12.348-25.845 26.964 0 17.904 8.673 34.675 8.761 34.842.562 1.074.861 2.278.861 3.49v157.909c0 3.17-1.992 5.997-4.978 7.063l-48.375 17.276c-.38.136-.708.253-.58.994.129.741.478.741.881.741h66.058c4.343 0 8.061-2.939 9.04-7.148 13.466-57.827 20.022-152.691 20.022-216.287.001-14.25-11.594-25.844-25.845-25.844zm37.46 109.616c-.994 14.148-2.186 28.494-3.545 42.51l32.355-35.292c-8.754-4.006-18.436-6.46-28.81-7.218z"/></g></g></svg>