<svg id="bold" enable-background="new 0 0 24 24" height="512" viewBox="0 0 24 24" width="512" xmlns="http://www.w3.org/2000/svg"><path d="m21.25 0h-18.5c-1.517 0-2.75 1.233-2.75 2.75v13.5c0 1.517 1.233 2.75 2.75 2.75h1.25v4.25c0 .303.183.577.463.693.093.038.19.057.287.057.195 0 .387-.076.53-.22l4.78-4.78h11.19c1.517 0 2.75-1.233 2.75-2.75v-13.5c0-1.517-1.233-2.75-2.75-2.75zm-7.21 13.891c0 .61-.5 1.11-1.12 1.11h-1.84c-.54 0-1.12-.4-1.12-1.29v-.54h4.08zm.81-2.96c-.42.34-.69.78-.78 1.24h-4.13c-.07-.45-.32-.87-.73-1.19-1.11-.87-1.74-2.18-1.71-3.6.05-2.38 2.04-4.35 4.43-4.38 1.21-.03 2.37.44 3.24 1.3.86.84 1.33 1.97 1.33 3.17 0 1.35-.599 2.61-1.65 3.46z"/></svg>