<svg id="Capa_1" enable-background="new 0 0 512.367 512.367" height="512" viewBox="0 0 512.367 512.367" width="512" xmlns="http://www.w3.org/2000/svg"><g><g><g><g id="XMLID_354_"><g><path d="m245.669 166.038h51.61c24.48 0 46.65 9.93 62.7 25.97 16.266 16.276 26.248 38.845 25.964 63.734-.556 48.753-41.043 87.636-89.8 87.636h-132.354c-4.21 0-8.02 1.71-10.78 4.46-2.75 2.76-4.46 6.57-4.46 10.77 0 8.41 6.82 15.23 15.24 15.23h28.77c24.516 0 44.39 19.874 44.39 44.39v76.055c0 5.846-4.739 10.585-10.585 10.585h-13.251c-5.846 0-10.585-4.739-10.585-10.585v-75.035c0-7.169-5.811-12.98-12.98-12.98h-70.37c-22.92 0-43.66-9.29-58.68-24.3-15.01-15.02-24.3-35.76-24.3-58.68 0-45.83 37.15-82.98 82.98-82.98h-11.461c-38.994 0-71.383-31.226-71.519-70.22-.068-19.559 7.835-37.275 20.64-50.08 12.75-12.75 30.37-20.64 49.83-20.64h115.28v-76.41c0-8.538 6.922-15.46 15.46-15.46h44.41c8.538 0 15.46 6.922 15.46 15.46v91.47c.001 28.5-23.109 51.61-51.609 51.61z" fill="#e79098"/></g></g><circle cx="371.483" cy="351.121" fill="#e3f6fc" r="104.684"/><path d="m308.774 351.121c0-50.627 35.948-92.864 83.705-102.583-6.781-1.38-13.808-2.101-20.997-2.101-57.815 0-104.684 46.869-104.684 104.685s46.869 104.685 104.684 104.685c7.188 0 14.196-.718 20.977-2.098-47.757-9.721-83.685-51.96-83.685-102.588z" fill="#cfeffc"/><g fill="#e79098"><circle cx="380.141" cy="302.867" r="19.023"/><circle cx="341.036" cy="367.364" r="28.263"/></g></g><path d="m281.753 7.498h-44.278c-8.575 0-15.526 6.951-15.526 15.526v76.278c0 .036-.029.066-.066.066h-115.214c-19.46 0-37.08 7.89-49.83 20.64-12.3 12.3-20.077 29.132-20.611 47.776-1.142 39.888 31.686 72.524 71.591 72.524h11.36c-21.29 0-40.61 7.926-55.297 21.107-16.982 15.194-27.683 37.291-27.683 61.873 0 22.92 9.29 43.66 24.3 58.68 15.02 15.01 35.76 24.3 58.68 24.3h70.304c7.205 0 13.046 5.841 13.046 13.046v74.903c0 5.882 4.769 10.651 10.651 10.651h13.118c5.882 0 10.651-4.768 10.651-10.651v-8.175c0-.036-.029-.066-.066-.066h-7.999c-5.882 0-10.651-4.768-10.651-10.651v-63.269c0-13.631-11.05-24.681-24.681-24.681 0 0-62.504-.069-64.396-.202-6.31-.444-12.242-3.174-16.72-7.643l-.052-.052c-15.01-15.02-24.3-35.76-24.3-58.68 0-39.477 27.57-72.499 64.504-80.899.57-.13.977-.63.977-1.215 0-.645-.491-1.176-1.133-1.24-35.713-3.55-63.706-25.04-63.832-61.615-.003-.988.13-11.758 1.017-14.763 3.761-12.75 12.527-23.569 24.488-29.368 8.73-4.233 18.46-6.596 28.717-6.596h83.748c15.444 0 27.964-12.52 27.964-27.964v-49.382c0-8.643 6.708-15.65 14.981-15.65h27.697c.036 0 .066-.029.066-.066v-9.017c.001-8.574-6.95-15.525-15.525-15.525z" fill="#e17983"/></g><g><path d="m75.004 114.391c1.135 0 2.288-.259 3.37-.805 8.846-4.46 18.365-6.721 28.296-6.721h109.894c7.107 0 12.89-5.782 12.89-12.89v-86.475c0-4.143-3.357-7.5-7.5-7.5s-7.5 3.357-7.5 7.5v84.365h-107.784c-12.297 0-24.089 2.802-35.048 8.326-3.699 1.865-5.186 6.375-3.321 10.073 1.319 2.617 3.961 4.127 6.703 4.127z"/><path d="m163.785 350.873h73.242c4.143 0 7.5-3.357 7.5-7.5s-3.357-7.5-7.5-7.5h-73.242c-12.536 0-22.734 10.198-22.734 22.734s10.198 22.734 22.734 22.734h28.772c20.345 0 36.896 16.552 36.896 36.896v86.629c0 4.143 3.357 7.5 7.5 7.5s7.5-3.357 7.5-7.5v-86.629c0-28.616-23.28-51.896-51.896-51.896h-28.772c-4.265 0-7.734-3.47-7.734-7.734s3.47-7.734 7.734-7.734z"/><path d="m142.854 166.034c0 4.143 3.357 7.5 7.5 7.5h146.926c31.12 0 59.893 18.161 73.301 46.268 1.287 2.696 3.974 4.272 6.774 4.272 1.083 0 2.183-.235 3.225-.732 3.738-1.784 5.323-6.261 3.54-9.999-15.885-33.295-49.972-54.809-86.84-54.809h-12.317c12.148-10.833 19.817-26.589 19.817-44.108v-106.926c0-4.143-3.357-7.5-7.5-7.5s-7.5 3.357-7.5 7.5v106.926c0 24.321-19.787 44.108-44.108 44.108h-95.317c-4.144 0-7.501 3.358-7.501 7.5z"/><path d="m189.55 398.767h-70.371c-13.431 0-26.634-3.589-38.182-10.378-3.567-2.097-8.167-.905-10.267 2.665-2.099 3.57-.906 8.167 2.665 10.267 13.85 8.143 29.682 12.446 45.783 12.446h70.371c3.021 0 5.48 2.458 5.48 5.479v85.621c0 4.143 3.357 7.5 7.5 7.5s7.5-3.357 7.5-7.5v-85.621c.001-11.292-9.186-20.479-20.479-20.479z"/><path d="m119.179 247.808h145.329c4.143 0 7.5-3.357 7.5-7.5s-3.357-7.5-7.5-7.5h-157.838c-34.722 0-62.971-28.249-62.971-62.972 0-13.81 4.392-26.921 12.699-37.916 2.497-3.305 1.842-8.009-1.463-10.506-3.307-2.497-8.009-1.84-10.506 1.463-10.291 13.621-15.73 29.859-15.73 46.96 0 33.046 20.674 61.335 49.76 72.667-29.492 14.927-49.76 45.531-49.76 80.783 0 20.042 6.435 39.041 18.607 54.942 1.477 1.93 3.705 2.942 5.961 2.941 1.59 0 3.193-.504 4.553-1.545 3.289-2.518 3.915-7.225 1.396-10.514-10.151-13.262-15.518-29.108-15.518-45.825.001-41.618 33.862-75.478 75.481-75.478z"/><path d="m371.482 238.937c-61.858 0-112.184 50.326-112.184 112.185s50.325 112.185 112.184 112.185c21.182 0 41.816-5.941 59.676-17.181 3.506-2.206 4.559-6.837 2.353-10.343-2.207-3.506-6.836-4.558-10.343-2.353-15.463 9.732-33.335 14.876-51.686 14.876-53.587 0-97.184-43.597-97.184-97.185s43.597-97.185 97.184-97.185c53.588 0 97.186 43.597 97.186 97.185 0 22.979-8.174 45.279-23.017 62.791-2.678 3.16-2.287 7.893.872 10.571 3.161 2.678 7.894 2.287 10.571-.872 17.136-20.219 26.573-45.963 26.573-72.49.001-61.858-50.325-112.184-112.185-112.184z"/><path d="m406.664 302.866c0-14.625-11.897-26.522-26.522-26.522s-26.523 11.897-26.523 26.522 11.898 26.523 26.523 26.523 26.522-11.898 26.522-26.523zm-26.522 11.524c-6.354 0-11.523-5.169-11.523-11.523s5.169-11.522 11.523-11.522 11.522 5.169 11.522 11.522c0 6.354-5.169 11.523-11.522 11.523z"/><path d="m341.036 403.127c19.72 0 35.764-16.043 35.764-35.763s-16.044-35.764-35.764-35.764-35.763 16.044-35.763 35.764 16.043 35.763 35.763 35.763zm0-56.526c11.449 0 20.764 9.314 20.764 20.764 0 11.448-9.314 20.763-20.764 20.763-11.448 0-20.763-9.314-20.763-20.763 0-11.45 9.315-20.764 20.763-20.764z"/><path d="m407.383 345.375c.84 3.423 3.904 5.715 7.278 5.715.592 0 1.192-.07 1.793-.218 4.022-.987 6.483-5.048 5.497-9.071l-2.417-9.854c-.986-4.022-5.047-6.487-9.071-5.497-4.022.987-6.483 5.048-5.497 9.071z"/><path d="m413.292 386.589c.262 0 .526-.014.793-.042l12.36-1.3c4.119-.434 7.107-4.124 6.675-8.243-.434-4.12-4.116-7.125-8.243-6.675l-12.36 1.3c-4.119.434-7.107 4.124-6.675 8.243.405 3.854 3.66 6.717 7.45 6.717z"/><path d="m380.145 421.637c1.743 0 3.495-.604 4.914-1.837l8.443-7.331c3.128-2.716 3.462-7.452.746-10.58-2.717-3.128-7.454-3.462-10.58-.746l-8.443 7.331c-3.128 2.716-3.462 7.452-.746 10.58 1.483 1.708 3.568 2.583 5.666 2.583z"/><path d="m321.109 310.064c.703.206 1.412.304 2.108.304 3.246 0 6.238-2.124 7.195-5.396l2.34-8c1.163-3.976-1.117-8.141-5.093-9.304-3.981-1.165-8.142 1.118-9.304 5.093l-2.34 8c-1.161 3.975 1.119 8.14 5.094 9.303z"/></g></g></svg>