<svg fill="none" height="512" viewBox="0 0 24 24" width="512" xmlns="http://www.w3.org/2000/svg" xmlns:xlink="http://www.w3.org/1999/xlink"><clipPath id="clip0_11_1182"><path d="m0 0h24v24h-24z"/></clipPath><g clip-path="url(#clip0_11_1182)"><path d="m11 8.75v3.68c0 .35.19.68.49.86l3.12 1.85c.36.21.82.09 1.03-.26.21-.36.1-.82-.26-1.03l-2.87-1.71v-3.4c-.01-.4-.35-.74-.76-.74s-.75.34-.75.75zm10 .75v-5.29c0-.45-.54-.67-.85-.35l-1.78 1.78c-1.81-1.81-4.39-2.85-7.21-2.6-4.18999.38-7.63999 3.75-8.09999 7.94-.6 5.42 3.63 10.02 8.93999 10.02 4.59 0 8.38-3.44 8.93-7.88.07-.6-.4-1.12-1-1.12-.5 0-.92.37-.98.86-.43 3.49-3.44 6.19-7.05 6.14-3.70999-.05-6.83999-3.18-6.89999-6.9-.06-3.9 3.11-7.1 6.99999-7.1 1.93 0 3.68.79 4.95 2.05l-2.09 2.09c-.32.32-.1.86.35.86h5.29c.28 0 .5-.22.5-.5z" fill="#000"/></g></svg>