<svg height="512" viewBox="0 0 256 256" width="512" xmlns="http://www.w3.org/2000/svg"><g id="Layer_1"><g><path d="m163.657 43.469v-8.03h-71.314v8.03c-8.912 0-14.57 6.794-14.57 14.092 0 7.353 5.715 14.092 14.57 14.092v1.025c0 11.784 5.705 22.215 14.487 28.703.001.001.002.002.004.003v11.41c0 11.698 9.485 21.166 21.166 21.166 11.693 0 21.166-9.474 21.166-21.166v-11.419c.001-.001.002-.002.004-.003 8.791-6.496 14.487-16.927 14.487-28.694v-1.025c8.913 0 14.57-6.794 14.57-14.092 0-7.353-5.714-14.092-14.57-14.092z" fill="#feb69f"/><g><path d="m192.833 123.315-43.663-10.52c0 11.692-9.478 21.17-21.17 21.17s-21.17-9.478-21.17-21.17l-43.663 10.52c-12.564 3.029-21.417 14.27-21.417 27.194v101.793h172.5v-101.793c0-12.924-8.853-24.165-21.417-27.194z" fill="#72c2e9"/></g><g><path d="m183.635 184.695h30.615v67.607h-30.615z" fill="#feb69f"/></g><g><g><path d="m110.154 5.904h-2.81c-8.284 0-15 6.716-15 15v14.535h28.185v-19.16c0-5.73-4.645-10.375-10.375-10.375z" fill="#878787"/></g><g><path d="m148.655 5.904h-17.751c-5.73 0-10.375 4.645-10.375 10.375v19.16h43.126v-14.535c0-8.285-6.715-15-15-15z" fill="#878787"/></g><g><path d="m92.345 61.731v-26.293h10.29v16.003c-.001 5.683-4.607 10.29-10.29 10.29z" fill="#878787"/></g><g><path d="m163.655 61.731c-5.683 0-10.29-4.607-10.29-10.29v-16.002h10.29z" fill="#878787"/></g></g><g><path d="m149.166 101.372v7.786c-6.415 3.748-13.651 5.707-21.166 5.707-7.534 0-14.77-1.949-21.166-5.688v-7.795c5.921 4.383 13.241 6.956 21.166 6.956s15.245-2.592 21.166-6.966z" fill="#ea8f7c"/></g><g><path d="m41.75 184.695h30.615v67.607h-30.615z" fill="#feb69f"/></g><g><path d="m62.53 184.7h9.83v67.6h-9.83z" fill="#ea8f7c"/></g><g><path d="m183.635 184.7h9.83v67.6h-9.83z" fill="#ea8f7c"/></g><g><g><path d="m202.192 90.125c-3.729-1.228-6.641-2.022-8.591-10.421-.635-2.737-4.548-2.73-5.181 0-1.907 8.213-4.566 9.092-8.591 10.422-2.424.801-2.43 4.248 0 5.051 6.686 2.209 7.444 5.476 8.591 10.421.637 2.743 4.545 2.742 5.182 0 1.905-8.212 4.709-9.139 8.591-10.421 2.423-.802 2.428-4.249-.001-5.052z"/></g><g><path d="m195.002 92.675c-1.48 1.03-2.8 2.42-3.94 4.44-.94-1.59-2.25-3.09-4.16-4.4 1.55-1.07 2.93-2.51 4.12-4.64 1.2 2.16 2.56 3.59 3.98 4.6z" fill="#f0c020"/></g></g><g><path d="m76.172 90.125c-3.729-1.228-6.641-2.022-8.591-10.421-.635-2.737-4.548-2.73-5.181 0-1.907 8.213-4.566 9.092-8.591 10.422-2.424.801-2.43 4.248 0 5.051 6.686 2.209 7.444 5.476 8.591 10.421.637 2.743 4.545 2.742 5.182 0 1.905-8.212 4.709-9.139 8.591-10.421 2.423-.802 2.428-4.249-.001-5.052z"/></g><g><path d="m68.982 92.675c-1.48 1.03-2.8 2.42-3.94 4.44-.94-1.59-2.25-3.09-4.16-4.4 1.55-1.07 2.93-2.51 4.12-4.64 1.2 2.16 2.56 3.59 3.98 4.6z" fill="#f0c020"/></g></g><g><path d="m51.75 187.2c-1.381 0-2.5-1.119-2.5-2.5v-34.19c0-9.495 6.445-17.678 15.675-19.9l27.6-6.652c1.351-.329 2.693.502 3.017 1.844.323 1.342-.503 2.693-1.845 3.016l-27.601 6.653c-6.975 1.68-11.846 7.864-11.846 15.04v34.19c0 1.38-1.119 2.499-2.5 2.499z" fill="#c5e5fe"/></g><g><path d="m51.75 244.8c-1.381 0-2.5-1.119-2.5-2.5v-3c0-1.381 1.119-2.5 2.5-2.5s2.5 1.119 2.5 2.5v3c0 1.381-1.119 2.5-2.5 2.5zm0-13c-1.381 0-2.5-1.119-2.5-2.5v-44.6c0-1.381 1.119-2.5 2.5-2.5s2.5 1.119 2.5 2.5v44.6c0 1.381-1.119 2.5-2.5 2.5z" fill="#fae0e1"/></g><g><path d="m118.275 75.759c0-1.381-1.119-2.5-2.5-2.5s-2.5 1.119-2.5 2.5c0 8.119 6.605 14.725 14.725 14.725s14.725-6.605 14.725-14.725c0-1.381-1.119-2.5-2.5-2.5s-2.5 1.119-2.5 2.5c0 5.362-4.362 9.725-9.725 9.725s-9.725-4.362-9.725-9.725z"/></g><g><path d="m113.875 50.599c-1.381 0-2.5 1.119-2.5 2.5v3.396c0 1.381 1.119 2.5 2.5 2.5s2.5-1.119 2.5-2.5v-3.396c0-1.381-1.119-2.5-2.5-2.5z"/></g><g><path d="m144.162 58.995c1.381 0 2.5-1.119 2.5-2.5v-3.396c0-1.381-1.119-2.5-2.5-2.5s-2.5 1.119-2.5 2.5v3.396c0 1.38 1.119 2.5 2.5 2.5z"/></g><g><path d="m130.5 69.115v-16.016c0-1.381-1.119-2.5-2.5-2.5s-2.5 1.119-2.5 2.5v16.017c0 1.381 1.119 2.5 2.5 2.5s2.5-1.12 2.5-2.501z"/></g><g><path d="m98.71 93.18c1.18-.71 1.56-2.25.85-3.43-.725-1.223-2.305-1.544-3.43-.85-1.149.685-1.59 2.226-.85 3.43.71 1.185 2.269 1.564 3.43.85z"/></g><g><path d="m128 136.461c11.789 0 21.825-8.746 23.436-20.407.006-.045.018-.089.024-.134l40.79 9.83c11.479 2.76 19.5 12.95 19.5 24.76v31.686h-25.615v-11.529c0-1.381-1.119-2.5-2.5-2.5s-2.5 1.119-2.5 2.5v14.029 67.606c0 1.381 1.119 2.5 2.5 2.5s2.5-1.119 2.5-2.5v-65.106h25.615v15.104c0 1.38 1.12 2.5 2.5 2.5s2.5-1.12 2.5-2.5v-.01-51.78c0-14.186-9.773-26.363-23.33-29.62l-41.754-10.07v-8.236c8.731-6.909 14.051-17.188 14.454-28.561 8.214-.986 14.607-7.986 14.607-16.462 0-8.462-6.372-15.452-14.566-16.456 0-.609-.005-4.58-.005-20.201 0-9.649-7.851-17.5-17.5-17.5h-17.751c-4.259 0-8.03 2.087-10.375 5.283-2.345-3.196-6.116-5.283-10.375-5.283h-2.81c-9.649 0-17.5 7.851-17.5 17.5 0 8.251-.005 18.297-.005 20.201-8.195 1.004-14.566 7.994-14.566 16.456 0 8.477 6.394 15.478 14.61 16.462.1 2.875.501 5.726 1.237 8.486.35 1.3 1.739 2.12 3.06 1.77 1.33-.35 2.13-1.72 1.771-3.06v-.01c-.938-3.511-1.105-6.174-1.105-9.556v-7.671c5.859-1.166 10.29-6.345 10.29-12.541v-13.501h45.73v13.501c0 6.197 4.431 11.375 10.29 12.541v7.671c0 .017.005.032.005.048 0 21.012-16.27 34.135-33.16 34.135-8.198 0-16.426-3.114-22.601-8.888-.97-.9-2.63-.84-3.529.13-.926.986-.905 2.57.12 3.53.737.688 1.531 1.349 2.344 1.992v8.22l-41.756 10.07c-13.558 3.257-23.33 15.435-23.33 29.62v101.79c0 1.38 1.12 2.5 2.5 2.5s2.5-1.12 2.5-2.5v-65.104h25.615v65.106c0 1.381 1.119 2.5 2.5 2.5s2.5-1.119 2.5-2.5v-67.606-14.029c0-1.381-1.119-2.5-2.5-2.5s-2.5 1.119-2.5 2.5v11.529h-25.615v-31.686c0-11.81 8.02-22 19.5-24.76l40.78-9.83c1.55 11.646 11.57 20.541 23.47 20.541zm47.727-78.899c0 5.701-4.137 10.454-9.566 11.415v-22.83c5.428.96 9.566 5.713 9.566 11.415zm-44.823-49.158h17.751c6.893 0 12.5 5.607 12.5 12.5v12.035c-17.003 0-21.518 0-38.126 0v-7.075c0-4.295 3.494-7.79 7.79-7.79h22.546c1.381 0 2.5-1.119 2.5-2.5s-1.119-2.5-2.5-2.5h-22.546c-2.92 0-5.606.995-7.762 2.648.288-4.083 3.693-7.318 7.847-7.318zm-36.059 12.5c0-6.893 5.607-12.5 12.5-12.5h2.81c4.155 0 7.559 3.236 7.847 7.318-2.155-1.654-4.842-2.648-7.762-2.648h-7.604c-1.381 0-2.5 1.119-2.5 2.5s1.119 2.5 2.5 2.5h7.604c4.296 0 7.79 3.495 7.79 7.79v7.075c-9.021 0-14.749 0-23.185 0zm-14.572 36.658c0-5.701 4.137-10.455 9.566-11.415v22.83c-5.428-.961-9.566-5.714-9.566-11.415zm19.862-6.121c0 3.421-2.217 6.334-5.29 7.378v-15.35-5.529h5.29zm55.73 0v-13.501h5.29v5.529 15.351c-3.073-1.044-5.29-3.957-5.29-7.379zm-46.531 61.353v-6.817c5.792 3.262 12.261 4.86 18.666 4.86 6.781 0 13.263-1.827 18.666-4.872v6.829c0 10.205-8.407 18.667-18.666 18.667-10.263 0-18.666-8.438-18.666-18.667z"/></g><g><path d="m214.25 219.8c-1.38 0-2.5 1.12-2.5 2.5v30c0 1.38 1.12 2.5 2.5 2.5s2.5-1.12 2.5-2.5v-30c0-1.38-1.12-2.5-2.5-2.5z"/></g><g><circle cx="214.25" cy="212.3" r="2.5"/></g></g></svg>