<svg height="512" viewBox="0 0 256 256" width="512" xmlns="http://www.w3.org/2000/svg"><g id="Layer_1"><g><g><g><path d="m145.861 108.571v14.91c0 9.864-7.996 17.861-17.861 17.861-9.895 0-17.861-7.986-17.861-17.861v-14.889c5.2 3.157 11.309 4.984 17.861 4.984 6.531-.001 12.65-1.827 17.861-5.005z" fill="#feb69f"/></g><g><path d="m197.255 154.703v95.233h-138.51v-95.233c0-14.528 10.101-27.106 24.299-30.232l27.095-5.964v4.973c0 9.874 7.966 17.861 17.861 17.861 9.864 0 17.861-7.997 17.861-17.861v-4.973l27.095 5.964c14.187 3.116 24.299 15.694 24.299 30.232z" fill="#fc5d3d"/></g><g><path d="m173.74 50.915v62.66h-27.879v-5.004c9.905-6.026 16.54-16.911 16.54-29.396v-17.747c0-5.169-3.828-9.544-8.956-10.225l-48.165-6.407c-6.191-.816-11.68 3.992-11.68 10.235v24.144c0 12.454 6.614 23.381 16.54 29.417v4.984h-27.88v-62.66c0-22.794 18.478-41.272 41.272-41.272h8.935c22.795-.001 41.273 18.477 41.273 41.271z" fill="#878787"/></g><g><path d="m145.861 108.571v8.192c-11.267 5.376-24.443 5.376-35.721.021v-8.193c5.2 3.157 11.309 4.984 17.861 4.984 6.53 0 12.649-1.826 17.86-5.004z" fill="#ea8f7c"/></g><g><path d="m153.441 51.199c5.128.681 8.959 5.055 8.959 10.228v17.748c0 12.485-6.635 23.37-16.54 29.396-5.211 3.178-11.329 5.004-17.861 5.004-6.552 0-12.66-1.826-17.861-4.984-9.926-6.036-16.54-16.963-16.54-29.417v-24.147c0-6.238 5.493-11.05 11.677-10.228z" fill="#feb69f"/></g><g><path d="m110.139 108.592v4.984h-3.24c-8.1-6.294-13.3-16.137-13.3-27.178v-7.223c.001 12.454 6.614 23.381 16.54 29.417z" fill="#4c4944"/></g><g><path d="m162.4 79.175v7.223c0 11.082-5.231 20.904-13.331 27.178h-3.209v-5.004c9.906-6.027 16.54-16.912 16.54-29.397z" fill="#4c4944"/></g><g><path d="m80.89 249.936h-22.145v-81.366h20.515l-4.598 22.085c-1.082 5.196-.12 10.609 2.686 15.115 2.196 3.526 3.543 7.028 3.543 11.589v32.577z" fill="#feb69f"/></g><g><path d="m80.89 217.36v32.576h-7v-32.576c0-3.86-1.08-7.64-3.12-10.91-3.002-4.86-4.327-9.939-3.11-15.8l4.6-22.08h7l-4.6 22.08c-1.08 5.2-.12 10.61 2.69 15.12 2.159 3.495 3.54 6.949 3.54 11.59z" fill="#ea8f7c"/></g><g><path d="m175.11 249.936h22.145v-82.366h-20.515l4.598 22.085c1.082 5.196.119 10.61-2.687 15.115-2.196 3.526-3.541 7.028-3.541 11.59z" fill="#feb69f"/></g><g><path d="m185.23 205.45c-2.04 3.27-3.12 7.05-3.12 10.91v33.576h-7v-33.576c0-4.584 1.363-8.064 3.541-11.59 2.81-4.51 3.769-9.92 2.689-15.12l-4.6-22.08h7l4.6 22.08c1.217 5.861-.108 10.94-3.11 15.8z" fill="#ea8f7c"/></g></g></g><g><g><path d="m218.316 105.884c-3.729-1.228-6.641-2.022-8.591-10.421-.635-2.737-4.548-2.73-5.181 0-1.907 8.213-4.566 9.092-8.591 10.422-2.424.801-2.43 4.248 0 5.051 6.686 2.209 7.444 5.476 8.591 10.421.637 2.743 4.545 2.742 5.182 0 1.905-8.212 4.709-9.139 8.591-10.421 2.423-.802 2.429-4.25-.001-5.052z"/></g><g><path d="m211.126 108.434c-1.48 1.03-2.8 2.42-3.94 4.44-.94-1.59-2.25-3.09-4.16-4.4 1.55-1.07 2.93-2.51 4.12-4.64 1.2 2.16 2.56 3.59 3.98 4.6z" fill="#f0c020"/></g></g><g><g><path d="m60.047 105.884c-3.729-1.228-6.641-2.022-8.591-10.421-.635-2.737-4.548-2.73-5.181 0-1.907 8.213-4.566 9.092-8.591 10.422-2.424.801-2.43 4.248 0 5.051 6.686 2.209 7.444 5.476 8.591 10.421.637 2.743 4.545 2.742 5.182 0 1.905-8.212 4.709-9.139 8.591-10.421 2.423-.802 2.429-4.25-.001-5.052z"/></g><g><path d="m52.858 108.434c-1.48 1.03-2.8 2.42-3.94 4.44-.94-1.59-2.25-3.09-4.16-4.4 1.55-1.07 2.93-2.51 4.12-4.64 1.2 2.16 2.56 3.59 3.98 4.6z" fill="#f0c020"/></g></g><g><path d="m90.89 246.083c-1.381 0-2.5-1.119-2.5-2.5v-26.223c0-6.135-1.78-10.864-4.68-15.564-1.748-2.805-2.412-6.225-1.708-9.615l4.643-22.283c.281-1.352 1.604-2.223 2.957-1.938 1.352.281 2.219 1.605 1.938 2.957l-4.642 22.283c-.429 2.071-.045 4.185 1.062 5.96 3.386 5.49 5.431 11.105 5.431 18.2v26.224c-.001 1.38-1.12 2.499-2.501 2.499zm.244-82.965c-.169 0-.34-.017-.512-.053-1.352-.281-2.219-1.605-1.938-2.957l.612-2.937c.281-1.352 1.605-2.221 2.957-1.938 1.352.281 2.219 1.605 1.938 2.957l-.612 2.937c-.246 1.18-1.286 1.991-2.445 1.991z" fill="#ffcbc3"/></g><g><path d="m56.245 154.703v95.232c0 1.381 1.119 2.5 2.5 2.5s2.5-1.119 2.5-2.5v-78.865h14.94l-3.972 19.075c-1.218 5.853-.148 11.871 3.012 16.945 1.957 3.144 3.165 6.191 3.165 10.268v32.577c0 1.381 1.119 2.5 2.5 2.5s2.5-1.119 2.5-2.5v-32.577c0-5.042-1.476-8.983-3.92-12.911-2.477-3.978-3.315-8.695-2.36-13.283l4.598-22.084 2.692-12.931c.282-1.352-.586-2.676-1.938-2.957-1.353-.285-2.676.586-2.958 1.938l-2.278 10.94h-15.981v-11.367c0-13.252 9.394-24.94 22.336-27.791l24.058-5.295v1.863c0 11.227 9.134 20.361 20.36 20.361s20.36-9.134 20.36-20.361v-1.863l24.06 5.295c12.942 2.843 22.335 14.53 22.335 27.79v10.367h-15.982l-2.287-10.985c-.281-1.352-1.605-2.224-2.957-1.938-1.352.281-2.219 1.605-1.938 2.957.793 3.808 6.524 31.336 7.299 35.06.955 4.588.117 9.306-2.36 13.284-2.461 3.952-3.92 7.897-3.92 12.911v33.577c0 1.381 1.119 2.5 2.5 2.5s2.5-1.119 2.5-2.5v-33.577c0-4.032 1.18-7.082 3.165-10.268 3.16-5.075 4.23-11.093 3.012-16.946l-3.972-19.075h14.94v79.866c0 1.381 1.119 2.5 2.5 2.5s2.5-1.119 2.5-2.5v-95.232c0-15.59-11.045-29.331-26.261-32.673l-25.133-5.532v-6.574c10.377-6.861 16.54-18.242 16.54-30.749v-17.748c0-6.4-4.785-11.863-11.129-12.706-1.356-.18-1.683-.283-1.683-.283-5.487-.729-9.624-5.453-9.624-10.988v-1.711c0-1.381-1.119-2.5-2.5-2.5s-2.5 1.119-2.5 2.5v1.711c0 3.533 1.164 6.837 3.143 9.522l-.482-.064h-.001c-5.486-.729-9.624-5.453-9.624-10.987v-1.711c0-1.381-1.119-2.5-2.5-2.5s-2.5 1.119-2.5 2.5v1.711c0 3.504 1.144 6.783 3.093 9.455l-22.987-3.054c-7.681-1.021-14.506 4.963-14.506 12.705v24.147c0 12.521 6.163 23.909 16.54 30.769v6.554l-25.133 5.532c-15.217 3.352-26.262 17.093-26.262 32.674zm87.115-31.223c0 8.47-6.891 15.361-15.36 15.361s-15.36-6.891-15.36-15.361c0-6.043 0-4.723 0-10.741 4.632 2.117 9.968 3.335 15.36 3.335 5.367 0 10.68-1.202 15.36-3.348zm-47.26-44.305v-24.148c0-4.708 4.145-8.372 8.848-7.75l34.516 4.586 13.648 1.813c3.87.515 6.789 3.846 6.789 7.75v17.748c0 11.227-5.734 21.417-15.342 27.262-4.976 3.034-10.701 4.638-16.559 4.638-5.888 0-11.669-1.649-16.563-4.621-9.604-5.839-15.337-16.037-15.337-27.278z"/></g><g><path d="m123.53 12.14h8.94c7.45 0 14.69 2.13 20.93 6.13 1.13.73 2.74.37 3.46-.75.74-1.16.41-2.71-.75-3.45-7.05-4.53-15.22-6.93-23.64-6.93h-8.94c-24.131 0-43.77 19.519-43.77 43.78v62.66c0 1.37 1.12 2.5 2.5 2.5s2.5-1.13 2.5-2.5v-62.66c0-21.501 17.419-38.78 38.77-38.78z"/></g><g><path d="m173.74 116.08c1.38 0 2.5-1.13 2.5-2.5v-62.66c0-7.59-1.97-15.06-5.7-21.61-.65-1.15-2.24-1.6-3.4-.94-1.168.665-1.648 2.166-.94 3.41v.01c3.3 5.8 5.04 12.41 5.04 19.13v62.66c0 1.37 1.12 2.5 2.5 2.5z"/></g><g><path d="m164.15 24.35c1-.95 1.05-2.53.1-3.53-.92-.97-2.57-1.02-3.54-.1-1 .95-1.04 2.53-.09 3.53.993 1.055 2.568 1.02 3.53.1z"/></g><g><path d="m113.706 84.337c0 7.882 6.412 14.294 14.294 14.294s14.294-6.412 14.294-14.294c0-1.381-1.119-2.5-2.5-2.5s-2.5 1.119-2.5 2.5c0 5.125-4.169 9.294-9.294 9.294s-9.294-4.169-9.294-9.294c0-1.381-1.119-2.5-2.5-2.5s-2.5 1.12-2.5 2.5z"/></g><g><path d="m114.373 69.341c1.381 0 2.5-1.119 2.5-2.5v-3.276c0-1.381-1.119-2.5-2.5-2.5s-2.5 1.119-2.5 2.5v3.276c0 1.381 1.119 2.5 2.5 2.5z"/></g><g><path d="m143.593 69.341c1.381 0 2.5-1.119 2.5-2.5v-3.276c0-1.381-1.119-2.5-2.5-2.5s-2.5 1.119-2.5 2.5v3.276c0 1.381 1.119 2.5 2.5 2.5z"/></g><g><path d="m128 81.518c1.381 0 2.5-1.119 2.5-2.5v-12.177c0-1.381-1.119-2.5-2.5-2.5s-2.5 1.119-2.5 2.5v12.176c0 1.381 1.119 2.501 2.5 2.501z"/></g><g><path d="m91.75 116.075c1.381 0 2.5-1.119 2.5-2.5v-10.325c0-1.381-1.119-2.5-2.5-2.5s-2.5 1.119-2.5 2.5v10.325c0 1.381 1.119 2.5 2.5 2.5z"/></g><g><path d="m161.75 103.25v10.325c0 1.381 1.119 2.5 2.5 2.5s2.5-1.119 2.5-2.5v-10.325c0-1.381-1.119-2.5-2.5-2.5s-2.5 1.119-2.5 2.5z"/></g></g></svg>