<svg id="Capa_1" enable-background="new 0 0 512 512" height="512" viewBox="0 0 512 512" width="512" xmlns="http://www.w3.org/2000/svg"><g><g><g clip-rule="evenodd" fill-rule="evenodd"><path d="m202.565 188.711.272 91.931-14.077 190.34-18.063 3.518c-8.098 1.577-15 6.75-15 15v15h70.303l30-208.038 30 208.038h70.302v-15c0-8.25-6.902-13.423-15-15l-18.063-3.518-14.077-190.34.272-91.932 32.359 93.428c3.287 9.49 14.158 14.541 23.649 11.259s14.077-13.578 11.289-23.225l-38.085-131.81c-3.387-11.723-9.983-25.455-29.533-28.028l-53.113-6.994-53.113 6.994c-19.549 2.574-26.146 16.305-29.533 28.028l-38.085 131.81c-2.788 9.647 1.798 19.944 11.289 23.225 9.491 3.282 20.362-1.768 23.649-11.259z" fill="#f5d9ab"/><path d="m218.5 65.84c0 20.625 16.875 37.5 37.5 37.5s37.5-16.875 37.5-37.5v-20.84c0-20.625-16.875-37.5-37.5-37.5s-37.5 16.875-37.5 37.5z" fill="#f5d9ab"/><path d="m218.5 65.84c0 20.625 16.875 37.5 37.5 37.5 3.915 0 7.695-.609 11.25-1.736-15.173-4.807-26.25-19.054-26.25-35.764v-20.84c0-16.71 11.077-30.957 26.25-35.764-3.555-1.127-7.335-1.736-11.25-1.736-20.625 0-37.5 16.875-37.5 37.5z" fill="#f0b582"/><path d="m202.521 173.703.317 106.94-14.077 190.34-18.063 3.518c-8.098 1.577-15 6.75-15 15v15h52.563l17.077-223.858-.317-106.939z" fill="#f0b582"/></g><g><path d="m278.5 153.681h-15v-15h15zm-30 0h-15v-15h15z" fill="#fff"/></g></g><path d="m383.936 268.09-38.085-131.81c-2.13-7.373-8.61-29.809-35.759-33.383l-24.473-3.222c9.418-8.254 15.381-20.358 15.381-33.835v-20.84c0-24.813-20.187-45-45-45s-45 20.187-45 45v2.92h15v-2.92c0-16.542 13.458-30 30-30s30 13.458 30 30v20.84c0 16.542-13.458 30-30 30s-30-13.458-30-30v-2.92h-15v2.919c0 13.477 5.964 25.581 15.381 33.835l-24.473 3.222c-27.147 3.574-33.629 26.01-35.759 33.382l-38.085 131.81c-3.955 13.688 3.092 27.917 16.043 32.396 2.748.95 5.569 1.399 8.36 1.399 10.824 0 21.179-6.759 24.826-17.292l17.903-51.69.141 47.473-13.633 184.339-12.439 2.422c-12.797 2.493-21.066 11.27-21.066 22.362v22.503h84.298l23.503-162.991 23.504 162.991h84.298v-22.5c0-11.092-8.269-19.869-21.066-22.362l-12.439-2.422-4.27-57.725-14.959 1.106 5.115 69.151 23.686 4.613c1.491.291 8.934 2.024 8.934 7.638v7.5h-56.306l-28.997-201.073v-14.465h-15v14.462l-28.996 201.077h-56.306v-7.5c0-5.614 7.442-7.348 8.934-7.638l23.687-4.613 14.499-196.054.021-.287-.318-107.228-15 .045.041 13.734-31.942 92.225c-1.896 5.473-8.493 8.569-14.11 6.625-5.492-1.899-8.301-7.941-6.535-14.055l38.086-131.811c4.182-14.476 10.935-21.045 23.306-22.674l52.133-6.864 52.134 6.865c12.372 1.629 19.124 8.198 23.307 22.674l38.085 131.811c1.767 6.113-1.042 12.156-6.534 14.055-5.619 1.945-12.217-1.152-14.111-6.625l-31.942-92.226.041-13.734-15-.044-.317 107.228 8.301 112.23 14.959-1.106-8.258-111.655.14-47.473 17.903 51.69c3.647 10.533 14.001 17.292 24.827 17.292 2.791 0 5.613-.449 8.36-1.399 12.95-4.481 19.997-18.711 16.041-32.398z"/></g></svg>