<svg id="Capa_1" enable-background="new 0 0 512 512" height="512" viewBox="0 0 512 512" width="512" xmlns="http://www.w3.org/2000/svg"><g><path d="m210.75 75.25c-49.913 0-90.375 40.462-90.375 90.375s40.462 90.375 90.375 90.375h-30.125c-33.275 0-60.25 26.975-60.25 60.25s26.975 60.25 60.25 60.25h30.125c-49.913 0-90.375 40.462-90.375 90.375v30.125l15 15h30.25l15-15v-30.125c0-16.638 13.487-30.125 30.125-30.125h76.471l19.556-181.75-19.556-179.75z" fill="#ff1979"/><path d="m344.825 196.365-.196-.615h76.996c33.275 0 60.25-26.975 60.25-60.25s-26.975-60.25-60.25-60.25h-30.12c-16.638 0-30.125-13.487-30.125-30.125v-30.125l-15-15h-30.25l-15 15v30.125c0 10.564 1.819 20.702 5.15 30.125h-19.059v361.5h134.106c33.44 0 60.548-27.108 60.548-60.548v-29.827c0-78.611-60.224-143.146-137.05-150.01z" fill="#d4117c"/><g fill="#ff808e"><path d="m165.625 331.25h121.596l14-15-14-15h-121.596z"/><path d="m210.75 120.5c-24.882 0-45.125 20.243-45.125 45.125s20.243 45.125 45.125 45.125h76.471l12-15-12-15h-76.471c-8.34 0-15.125-6.785-15.125-15.125s6.785-15.125 15.125-15.125h76.471l12-15.223-12-14.777z"/><path d="m210.75 421.75c-24.882 0-45.125 20.243-45.125 45.125v45.125h30v-45.125c0-8.34 6.785-15.125 15.125-15.125h76.471l10-15-10-15z"/><path d="m180.625 361.5c-24.951 0-45.25-20.299-45.25-45.25s20.299-45.25 45.25-45.25h106.596l13.905-16-13.905-14h-76.471c-41.562 0-75.375-33.813-75.375-75.375s33.813-75.375 75.375-75.375h76.471l13.905-15-13.905-15h-76.471c-58.104 0-105.375 47.271-105.375 105.375 0 33.984 16.176 64.257 41.228 83.539-24.438 12.445-41.228 37.833-41.228 67.086s16.789 54.641 41.228 67.086c-25.052 19.282-41.228 49.554-41.228 83.539v45.125h30v-45.125c0-41.562 33.813-75.375 75.375-75.375h76.471l13.905-14.812-13.905-15.188z"/></g><path d="m406.625 346.375v45.125h30v-45.125c0-58.104-47.271-105.375-105.375-105.375h-44.029v30h44.029c41.562 0 75.375 33.813 75.375 75.375z" fill="#ff5c88"/><path d="m426.005 210.613c39.461-2.277 70.87-35.091 70.87-75.113 0-41.493-33.757-75.25-75.25-75.25h-30.12c-8.34 0-15.125-6.785-15.125-15.125v-45.125h-30v45.125c0 24.882 20.243 45.125 45.125 45.125h30.12c24.951 0 45.25 20.299 45.25 45.25s-20.299 45.25-45.25 45.25h-134.404v30h44.029c74.784 0 135.625 60.841 135.625 135.625v29.827c0 25.115-20.433 45.548-45.548 45.548s-45.549-20.433-45.549-45.548v-29.827c0-24.882-20.243-45.125-45.125-45.125h-43.432v30h43.432c8.34 0 15.125 6.785 15.125 15.125s-6.785 15.125-15.125 15.125h-43.432v30h43.432c5.687 0 11.126-1.068 16.142-2.997 2.03 12.339 7.052 23.679 14.306 33.247h-73.881v30h134.106c41.657 0 75.548-33.891 75.548-75.548v-29.827c.001-56.113-28.055-105.79-70.869-135.762z" fill="#ff5c88"/><path d="m296.298 90.25c5.396 11.34 12.753 21.574 21.64 30.25h-30.717v30h149.404v-30h-45.12c-41.562 0-75.375-33.813-75.375-75.375v-45.125h-30v45.125c0 5.135.377 10.184 1.091 15.125v30z" fill="#ff5c88"/><circle cx="120.519" cy="105.394" fill="#f5f6fa" r="105.394"/><path d="m110.313 156.655-50.289-50.288 21.213-21.213 29.076 29.075 49.489-49.489 21.213 21.213z" fill="#08c0e0"/></g></svg>