<svg id="Capa_1" enable-background="new 0 0 512 512" height="512" viewBox="0 0 512 512" width="512" xmlns="http://www.w3.org/2000/svg"><g><circle cx="256" cy="256" fill="#00eb9c" r="256"/><path d="m511.303 274.92-139.339-139.339-42.681 9.486-15.301-15.301-1.824 2.484-22.663-22.663-149.459 292.826 109.506 109.505c2.146.053 4.299.082 6.458.082 135.021 0 245.618-104.531 255.303-237.08z" fill="#00cf8a"/><g><g><path d="m256 402.413h-115.964v-266.832h115.964l68.428 133.416z" fill="#766e6e"/><path d="m256 135.581h115.964v266.832h-115.964z" fill="#5c5454"/></g><g><path d="m256 379.511h-93.061v-221.028h93.061l68.428 110.514z" fill="#fff"/><path d="m321.139 352.444-10.832 27.067h-54.307v-221.028h93.061v182.273z" fill="#efeae7"/></g><g><path d="m256 109.587h-33.494v20.179h-24.488v39.759h57.982l25.213-29.969z" fill="#b378e5"/><path d="m289.494 129.766v-20.179h-33.494v59.938h57.982v-39.759z" fill="#8f54bc"/></g><path d="m310.307 340.756h38.754l-38.754 38.755z" fill="#dfd1cc"/><g><g><path d="m190.861 209.981h54.507v15.948h-54.507z" fill="#5c5454"/></g></g><g><g><path d="m256 268.798h-65.139v-15.948h65.139l10.869 7.974z" fill="#5c5454"/></g><g><path d="m256 252.85h65.139v15.948h-65.139z" fill="#463f3f"/></g></g><g><g><path d="m256 301.035h-65.139v-15.948h65.139l10.869 7.974z" fill="#5c5454"/></g><g><path d="m256 285.087h65.139v15.948h-65.139z" fill="#463f3f"/></g></g><g><g><path d="m256 333.272h-65.139v-15.947h65.139l10.869 7.974z" fill="#5c5454"/></g><g><path d="m256 317.325h65.139v15.948h-65.139z" fill="#463f3f"/></g></g><path d="m315.76 190.43c-5.872-5.872-15.392-5.872-21.263 0l-.98.98-.981-.981c-5.872-5.872-15.392-5.872-21.263 0-5.872 5.872-5.872 15.392 0 21.263l22.23 22.23.013.016 22.244-22.244c5.872-5.873 5.872-15.393 0-21.264z" fill="#ff3980"/></g></g></svg>