<svg id="Capa_1" enable-background="new 0 0 512.028 512.028" viewBox="0 0 512.028 512.028" xmlns="http://www.w3.org/2000/svg"><g><g><g><g><path d="m247.115 27.325-238.177 407.442c-4.017 6.872.939 15.509 8.899 15.509h476.354c7.959 0 12.915-8.638 8.899-15.509l-238.177-407.442c-3.98-6.807-13.818-6.807-17.798 0z" fill="#fcc16d"/><path d="m503.094 434.765-238.18-407.44c-3.98-6.81-13.82-6.81-17.8 0l-11.11 19.01 64.335 110.057c-12.584 7.151-23.61 19.496-30.166 35.423-13.29 32.288-3.174 67.061 22.595 77.667 17.225 7.09 37.078 1.578 52.321-12.497 4.699-4.339 12.244-3.094 15.472 2.428l102.504 175.353c4.02 6.87-.94 15.51-8.9 15.51h40.03c7.959-.001 12.909-8.641 8.899-15.511z" fill="#fca62f"/><path d="m345.344 164.908h-178.66l80.43-137.58c3.98-6.81 13.82-6.81 17.8 0z" fill="#fb3a82"/><path d="m197.78 139.466c17.362 0 31.437-14.075 31.437-31.437 0-7.387-5.691-18.656-12.231-29.166l-33.437 57.195c4.274 2.175 9.107 3.408 14.231 3.408z" fill="#fb1466"/><path d="m264.914 27.328c-3.98-6.81-13.82-6.81-17.8 0l-11.11 19.007 69.313 118.573h40.025z" fill="#fb1466"/><path d="m494.194 450.277h-476.36c-7.96 0-12.91-8.64-8.9-15.51l74.35-127.18h345.46l74.35 127.18c4.01 6.87-.94 15.51-8.9 15.51z" fill="#26d192"/><g fill="#1eb07c"><path d="m205.654 323.387c-3.12 12.99-12.05 22.91-22.94 27.16-11.17 4.36-19.04 14.19-20.72 25.62-.68 4.71-4.14 8.54-8.77 9.6l-.88.2c-4.64 1.06-9.41-.9-12.07-4.84-6.47-9.57-17.83-15.01-29.79-14.09-11.65.9-24-4.17-32.46-14.51-5.12-6.27-8.05-13.55-8.84-20.82l14.1-24.12h123.03c.8 5.06.63 10.42-.66 15.8z"/><path d="m503.094 434.765-74.35-127.18-59.94.002-50.81 50.81c-2.06 2.06-1.93 5.41.26 7.33 27.123 23.717 66.576 25.78 95.853 6.206 4.773-3.191 11.252-1.673 14.15 3.284l34.807 59.548c4.02 6.87-.94 15.51-8.9 15.51h40.03c7.96 0 12.91-8.64 8.9-15.51z"/></g></g><g><g><g><path d="m317.99 327.671c-2.053 2.053-1.925 5.412.261 7.324 31.061 27.162 78.302 25.94 107.908-3.666 29.605-29.605 30.827-76.846 3.666-107.908-1.911-2.186-5.27-2.314-7.324-.261z" fill="#23f1a8"/><path d="m426.157 331.333c-19.79 19.79-47.47 26.89-72.93 21.31 14.26-3.12 27.82-10.22 38.91-21.31 24.95-24.95 29.74-62.43 14.38-92.19l15.98-15.98c2.06-2.06 5.42-1.93 7.33.26 27.16 31.06 25.94 78.3-3.67 107.91z" fill="#26d192"/></g><g><path d="m334.025 311.636c20.004 20.004 52.437 20.004 72.441 0s20.004-52.437 0-72.441z" fill="#ffd395"/><path d="m406.467 311.633c-13.15 13.15-31.66 17.66-48.48 13.52 8.78-2.15 17.1-6.66 23.96-13.52 15.7-15.7 19.07-39.05 10.13-58.05l14.39-14.39c20 20.01 20 52.44 0 72.44z" fill="#fcc16d"/></g></g></g><g><g><path d="m229.217 80.149c0 17.362-14.075 31.437-31.437 31.437s-31.437-14.075-31.437-31.437c0-13.07 17.815-38.293 26.623-49.965 2.412-3.197 7.215-3.197 9.627 0 8.808 11.672 26.624 36.895 26.624 49.965z" fill="#31a7fb"/></g><g><g><path d="m229.213 80.146c0 17.37-14.07 31.44-31.43 31.44-5.31 0-10.31-1.32-14.69-3.64 9.96-5.27 16.75-15.74 16.75-27.8 0-9.06-8.56-23.96-16.75-36.14 3.62-5.39 7.17-10.24 9.87-13.82 2.42-3.2 7.22-3.2 9.63 0 8.81 11.67 26.62 36.89 26.62 49.96z" fill="#1c96f9"/></g></g></g><g><g><path d="m385.69 53.27c-6.047-2.966-12.819-2.266-17.972 1.111-1.283-6.025-5.6-11.29-11.983-13.44-9.723-3.275-20.504 2.517-23.252 12.402-1.731 6.228.542 11.388 3.421 15.098 3.937 5.073 5.024 11.79 2.597 17.734-8.219 20.131-24.634 60.196-24.634 60.196l27.343 11.254s16.544-40.012 24.878-60.096c2.461-5.931 7.962-9.936 14.328-10.768 4.656-.608 9.903-2.673 13.058-8.315 5.008-8.955 1.428-20.657-7.784-25.176z" fill="#d9e7eb"/></g><ellipse cx="316.83" cy="178.017" fill="#c86f5c" rx="63.221" ry="50.455" transform="matrix(.381 -.925 .925 .381 31.621 403.244)"/><path d="m363.484 197.219c-13.29 32.29-44.95 49.87-70.72 39.26-.26-.11-.52-.22-.78-.34 15.55-6.09 29.68-19.97 37.48-38.92 13.16-31.96 3.38-66.35-21.81-77.32 10.94-4.3 22.59-4.72 33.24-.34 25.77 10.6 35.88 45.37 22.59 77.66z" fill="#ba5d4f"/></g><g><g><path d="m183.902 250.228c3.256-16.562-5.969-32.599-21.126-36.242-4.606-1.107-9.242-.937-13.598.279.011-2.584-.27-5.223-.875-7.871-3.907-17.11-19.751-28.085-35.39-24.514s-25.149 20.335-21.243 37.445c.605 2.648 1.497 5.148 2.628 7.471-4.452.795-8.703 2.654-12.372 5.65-12.074 9.861-13.424 28.312-3.302 41.819-12.561 12.42-13.04 33.648-.596 48.886 8.452 10.349 20.803 15.41 32.457 14.514 11.956-.919 23.319 4.522 29.784 14.091 2.664 3.943 7.435 5.895 12.074 4.836l.876-.2c4.639-1.059 8.09-4.888 8.779-9.597 1.671-11.426 9.546-21.261 20.716-25.621 10.888-4.251 19.819-14.171 22.941-27.163 4.599-19.129-5.046-38.045-21.753-43.783z" fill="#23f1a8"/><path d="m183.905 250.226c3.254-16.559-5.97-32.595-21.132-36.24-4.604-1.108-9.239-.936-13.594.281.008-2.583-.273-5.228-.874-7.874-3.91-17.105-19.751-28.085-35.389-24.511-4.963 1.131-9.302 3.59-12.798 6.976 9.216 3.66 16.715 12.15 19.243 23.208.222.966.401 1.932.537 2.895.354 2.502 2.761 4.297 5.278 4.068 2.846-.258 5.758-.068 8.661.63 14.108 3.393 23.076 17.525 21.622 32.821-.189 1.985.911 3.873 2.715 4.723 14.705 6.93 22.837 24.617 18.543 42.482-3.129 12.993-12.056 22.911-22.942 27.164-8.865 3.465-15.654 10.371-18.908 18.791 2.04 1.783 3.861 3.831 5.402 6.112 2.666 3.944 7.436 5.899 12.077 4.839l.875-.2c4.64-1.06 8.09-4.889 8.778-9.599 1.669-11.423 9.545-21.258 20.711-25.616 10.894-4.253 19.821-14.171 22.942-27.164 4.598-19.127-5.039-38.042-21.747-43.786z" fill="#26d192"/></g></g><g><g><path d="m182.744 406.861c-9.699 35.641 9.36 71.859 42.569 80.896s67.992-12.529 77.691-48.17-6.315-83.049-39.523-92.086c-33.209-9.037-71.038 23.72-80.737 59.36z" fill="#ffd395"/><path d="m303.004 439.585c-9.7 35.64-44.48 57.21-77.69 48.17-.55-.15-1.09-.31-1.63-.47 20.98-6.28 38.72-23.83 45.22-47.7 9.2-33.81-4.74-78.22-34.55-90.39 9.57-3.43 19.54-4.3 29.13-1.69 33.21 9.029 49.22 56.44 39.52 92.08z" fill="#fcc16d"/><ellipse cx="240.715" cy="431.157" fill="#fca62f" rx="31.841" ry="29.56" transform="matrix(.263 -.965 .965 .263 -238.52 550.212)"/><path d="m269.234 438.915c-4.61 16.97-21.13 27.25-36.88 22.97-1.96-.53-3.82-1.27-5.56-2.19 7.78-3.93 14.06-11.31 16.64-20.78 4.04-14.85-2.37-29.9-14.6-36.3 6.17-3.13 13.28-4.08 20.24-2.18 15.75 4.29 24.78 21.52 20.16 38.48z" fill="#f98824"/></g></g></g></g><g><path d="m509.564 430.982-65-111.194c18.744-31.474 15.97-72.641-9.095-101.305-2.277-2.604-5.564-4.162-9.019-4.278-3.437-.089-6.816 1.217-9.254 3.651l-16.034 16.034s-.001.001-.002.001l-4.298 4.298-24.808-42.437c9.061-25.834 4.716-52.661-9.724-69.559 3.86-9.324 7.773-18.772 10.685-25.788 1.403-3.384 4.533-5.703 8.372-6.205 8.379-1.095 14.822-5.276 18.632-12.092 3.401-6.084 4.143-13.449 2.033-20.209-2.096-6.719-6.856-12.317-13.06-15.36-5.493-2.694-11.545-3.328-17.239-1.964-3.084-4.979-7.829-8.788-13.626-10.74-6.548-2.205-13.871-1.579-20.09 1.717-6.256 3.316-10.915 9.069-12.78 15.784-2.092 7.524-.459 15.03 4.722 21.705 2.373 3.058 2.963 6.908 1.578 10.301-2.825 6.918-6.617 16.189-10.379 25.38l-49.793-85.18c-3.229-5.523-8.976-8.82-15.373-8.82-6.398 0-12.145 3.297-15.374 8.82l-15.462 26.45c-4.065-6.834-9.464-14.87-16.598-24.323-2.581-3.42-6.517-5.381-10.801-5.38-4.284 0-8.221 1.961-10.8 5.38-23.255 30.816-28.137 46.637-28.137 54.482 0 17.32 11.37 32.028 27.036 37.07l-40.126 68.641c-1.942-2.103-4.104-4.001-6.475-5.643-8.438-5.846-18.395-7.852-28.035-5.648-9.642 2.201-17.741 8.329-22.805 17.256-4.938 8.705-6.388 19.064-4.081 29.169.079.345.162.688.249 1.031-2.664 1.217-5.164 2.766-7.425 4.613-13.671 11.165-16.65 30.858-7.878 46.964-9.782 13.228-10.549 31.433-2.168 46.745l-20.73 35.464c-2.09 3.576-.886 8.17 2.69 10.26 1.19.696 2.493 1.026 3.778 1.026 2.578 0 5.087-1.33 6.482-3.716l17.742-30.35c9.383 8.59 21.644 13.058 33.963 12.113 9.208-.693 18.012 3.438 22.995 10.813 3.625 5.364 9.5 8.429 15.708 8.429 1.408 0 2.833-.157 4.252-.481l.872-.199c.007-.002.015-.004.022-.006.002 0 .004 0 .005-.001.01-.002.019-.006.029-.008 7.649-1.771 13.329-7.968 14.475-15.809 1.288-8.808 7.428-16.363 16.022-19.72 7.009-2.736 13.122-7.278 17.907-13.072h116.616l-7.279 7.279c-2.436 2.437-3.767 5.81-3.651 9.255.115 3.454 1.675 6.741 4.279 9.018 13.654 11.939 30.44 19.177 48.544 20.93.246.024.489.036.731.036 3.816-.001 7.081-2.901 7.456-6.778.399-4.123-2.619-7.789-6.742-8.188-14.081-1.363-27.193-6.737-38.091-15.585l9.163-9.163c10.526 8.135 23.194 12.219 35.871 12.219 15.037 0 30.075-5.725 41.523-17.172 21.099-21.099 22.739-54.382 4.953-77.395l9.162-9.162c22.892 28.217 20.888 69.727-5.029 95.643-8.01 8.011-17.502 13.855-28.214 17.373-3.936 1.293-6.078 5.531-4.786 9.466 1.294 3.936 5.531 6.077 9.466 4.786 12.967-4.259 24.453-11.33 34.142-21.018 1.191-1.191 2.327-2.417 3.434-3.661l61.719 105.581c.714 1.222.313 2.288.011 2.814s-1.021 1.41-2.435 1.41h-184.304c.118-.407.247-.809.358-1.22 5.225-19.201 3.788-41.349-3.94-60.763-8.469-21.271-22.977-35.666-40.851-40.53-17.876-4.861-37.676.193-55.756 14.241-16.501 12.82-28.962 31.186-34.188 50.387-3.51 12.9-3.577 25.884-.811 37.885h-156.858c-1.415 0-2.133-.884-2.435-1.41-.302-.527-.703-1.594.011-2.814l27.372-46.824c2.09-3.576.886-8.17-2.69-10.26-3.575-2.092-8.17-.887-10.26 2.689l-27.371 46.821c-3.259 5.575-3.286 12.248-.072 17.85s8.988 8.945 15.446 8.945h162.016c8.388 17.863 23.715 31.837 43.491 37.219 5.752 1.564 11.542 2.312 17.271 2.312 25.882 0 50.376-15.294 63.212-39.531h190.364c6.458 0 12.231-3.344 15.445-8.945 3.213-5.602 3.187-12.275-.073-17.85zm-103.558-130.413-18.418-18.418 26.017-1.157c-.897 7.083-3.496 13.767-7.599 19.575zm-29.025-7.811 18.417 18.418c-5.807 4.103-12.491 6.702-19.575 7.599zm-35.151-228.916c-2.957-3.809-2.626-6.67-2.119-8.491.769-2.765 2.72-5.151 5.354-6.548 2.635-1.398 5.576-1.665 8.276-.755 3.616 1.219 6.249 4.17 7.042 7.896.516 2.421 2.192 4.432 4.481 5.373 2.291.942 4.897.693 6.966-.663 3.185-2.087 7.13-2.332 10.558-.649 2.56 1.256 4.459 3.516 5.348 6.361.888 2.847.594 5.916-.808 8.422-.922 1.648-2.7 3.913-7.482 4.538-9.08 1.187-16.853 7.061-20.284 15.33-2.445 5.893-5.597 13.501-8.831 21.312-2.089-1.266-4.276-2.399-6.583-3.348-2.298-.946-4.647-1.687-7.027-2.267 3.2-7.82 6.315-15.438 8.725-21.342 3.384-8.291 1.999-17.935-3.616-25.169zm-88.24-32.731c.707-1.21 1.822-1.391 2.424-1.391s1.716.181 2.424 1.391l47.566 81.369c-2.957 1.1-5.894 2.453-8.79 4.062-14.838 8.236-26.904 22.235-33.976 39.418-.198.481-.382.966-.571 1.449h-82.907l22.562-38.596c19.336-2.259 34.394-18.731 34.394-38.663 0-3.237-.836-7.836-3.445-14.281zm-79.747 49.039c0-1.999 1.169-13.388 23.937-43.885 22.768 30.496 23.937 41.886 23.937 43.885 0 13.198-10.738 23.937-23.937 23.937s-23.937-10.739-23.937-23.937zm-36.148 243.916c-.056-.182-.081-.311-.096-.377.029.127.061.253.096.377zm-10.542-46.2c-.081-.244-.111-.412-.127-.482.037.163.08.324.127.482zm52.834 36.322c-10.985 4.289-19.442 12.991-23.382 23.62l-4.353-18.751c.092-5.11 2.34-19.907 24.027-30.022 3.754-1.751 5.378-6.213 3.627-9.967-1.75-3.754-6.214-5.379-9.967-3.627-11.132 5.192-18.598 11.738-23.55 18.358l-4.651-20.036c.074-2.88 1.429-11.96 14.905-18.245 3.754-1.75 5.378-6.213 3.627-9.967s-6.213-5.378-9.967-3.627c-5.959 2.779-10.424 6.037-13.766 9.432l-4.126-17.775c-.937-4.034-4.966-6.551-9.001-5.609-4.035.937-6.546 4.967-5.61 9.002l4.133 17.807c-4.341-1.577-9.577-2.584-15.887-2.584-.249 0-.504.001-.756.005-4.142.052-7.457 3.451-7.405 7.593.052 4.143 3.434 7.484 7.594 7.405 16.965-.179 21.291 9.697 21.689 10.716.041.135.106.255.154.386.059.161.114.322.183.477l4.347 18.729c-7.2-3.852-16.607-6.594-28.693-6.594-.333 0-.675.002-1.012.007-4.142.052-7.457 3.451-7.405 7.593.052 4.11 3.399 7.406 7.498 7.406.032 0 .064 0 .096-.001 28.104-.344 34.864 16.777 35.374 18.194.044.153.115.292.168.44.066.185.129.371.209.548.091.203.199.393.306.584l3.873 16.684c-7.507-7.8-18.057-12.303-29.181-12.303-1.053 0-2.113.04-3.173.122-9.698.728-19.439-3.659-26.073-11.78-9.818-12.021-9.792-29.067.06-38.809 2.665-2.635 2.976-6.832.729-9.83-7.779-10.382-6.881-24.224 2.045-31.514 2.577-2.104 5.586-3.476 8.945-4.076 2.314-.413 4.301-1.888 5.367-3.983 1.066-2.096 1.087-4.569.058-6.683-.902-1.853-1.595-3.823-2.059-5.858-1.472-6.444-.583-12.989 2.503-18.429 2.96-5.218 7.612-8.781 13.098-10.034 5.485-1.25 11.222-.061 16.154 3.355 5.141 3.562 8.783 9.072 10.254 15.518.465 2.035.696 4.11.687 6.169-.01 2.351 1.083 4.571 2.953 5.997 1.869 1.424 4.3 1.891 6.564 1.259 3.285-.918 6.591-.988 9.828-.211 11.205 2.693 18.021 14.774 15.519 27.504-.723 3.677 1.379 7.322 4.923 8.54 13.103 4.499 20.525 19.845 16.898 34.936-2.452 10.196-9.322 18.394-18.378 21.929zm31.689-14.1c.481-1.414.918-2.851 1.272-4.324 4.978-20.713-3.902-41.198-20.939-50.179.913-18.316-10.318-34.766-27.48-38.891-2.84-.684-5.762-.991-8.692-.934-.07-.346-.144-.691-.223-1.036-.315-1.38-.701-2.731-1.144-4.055l16.521-28.261h87.323c-1.563 8.113-1.902 16.304-.948 24.258.492 4.113 4.219 7.06 8.339 6.554 4.112-.492 7.047-4.226 6.554-8.339-1.301-10.86.376-22.345 4.85-33.213 5.782-14.051 15.508-25.419 27.385-32.013 11.322-6.285 23.235-7.409 33.545-3.165 21.902 9.016 30.208 39.465 18.515 67.877-11.695 28.412-39.031 44.188-60.932 35.177-4.665-1.92-8.815-4.87-12.334-8.769-2.776-3.076-7.519-3.317-10.593-.542-3.075 2.775-3.317 7.519-.542 10.593 5.032 5.574 11.007 9.81 17.76 12.589 5.974 2.459 12.212 3.626 18.493 3.626 21.102 0 42.633-13.192 55.878-34.864l21.615 36.976-50.934 50.935zm150.219-5.716-1.057 23.751c-5.664-1.236-11.007-3.58-15.757-6.937zm51.057-28.364-23.751 1.057 16.813-16.814c3.359 4.751 5.702 10.093 6.938 15.757zm-185.67 214.514c-29.166-7.938-45.898-40.098-37.301-71.69 8.444-31.02 42.232-62.072 71.53-54.093 29.299 7.973 42.697 51.859 34.257 82.88-8.599 31.592-39.323 50.831-68.486 42.903z"/><path d="m251.046 393.195c-19.718-5.361-40.394 7.3-46.09 28.23-2.732 10.039-1.654 20.497 3.035 29.448 4.787 9.138 12.74 15.617 22.394 18.243 3.066.835 6.179 1.247 9.283 1.247 6.67 0 13.292-1.906 19.268-5.626 8.578-5.341 14.807-13.811 17.538-23.85 5.697-20.93-5.71-42.324-25.428-47.692zm10.954 43.755c-1.734 6.374-5.638 11.721-10.992 15.054-5.175 3.223-11.099 4.161-16.685 2.64-5.583-1.519-10.216-5.329-13.045-10.73-2.927-5.587-3.583-12.174-1.849-18.548 2.997-11.015 12.424-18.402 22.396-18.402 1.753 0 3.526.229 5.281.706 11.738 3.194 18.42 16.329 14.894 29.28z"/></g></g><g/><g/><g/><g/><g/><g/><g/><g/><g/><g/><g/><g/><g/><g/><g/></svg>