<svg id="Слой_1" enable-background="new 0 0 5000 5000" height="512" viewBox="0 0 5000 5000" width="512" xmlns="http://www.w3.org/2000/svg"><g><g><path d="m2616.608 1437.074c88.96 78.999 218.422 126.179 356.431 126.446 23.403-.061 42.96-9.103 59.78-27.658 85.257-94.029 58.236-388.506 57.957-391.471-.026-.253-.044-.514-.044-.767l-1.168-139.117c-1.395-165.336-137.033-299.84-302.368-299.84-166.74 0-302.386 135.646-302.386 302.377v136.501c0 49.072 14.849 131.723 56.71 203.151 19.06 32.519 43.736 62.099 72.781 88.283.899.569 1.664 1.252 2.307 2.095z" fill="#ffe0c9"/></g><g><path d="m3099.799 1162.974c-.026-.253-.043-.514-.043-.767l-1.168-139.117c-1.004-118.918-71.627-221.578-172.625-270.021 18.537 38.669 29.384 81.665 29.768 127.163l1.168 139.117c0 .253.017.514.043.767.279 2.965 27.3 297.442-57.957 391.471-16.819 18.555-36.377 27.597-59.78 27.658-107.23-.207-209.204-28.837-291.126-78.607.868 1.532 1.573 3.118 2.464 4.641 19.061 32.519 43.736 62.099 72.781 88.283.898.568 1.663 1.251 2.306 2.094 88.96 78.999 218.422 126.179 356.431 126.446 23.403-.061 42.96-9.103 59.78-27.658 85.258-94.029 58.237-388.506 57.958-391.47z" fill="#ffba9c"/></g><g><path d="m3249.834 4160.165c-6.156-11.239-12.39-22.374-18.572-33.404-19.008-33.909-36.953-65.944-50.921-97.944-34.624-79.337-46.57-157.628-61.698-256.758-14.361-94.09-30.631-200.745-70.923-340.916-40.536-141.026-99.383-234.68-151.297-317.304-55.891-88.963-104.161-165.789-104.161-270.054 18.232-646.807-28.05-755.249-100.734-846.906-3.069-3.863-2.415-9.478 1.447-12.538 3.854-3.087 9.469-2.424 12.538 1.447 75.134 94.727 123.003 205.645 104.606 858.25 0 98.868 44.756 170.114 101.432 260.306 52.542 83.627 112.095 178.415 153.329 321.865 21.171 73.661 35.674 137.924 46.828 196.12 7.079-90.142 19.253-230.289 31.122-366.958 11.187-128.767 21.755-250.401 27.85-327.515 24.876-314.54 20.595-388.994-9.591-518.101-35.976-153.87-97.185-268.398-220.773-466.919-86.896-139.587-87.716-141.889-87.716-246.364 0-39.137 16.213-99.37 22.996-122.86-98.539-15.714-188.479-55.174-257.733-112.182-1.385 23.604-5.57 66.302-18.262 112.274-16.916 61.236-63.651 112.496-117.772 171.849-110.046 120.693-247.009 270.891-231.236 600.194 1.317 27.492 3.431 53.614 6.241 78.529 19.666 174.407 73.369 289.668 125.508 401.599 54.749 117.519 106.454 228.507 106.454 392.805 0 94.012-45.768 163.722-98.755 244.437-72.71 110.761-163.199 248.596-163.199 506.906 0 87.873 12.809 180.219 36.063 260.019 11.204 38.443 47.154 65.29 87.437 65.29h713.881c-6.574-34.607-29.303-148.031-54.048-198.486-25.312-51.601-72.492-127.59-127.127-215.585-101.667-163.74-228.193-367.51-306.423-558.882-1.866-4.56.323-9.774 4.891-11.64 4.525-1.884 9.766.323 11.64 4.891 77.663 189.976 203.744 393.04 305.054 556.213 54.888 88.396 102.295 164.743 127.991 217.137 26.901 54.838 50.437 175.364 56.206 206.351h87.715c32.453 0 61.698-16.654 78.23-44.556 16.627-28.058 17.185-61.932 1.482-90.61z" fill="#ffe0c9"/></g><g><g><path d="m2305.578 4173.688h-56.585c3.367 15.657 7.084 31.004 11.153 45.988 15.147-15.327 30.235-30.711 45.432-45.988z" fill="#ffba9c"/></g><g><path d="m3036.644 4173.688h-460.832c-99.631 0-195.175 39.802-265.193 110.681l-1.107 1.121c12.43 6.252 26.323 9.842 40.83 9.842h713.881c-4.083-21.492-14.419-73.33-27.579-121.644z" fill="#ffba9c"/></g><g><path d="m2759.783 1570.786c-5.111 7.692-8.259 17.087-10.584 26.134-8.716 33.922-16.382 82.581-4.394 116.657 10.728 30.494 35.598 59.006 52.653 86.403 123.588 198.521 184.797 313.049 220.773 466.919 30.186 129.107 34.468 203.561 9.591 518.101-6.095 77.114-16.663 198.748-27.85 327.515-3.61 41.563-7.246 83.431-10.76 124.131 27.797 53.564 54.217 114.942 75.666 189.563 21.171 73.661 35.674 137.924 46.828 196.12 7.079-90.142 19.253-230.289 31.122-366.958 11.187-128.767 21.755-250.401 27.85-327.515 24.876-314.54 20.595-388.994-9.591-518.101-35.976-153.87-97.185-268.398-220.773-466.919-86.896-139.587-87.716-141.889-87.716-246.364 0-39.137 16.213-99.37 22.996-122.86-1.186 4.106-38.194-7.458-41.759-8.712-19.444-6.842-41.161-18.025-61.543-6.244-5.17 2.989-9.24 7.211-12.509 12.13z" fill="#ffba9c"/></g><g><path d="m3249.834 4160.165c-6.156-11.239-12.39-22.374-18.572-33.404-19.008-33.909-36.953-65.944-50.921-97.944-34.624-79.337-46.57-157.628-61.698-256.758-16.856-110.438-14.21-217.63-44.419-326.314-31.401-112.97-80.958-220.921-146.594-318.103-40.271-59.625-87.439-117.259-105.578-186.885-16.672-63.996-7.013-131.427-1.237-197.307 11.714-133.199 6.611-267.846-14.456-399.87-10.742-67.32-25.643-133.977-44.608-199.458-19.735-68.137-43.973-104.765-88.097-159.207-58.006 101.769-23.589 227.701-20.436 338.425 3.584 125.859-.267 251.772-3.813 377.585 0 104.265 48.27 181.091 104.161 270.054 51.915 82.624 110.761 176.278 151.297 317.304 40.292 140.172 56.562 246.826 70.923 340.916 15.128 99.13 27.073 177.421 61.698 256.758 13.969 32 31.913 64.035 50.921 97.944 6.182 11.03 12.416 22.165 18.572 33.404 15.704 28.678 15.146 62.552-1.482 90.611-12.82 21.637-33.324 36.391-57.001 41.979 16.802 56.64 29.827 123.479 33.914 145.434h87.715c32.453 0 61.698-16.654 78.23-44.556 16.626-28.056 17.184-61.93 1.481-90.608z" fill="#ffba9c"/></g></g><g><path d="m2612.949 1418.126c-41.861-71.429-56.71-154.079-56.71-203.151v-136.501c0-166.731 135.646-302.377 302.385-302.377 65.073 0 125.371 21.064 174.869 56.414-54.952-77.184-144.963-127.842-246.298-127.842-166.74 0-302.386 135.646-302.386 302.377v136.501c0 49.072 14.849 131.723 56.71 203.151 19.06 32.519 43.736 62.099 72.781 88.283.898.568 1.663 1.251 2.306 2.094 6.885 6.114 14.094 11.968 21.449 17.695-9.097-11.795-17.649-23.924-25.106-36.644z" fill="#fff"/></g><g><g><path d="m2873.203 1582.102c.86-3.094 1.701-6.097 2.393-8.49-22.819-3.639-45.111-8.683-66.856-14.792 20.718 8.961 42.258 16.745 64.463 23.282z" fill="#fff"/></g><g><path d="m3095.819 4115.015c-34.187-73.209-79.856-142.758-122.883-211.35-149.45-238.252-287.03-488.867-402.675-745.321-17.411-38.611-32.644-78.331-42-119.639-14.781-65.256-46.213-126.915-74.491-187.638-52.139-111.931-105.841-227.193-125.508-401.599-2.81-24.916-4.924-51.037-6.241-78.529-15.773-329.302 121.189-479.501 231.236-600.194 54.121-59.352 100.856-110.613 117.772-171.849 9.393-34.023 14.111-66.201 16.499-90.224-24.881-14.04-48.351-29.696-69.665-47.241-1.385 23.604-5.57 66.302-18.262 112.274-16.916 61.236-63.651 112.496-117.772 171.849-110.046 120.693-247.009 270.891-231.236 600.194 1.317 27.492 3.431 53.614 6.241 78.529 19.666 174.407 73.369 289.668 125.508 401.599 54.749 117.519 106.454 228.507 106.454 392.805 0 94.012-45.768 163.722-98.755 244.437-72.71 110.761-163.199 248.596-163.199 506.906 0 84.149 11.857 172.277 33.274 249.684.178-.181.356-.361.535-.541 32.09-32.473 47.875-77.617 43.057-123.016-3.573-33.667-5.437-67.616-5.437-100.936 0-258.309 90.489-396.144 163.199-506.906 22.701-34.58 45.735-69.212 64.049-106.383 6.47-13.134 11.355-38.959 21.938-48.094 26.077-22.506 52.237 12.39 62.306 31.992 14.787 28.786 25.179 59.594 39.926 88.395 22.679 44.292 45.877 88.319 69.696 132.007 46.946 86.107 96.305 170.917 148.787 253.773 44.812 70.745 92.013 140.27 129.222 215.292 37.211 75.022 64.385 156.544 66.037 240.272 28.283-.006 56.568-.012 84.851-.018-5.854-63.307-25.619-123.047-52.463-180.53z" fill="#fff"/></g></g><g><path d="m2065.918 3584.97c-3.758 0-7.568-.793-11.204-2.468-13.428-6.199-19.296-22.112-13.105-35.549 15.468-33.517 42.01-74.899 70.121-118.722 6.88-10.734 13.881-21.65 20.857-32.654 7.917-12.486 24.466-16.209 36.961-8.292s16.209 24.467 8.292 36.961c-7.028 11.091-14.082 22.095-21.022 32.916-27.073 42.21-52.647 82.075-66.563 112.235-4.518 9.801-14.205 15.573-24.337 15.573zm172.642-305.943c-2.799 0-5.641-.445-8.44-1.378-14.038-4.656-21.641-19.819-16.977-33.857 5.546-16.715 8.362-31.215 8.362-43.099.009-42.167-3.304-81.569-10.123-120.475-2.555-14.57 7.185-28.451 21.763-31.006 14.465-2.529 28.442 7.185 31.006 21.763 7.359 41.984 10.934 84.42 10.925 129.726 0 17.866-3.627 37.493-11.1 59.971-3.731 11.24-14.186 18.355-25.416 18.355zm-52.804-346.767c-10.446 0-20.368-6.147-24.684-16.384-13.157-31.18-27.387-61.332-42.454-93.262-10.524-22.295-21.188-44.913-31.686-68.316-6.051-13.498-.017-29.349 13.48-35.4 13.498-6.069 29.341-.026 35.4 13.48 10.35 23.08 20.874 45.384 31.259 67.383 15.302 32.436 29.768 63.084 43.352 95.293 5.755 13.628-.636 29.34-14.265 35.086-3.401 1.44-6.932 2.12-10.402 2.12zm-136.449-329.207c-11.684 0-22.426-7.717-25.766-19.522-16.296-57.748-27.501-116.429-34.267-179.374-1.587-14.709 9.059-27.911 23.769-29.489 14.526-1.674 27.902 9.051 29.489 23.769 6.444 59.928 17.099 115.714 32.575 170.55 4.011 14.239-4.272 29.035-18.511 33.055-2.432.68-4.873 1.011-7.289 1.011zm-39.245-353.158c-.445 0-.889-.009-1.334-.035-14.779-.715-26.167-13.28-25.443-28.059 3.121-63.843 12.381-124.956 27.527-181.632 3.828-14.3 18.511-22.775 32.793-18.964 14.291 3.819 22.783 18.502 18.964 32.793-14.169 53.022-22.844 110.352-25.783 170.419-.697 14.326-12.538 25.478-26.724 25.478zm93.323-340.977c-4.403 0-8.868-1.09-12.992-3.383-12.931-7.185-17.578-23.499-10.394-36.429 34.755-62.509 74.262-113.089 104.789-150.173 9.408-11.405 26.289-13.07 37.711-3.645 11.414 9.399 13.053 26.28 3.645 37.702-29.088 35.331-66.668 83.409-99.322 142.151-4.9 8.807-14.029 13.777-23.437 13.777zm214.791-284.563c-5.232 0-10.516-1.526-15.154-4.717-12.189-8.379-15.276-25.059-6.888-37.249 19.165-27.867 31.058-51.845 37.423-75.466 6.635-24.615 11.562-51.243 14.648-79.145 1.613-14.709 14.84-25.347 29.558-23.682 14.701 1.622 25.312 14.849 23.682 29.558-3.374 30.622-8.815 59.971-16.166 87.219-7.996 29.654-22.295 58.855-45.009 91.875-5.187 7.552-13.567 11.607-22.094 11.607z" fill="#540000"/></g><g><path d="m3170.122 4331.046h-819.781c-56.057 0-106.105-37.423-121.722-91.021-24.179-82.947-37.493-178.842-37.493-270.002 0-268.982 93.741-411.769 169.059-526.507 51.897-79.058 92.896-141.497 92.896-224.836 0-156.381-47.782-258.955-103.115-377.72-58.201-124.948-124.18-266.558-135.045-493.504-16.479-344.116 132.054-507.019 240.513-625.959 51.034-55.969 95.102-104.3 109.741-157.305 17.369-62.892 17.665-121.233 17.665-121.817.026-14.771 12.015-26.751 26.786-26.751h.026c14.779.017 26.76 11.989 26.76 26.777 0 2.659-.227 65.883-19.601 136.056-18.049 65.36-66.127 118.086-121.791 179.13-107.823 118.251-242.004 265.416-226.597 587.307 10.367 216.431 71.237 347.089 130.109 473.45 55.603 119.35 108.12 232.09 108.12 400.338 0 99.348-47.119 171.125-101.685 254.238-75.126 114.432-160.27 244.132-160.27 497.105 0 86.234 12.556 176.801 35.348 255.014 8.998 30.875 37.903 52.438 70.295 52.438h819.781c26.079 0 49.587-13.384 62.866-35.802 13.384-22.574 13.82-49.848 1.177-72.937-6.121-11.187-12.329-22.26-18.485-33.238-19.226-34.311-37.38-66.72-51.706-99.54-35.557-81.473-47.668-160.784-62.988-261.204-14.273-93.558-30.457-199.611-70.426-338.675-39.838-138.602-97.97-231.114-149.257-312.736-57.356-91.3-106.899-170.148-106.899-279.558 18.066-641.261-26.629-747.236-96.872-835.807-9.19-11.588-7.246-28.442 4.342-37.633 11.588-9.199 28.434-7.254 37.633 4.342 77.567 97.813 127.023 211.199 108.459 869.856.009 93.218 43.562 162.537 98.702 250.296 53.17 84.63 113.438 180.56 155.369 326.434 40.928 142.386 58.105 254.952 71.908 345.406 14.736 96.54 26.367 172.799 59.126 247.846 13.262 30.378 30.788 61.663 49.343 94.779 6.234 11.126 12.53 22.365 18.738 33.709 21.824 39.856 21.048 86.949-2.075 125.977-23.025 38.852-63.753 62.054-108.954 62.054z" fill="#540000"/></g><g><path d="m2217.913 3996.809c-14.797 0-26.786-11.989-26.786-26.786 0-268.982 93.741-411.769 169.059-526.507 51.897-79.058 92.896-141.497 92.896-224.836 0-156.381-47.782-258.955-103.115-377.72-58.201-124.948-124.18-266.558-135.045-493.504-16.479-344.116 132.054-507.019 240.513-625.959 51.034-55.969 95.102-104.3 109.741-157.305 17.465-63.241 17.665-121.216 17.665-121.791 0-14.797 11.989-26.786 26.786-26.786s26.786 11.989 26.786 26.786c0 2.659-.227 65.883-19.601 136.056-18.049 65.36-66.127 118.086-121.791 179.13-107.823 118.251-242.004 265.416-226.597 587.307 10.367 216.431 71.245 347.089 130.109 473.45 55.603 119.35 108.12 232.09 108.12 400.338 0 99.348-47.119 171.125-101.685 254.238-75.126 114.432-160.27 244.132-160.27 497.105 0 14.795-11.989 26.784-26.785 26.784z" fill="#540000"/></g><g><path d="m3115.469 3721.043c-.549 0-1.099-.018-1.648-.052-14.771-.898-26.01-13.594-25.112-28.355 4.142-68.124 20.508-256.574 36.333-438.808 11.178-128.732 21.746-250.332 27.841-327.375 24.676-312.108 20.499-385.681-9.181-512.634-35.409-151.411-96.034-264.753-218.55-461.539-87.01-139.788-90.41-145.246-90.41-255.807 0-51.095 25.6-134.399 26.69-137.913 4.368-14.134 19.339-22.042 33.508-17.674 14.125 4.377 22.042 19.374 17.674 33.508-6.758 21.859-24.301 86.408-24.301 122.079 0 95.25 0 95.25 82.319 227.495 125.741 201.974 188.102 318.874 225.229 477.661 31.198 133.423 35.679 209.612 10.419 529.044-6.104 77.253-16.671 198.948-27.867 327.785-15.799 181.902-32.139 369.995-36.237 437.421-.863 14.213-12.66 25.164-26.707 25.164z" fill="#540000"/></g><g><path d="m3074.933 4331.046c-12.739 0-24.03-9.12-26.341-22.095-.253-1.465-26.332-146.912-54.452-204.241-24.92-50.799-71.882-126.447-126.264-214.033-102.016-164.307-228.987-368.783-307.783-561.541-5.598-13.689.968-29.332 14.666-34.93 13.681-5.572 29.332.977 34.929 14.666 77.087 188.581 202.741 390.948 303.694 553.545 55.141 88.806 102.766 165.501 128.854 218.698 31.433 64.087 57.992 212.185 59.108 218.454 2.581 14.57-7.124 28.468-21.685 31.058-1.587.288-3.165.419-4.726.419z" fill="#540000"/></g><g><path d="m2971.54 1599.234c-196.524 0-377.284-91.919-460.824-234.48-45.436-77.515-61.619-165.091-61.619-221.209v-136.501c0-186.428 151.664-338.091 338.091-338.091 184.867 0 336.531 150.391 338.091 335.249l1.16 137.983c2.215 24.152 26.594 314.261-67.156 417.664-23.621 26.045-52.604 39.298-86.147 39.385-.532 0-1.064 0-1.596 0zm-184.344-876.709c-156.886 0-284.529 127.633-284.529 284.52v136.501c0 46.84 14.212 125.785 54.26 194.127 72.981 124.512 239.502 207.982 414.673 207.99h1.395c18.345-.044 33.151-6.967 46.587-21.79 66.354-73.155 61.052-297.511 53.415-377.781-.079-.767-.114-1.552-.122-2.319l-1.168-139.117c-1.308-155.57-128.941-282.131-284.511-282.131z" fill="#540000"/></g><g><path d="m2035.156 1513.41c-8.004 0-15.93-3.575-21.205-10.402-9.051-11.701-6.897-28.521 4.804-37.572l136.675-105.704-136.684-105.713c-11.701-9.051-13.855-25.87-4.804-37.572 9.051-11.71 25.888-13.846 37.572-4.804l164.089 126.901c6.566 5.075 10.402 12.896 10.402 21.188s-3.836 16.113-10.402 21.188l-164.08 126.892c-4.875 3.776-10.647 5.598-16.367 5.598z" fill="#540000"/></g><g><path d="m2199.219 1386.518h-540.85c-14.797 0-26.786-11.989-26.786-26.786s11.989-26.786 26.786-26.786h540.85c14.797 0 26.786 11.989 26.786 26.786-.001 14.797-11.99 26.786-26.786 26.786z" fill="#540000"/></g><g><path d="m1906.773 3322.798c-8.004 0-15.93-3.575-21.205-10.402-9.051-11.701-6.897-28.521 4.804-37.571l136.684-105.704-136.693-105.713c-11.701-9.051-13.855-25.87-4.804-37.572 9.051-11.71 25.888-13.846 37.572-4.804l164.097 126.901c6.566 5.074 10.402 12.896 10.402 21.188s-3.836 16.113-10.402 21.188l-164.089 126.891c-4.874 3.775-10.646 5.598-16.366 5.598z" fill="#540000"/></g><g><path d="m2070.844 3195.906h-376.761c-14.797 0-26.786-11.989-26.786-26.786s11.989-26.786 26.786-26.786h376.761c14.797 0 26.786 11.989 26.786 26.786s-11.989 26.786-26.786 26.786z" fill="#540000"/></g></g></svg>