<svg id="Capa_1" enable-background="new 0 0 512 512" height="512" viewBox="0 0 512 512" width="512" xmlns="http://www.w3.org/2000/svg"><g><path d="m413.859 147.282-27.949-46.582c-2.266-55.909-48.458-100.7-104.914-100.7-57.89 0-104.988 47.087-105 104.975-.072 21.96 5.094 43.941 14.941 63.566l11.796 23.508-84.771 84.771c-14.166 14.166-21.967 33-21.967 53.033v167.147c0 8.284 6.716 15 15 15h45l15-30 15 30h125c7.614 0 14.021-5.705 14.899-13.268l16.97-145.941c2.407-20.701-3.991-41.649-17.554-57.472l-35.096-40.946 18.282-24.373h32.5c24.813 0 45-20.187 45-45v-9.188l19.744-6.581c9.104-3.035 13.056-13.72 8.119-21.949z" fill="#ffe4c2"/><path d="m413.859 147.282-27.949-46.582c-2.266-55.909-48.458-100.7-104.914-100.7v512h30c7.614 0 14.021-5.705 14.899-13.268l16.97-145.941c2.407-20.701-3.991-41.649-17.554-57.472l-35.096-40.946 18.281-24.373h32.5c24.813 0 45-20.187 45-45v-9.188l19.744-6.581c9.104-3.035 13.056-13.72 8.119-21.949z" fill="#f2d1a5"/><g fill="#5e54ac"><path d="m155.996 512v-42.804c0-8.284 6.716-15 15-15s15 6.716 15 15v42.804z"/><path d="m185.996 401.696c0 8.284-6.716 15-15 15s-15-6.716-15-15v-30c0-8.284 6.716-15 15-15s15 6.716 15 15z"/><path d="m220.959 301.106-21.214 21.213c-2.929 2.928-6.769 4.393-10.606 4.393-3.839 0-7.678-1.464-10.606-4.394-5.858-5.858-5.857-15.355 0-21.213l21.214-21.213c5.858-5.857 15.356-5.857 21.213 0 5.858 5.858 5.857 15.356-.001 21.214z"/></g></g></svg>