<svg clip-rule="evenodd" fill-rule="evenodd" height="512" stroke-linejoin="round" stroke-miterlimit="2" viewBox="0 0 24 24" width="512" xmlns="http://www.w3.org/2000/svg"><g id="Icon"><path d="m7.789 7.839c-.954 1.05-1.539 2.459-1.539 4.011 0 3.265 2.581 5.9 5.75 5.9 3.17 0 5.75-2.635 5.75-5.9 0-1.552-.585-2.961-1.539-4.011-.279-.306-.753-.329-1.06-.051-.306.279-.329.753-.05 1.06.714.785 1.149 1.841 1.149 3.002 0 2.424-1.896 4.4-4.25 4.4-2.353 0-4.25-1.976-4.25-4.4 0-1.161.435-2.217 1.149-3.002.278-.307.255-.781-.051-1.06-.306-.278-.781-.255-1.059.051z"/><path d="m11.25 7v5c0 .414.336.75.75.75s.75-.336.75-.75v-5c0-.414-.336-.75-.75-.75s-.75.336-.75.75z"/><path d="m22.75 12c0-5.933-4.817-10.75-10.75-10.75s-10.75 4.817-10.75 10.75 4.817 10.75 10.75 10.75 10.75-4.817 10.75-10.75zm-1.5 0c0 5.105-4.145 9.25-9.25 9.25s-9.25-4.145-9.25-9.25 4.145-9.25 9.25-9.25 9.25 4.145 9.25 9.25z"/></g></svg>