<svg id="Layer_1" enable-background="new 0 0 512 512" viewBox="0 0 512 512" xmlns="http://www.w3.org/2000/svg"><g clip-rule="evenodd" fill-rule="evenodd"><path d="m52.06 57.08h407.89c16.09 0 29.27 13.18 29.27 29.27v388.34c0 16.12-13.18 29.3-29.27 29.3h-407.89c-16.09 0-29.27-13.18-29.27-29.3v-388.34c-.01-16.09 13.17-29.27 29.27-29.27z" fill="#ebf5fc"/><path d="m52.06 57.08h407.89c16.09 0 29.27 13.18 29.27 29.27v61.02h-466.44v-61.02c0-16.09 13.18-29.27 29.28-29.27z" fill="#ff4646"/><g fill="#2f5274"><path d="m105.35 8.01c11.48 0 20.87 9.39 20.87 20.87v56.4c0 11.48-9.39 20.87-20.87 20.87-11.48 0-20.9-9.39-20.9-20.87v-56.4c.01-11.48 9.43-20.87 20.9-20.87z"/><path d="m205.78 8.01c11.48 0 20.9 9.39 20.9 20.87v56.4c0 11.48-9.42 20.87-20.9 20.87-11.48 0-20.87-9.39-20.87-20.87v-56.4c0-11.48 9.39-20.87 20.87-20.87z"/><path d="m306.22 8.01c11.48 0 20.87 9.39 20.87 20.87v56.4c0 11.48-9.39 20.87-20.87 20.87-11.48 0-20.9-9.39-20.9-20.87v-56.4c.01-11.48 9.43-20.87 20.9-20.87z"/><path d="m406.65 8.01c11.48 0 20.9 9.39 20.9 20.87v56.4c0 11.48-9.42 20.87-20.9 20.87-11.48 0-20.87-9.39-20.87-20.87v-56.4c0-11.48 9.39-20.87 20.87-20.87z"/></g><path d="m45.27 147.37v327.32c0 16.12 13.18 29.3 29.3 29.3h-22.51c-16.09 0-29.27-13.18-29.27-29.3v-327.32z" fill="#d4dde3"/><path d="m52.06 57.08h22.52c-16.12 0-29.3 13.18-29.3 29.27v61.02h-22.5v-61.02c0-16.09 13.18-29.27 29.28-29.27z" fill="#e63f3f"/></g><path d="m459.92 49.07h-24.41v-20.21c.01-15.91-12.94-28.86-28.85-28.86-15.93 0-28.89 12.95-28.89 28.86v20.21h-42.69v-20.21c.01-15.91-12.94-28.86-28.85-28.86-15.93 0-28.88 12.95-28.88 28.86v20.21h-42.69v-20.21c0-15.91-12.96-28.86-28.89-28.86-15.91 0-28.86 12.95-28.86 28.86v20.21h-42.69v-20.21c0-15.91-12.95-28.86-28.88-28.86-15.91 0-28.86 12.95-28.86 28.86v20.21h-24.4c-20.57 0-37.3 16.72-37.3 37.28v388.38c0 20.55 16.73 37.28 37.3 37.28h407.85c20.57 0 37.3-16.72 37.3-37.28v-388.38c0-20.56-16.74-37.28-37.31-37.28zm-66.16-20.21c0-7.1 5.79-12.87 12.9-12.87 7.1 0 12.87 5.77 12.87 12.87v56.41c0 7.1-5.77 12.87-12.87 12.87-7.11 0-12.9-5.77-12.9-12.87zm-100.43 0c0-7.1 5.79-12.87 12.9-12.87 7.1 0 12.87 5.77 12.87 12.87v56.41c0 7.1-5.77 12.87-12.87 12.87-7.11 0-12.9-5.77-12.9-12.87zm-100.43 0c0-7.1 5.77-12.87 12.87-12.87 7.11 0 12.9 5.77 12.9 12.87v56.41c0 7.1-5.79 12.87-12.9 12.87-7.1 0-12.87-5.77-12.87-12.87zm-100.43 0c0-7.1 5.77-12.87 12.87-12.87 7.11 0 12.9 5.77 12.9 12.87v56.41c0 7.1-5.79 12.87-12.9 12.87-7.1 0-12.87-5.77-12.87-12.87zm-40.39 36.2h24.41v20.21c0 15.91 12.95 28.86 28.86 28.86 15.93 0 28.88-12.95 28.88-28.86v-20.21h42.69v20.21c0 15.91 12.94 28.86 28.86 28.86 15.93 0 28.89-12.95 28.89-28.86v-20.21h42.69v20.21c0 15.91 12.96 28.86 28.88 28.86 15.91 0 28.86-12.95 28.86-28.86v-20.21h42.69v20.21c0 15.91 12.96 28.86 28.89 28.86 15.91 0 28.86-12.95 28.86-28.86v-20.21h24.41c11.75 0 21.32 9.55 21.32 21.29v53.04h-450.51v-53.04c0-11.74 9.56-21.29 21.32-21.29zm407.84 430.95h-407.84c-11.75 0-21.32-9.55-21.32-21.29v-319.35h450.48v319.35c0 11.74-9.56 21.29-21.32 21.29zm-74.48-190.38c9.26 34.59 4.5 70.7-13.39 101.69-17.9 30.99-46.8 53.16-81.38 62.42-11.55 3.1-23.27 4.63-34.92 4.63-23.21 0-46.11-6.09-66.75-18-30.99-17.89-53.17-46.79-62.44-81.37-11.4-42.58-1.11-88.06 27.52-121.66 2.86-3.36 7.91-3.76 11.27-.9s3.76 7.91.9 11.27c-25.22 29.6-34.28 69.66-24.24 107.15 8.17 30.46 27.7 55.91 54.99 71.67 27.3 15.76 59.09 19.94 89.53 11.77 30.46-8.15 55.91-27.68 71.67-54.97s19.95-59.1 11.8-89.56c-15.18-56.58-70.74-93.62-128.24-86.61l20.26 16.36c3.43 2.77 3.97 7.81 1.2 11.24-1.58 1.96-3.89 2.97-6.22 2.97-1.76 0-3.54-.58-5.02-1.78l-33.59-27.13c-3.43-2.77-3.97-7.8-1.2-11.24l27.13-33.62c2.77-3.44 7.81-3.97 11.24-1.2 3.44 2.77 3.97 7.8 1.2 11.24l-13.65 16.91c29.55-2.89 59.24 4.13 84.61 20.2 28.48 18.05 48.98 45.94 57.72 78.52zm-121.45-30.55v57.26h57.26c4.42 0 7.99 3.58 7.99 7.99s-3.58 7.99-7.99 7.99h-65.25c-4.42 0-7.99-3.58-7.99-7.99v-65.25c0-4.42 3.58-7.99 7.99-7.99 4.41-.01 7.99 3.57 7.99 7.99z"/></svg>