<?xml version="1.0" encoding="iso-8859-1"?>
<!-- Generator: Adobe Illustrator 19.0.0, SVG Export Plug-In . SVG Version: 6.00 Build 0)  -->
<svg version="1.1" id="Capa_1" xmlns="http://www.w3.org/2000/svg" xmlns:xlink="http://www.w3.org/1999/xlink" x="0px" y="0px"
	 viewBox="0 60 512.005 390" style="enable-background:new 0 0 512.005 512.005;" xml:space="preserve">
<g>
	<g>
		<path d="M508.877,88.453L423.544,3.12c-4.16-4.16-10.923-4.16-15.083,0l-24.469,24.469l18.219,18.219
			c4.16,4.16,4.16,10.923,0,15.083c-2.091,2.069-4.821,3.115-7.552,3.115s-5.461-1.045-7.552-3.115l-18.197-18.219l-27.584,27.584
			l39.552,39.552c4.16,4.16,4.16,10.923,0,15.083c-2.091,2.069-4.821,3.115-7.552,3.115c-2.731,0-5.461-1.045-7.552-3.115
			l-39.531-39.552l-27.584,27.584l18.219,18.219c4.16,4.16,4.16,10.923,0,15.083c-2.091,2.069-4.821,3.115-7.552,3.115
			c-2.731,0-5.461-1.045-7.552-3.115l-18.197-18.219l-27.584,27.584l39.552,39.552c4.16,4.16,4.16,10.923,0,15.083
			c-2.091,2.069-4.821,3.115-7.552,3.115s-5.461-1.045-7.552-3.115l-39.531-39.552l-27.584,27.584l18.219,18.219
			c4.16,4.16,4.16,10.923,0,15.083c-2.091,2.069-4.821,3.115-7.552,3.115s-5.461-1.045-7.552-3.115l-18.197-18.219l-27.584,27.584
			l39.552,39.552c4.16,4.16,4.16,10.923,0,15.083c-2.091,2.069-4.821,3.115-7.552,3.115c-2.731,0-5.461-1.045-7.552-3.115
			l-39.531-39.552l-27.584,27.584l18.219,18.219c4.16,4.16,4.16,10.923,0,15.083c-2.091,2.069-4.821,3.115-7.552,3.115
			s-5.461-1.045-7.552-3.115l-18.197-18.219l-27.584,27.584l39.552,39.552c4.16,4.16,4.16,10.923,0,15.083
			c-2.091,2.069-4.821,3.115-7.552,3.115c-2.731,0-5.461-1.045-7.552-3.115l-39.531-39.552l-27.584,27.584l18.219,18.219
			c4.16,4.16,4.16,10.923,0,15.083c-2.091,2.069-4.821,3.115-7.552,3.115c-2.731,0-5.461-1.045-7.552-3.115l-18.197-18.219
			L3.128,408.453c-4.16,4.16-4.16,10.923,0,15.083l85.333,85.333c2.069,2.091,4.8,3.136,7.531,3.136s5.461-1.045,7.552-3.115
			l405.333-405.333C513.037,99.376,513.037,92.635,508.877,88.453z"/>
	</g>
</g>
<g>
</g>
<g>
</g>
<g>
</g>
<g>
</g>
<g>
</g>
<g>
</g>
<g>
</g>
<g>
</g>
<g>
</g>
<g>
</g>
<g>
</g>
<g>
</g>
<g>
</g>
<g>
</g>
<g>
</g>
</svg>
