<svg id="Layer_3" height="512" viewBox="0 0 64 64" width="512" xmlns="http://www.w3.org/2000/svg" data-name="Layer 3"><path d="m23 57 1.742 2.613a1.537 1.537 0 0 1 .258.852 1.535 1.535 0 0 1 -1.535 1.535 5.952 5.952 0 0 1 -4.209-1.743l-3.256-3.257a3 3 0 0 1 3-3h1" fill="#4c4c4c"/><path d="m40 49 1.792 3.584a1.968 1.968 0 0 1 .208.881 1.535 1.535 0 0 1 -1.535 1.535 5.952 5.952 0 0 1 -4.209-1.743l-3.256-3.257a3 3 0 0 1 3-3h1" fill="#4c4c4c"/><path d="m43 20.5 2.025-1.012a3.277 3.277 0 0 0 1.463-1.463 1.854 1.854 0 0 1 1.658-1.025 1.854 1.854 0 0 1 1.854 1.854 2.978 2.978 0 0 1 -2.036 2.825 10.208 10.208 0 0 0 -1.846.825l-4.3 2.459" fill="#f2b9a1"/><path d="m34 21-2-4 6-4 3 2 .644.966a8.076 8.076 0 0 1 1.356 4.479 8.068 8.068 0 0 1 -.578 3l-1.422 3.555v3l7 4-5 5-1.624-.812a11.257 11.257 0 0 0 -5.033-1.188 6.343 6.343 0 0 1 -6.343-6.343 4.724 4.724 0 0 1 1.035-2.951l.927-1.159z" fill="#e73844"/><path d="m41 30v-3l1.422-3.556a8.073 8.073 0 0 0 -.778-7.478l-.644-.966-2.5-1.667-3 2a3.4 3.4 0 0 0 -1.417 3.592l1.134 2.275-.567.567a3.392 3.392 0 0 1 -.135.529l2.017 2.521a6.722 6.722 0 0 1 1.468 4.183 3 3 0 0 1 -6 0 2.087 2.087 0 0 0 -.228-.9 4.707 4.707 0 0 0 -.772 2.557 6.343 6.343 0 0 0 6.343 6.343 11.26 11.26 0 0 1 5.033 1.188l.957.479 4.667-4.667z" fill="#ff4d55"/><path d="m43 5a2 2 0 0 0 2-2v-1h-6a5 5 0 0 0 -5 5 6.475 6.475 0 0 0 3.579 5.789l.421.211z" fill="#785349"/><path d="m36 7a6.463 6.463 0 0 0 2.547 5.127l4.453-7.127a2 2 0 0 0 2-2v-1h-4a5 5 0 0 0 -5 5z" fill="#916658"/><path d="m42 13a2 2 0 0 0 2-2l1-1-1-2v-.586a3.415 3.415 0 0 0 -1-2.414l-3 1a2 2 0 0 0 -2 2 2 2 0 0 0 2 2l-2 3a2 2 0 0 0 2 2h1z" fill="#f2b9a1"/><path d="m27.84 42.24-1.158 1.737a6.15 6.15 0 0 1 -1.7 1.705 6.147 6.147 0 0 0 -2.553 3.623 10.091 10.091 0 0 1 -1.393 3.148l-1.036 1.547a3 3 0 0 0 3 3l1.991-3.485a17.153 17.153 0 0 1 5.378-5.761 9.214 9.214 0 0 0 3.278-3.854z" fill="#f2b9a1"/><path d="m43 39-4.178 5.849a17.07 17.07 0 0 1 -1.822 2.151 2 2 0 0 0 2 2h1a46.171 46.171 0 0 1 9.21-8.722l.736-.525a2.52 2.52 0 0 0 1.054-2.053 2.517 2.517 0 0 0 -1.583-2.337l-1.988-.8z" fill="#f2b9a1"/><g fill="#8adef9"><path d="m13 40h10v2h-10z"/><path d="m20 31h6v2h-6z"/><path d="m19 11h12v2h-12z"/><path d="m15 11h2v2h-2z"/></g><path d="m37.472 37.057-3.472 6.943-7-2 2-5a9.915 9.915 0 0 1 1.2-4.736" fill="#43b6e5"/><path d="m36.445 18.168-2.896 1.931.451.901.555.832 3-2z" fill="#e73844"/><path d="m34 21-1 1 2.751 3.438a5.706 5.706 0 0 1 1.249 3.562 2 2 0 0 1 -2 2 2 2 0 0 1 -2-2 3.124 3.124 0 0 0 -.581-1.814l-4.019-5.63a2.135 2.135 0 0 1 -.4-1.239 2.131 2.131 0 0 1 1.178-1.906l2.822-1.411z" fill="#f2b9a1"/><path d="m41 30-10.732 2.477a6.345 6.345 0 0 0 6.075 4.523 11.257 11.257 0 0 1 5.033 1.188l1.624.812 5-5z" fill="#43b6e5"/><path d="m41 30-3.65.842a2.941 2.941 0 0 1 -3.659.845l-2.479.572a6.34 6.34 0 0 0 6.131 4.741 11.257 11.257 0 0 1 5.033 1.188l.957.479 4.667-4.667z" fill="#8adef9"/><path d="m23 57-3-3h-1a2.965 2.965 0 0 0 -1.554.446l-.009.013a1.93 1.93 0 0 0 .354 2.332l2.465 2.466a5.952 5.952 0 0 0 4.209 1.743 1.548 1.548 0 0 0 .458-.077 1.488 1.488 0 0 0 -.181-1.31z" fill="#636363"/><path d="m37 47h-1a2.986 2.986 0 0 0 -2.554 1.446l2.81 2.811a5.952 5.952 0 0 0 4.209 1.743 1.527 1.527 0 0 0 1.225-.619l-1.69-3.381z" fill="#636363"/></svg>