<svg enable-background="new 0 0 100 100" height="512" viewBox="0 0 100 100" width="512" xmlns="http://www.w3.org/2000/svg"><g id="Layer_35"><g><g><path clip-rule="evenodd" d="m45.8 6.5c-8.9 0-16.2 6.8-17 15.5 3.8-2.9 9.5-4.7 17-4.7 4 0 7.4.5 10.4 1.4 2.6.8 4.8 1.9 6.6 3.3-.8-8.7-8.1-15.5-17-15.5z" fill="#f892de" fill-rule="evenodd"/></g><g><path clip-rule="evenodd" d="m56.2 18.8c-2.9-.9-6.4-1.4-10.4-1.4-7.5 0-13.2 1.8-17 4.7-8.3 6.3-8.2 17.7-.8 27.9v-6.7c0-5.5 8.5-8.4 17.2-8.5h.4c8.5-.4 14.1-11.7 10.6-16z" fill="#fab4e9" fill-rule="evenodd"/></g><g><path clip-rule="evenodd" d="m62.8 22c-1.8-1.4-4-2.5-6.6-3.3 3.5 4.4-2 15.7-10.6 15.9 9 0 18 2.8 18 8.5v6.7c7.4-10 7.5-21.5-.8-27.8z" fill="#f892de" fill-rule="evenodd"/></g><g><path clip-rule="evenodd" d="m63.6 43.2c0-5.7-9-8.5-18-8.5-.1 0-.3 0-.4 0-8.7.1-17.2 3-17.2 8.5v6.7.1c0 7.4 4.6 13.8 11.1 16.5 2.1.8 4.3 1.3 6.6 1.3s4.6-.5 6.6-1.3c6.5-2.6 11.2-9.1 11.2-16.5v-.1z" fill="#ffddce" fill-rule="evenodd"/></g><g><path clip-rule="evenodd" d="m52.4 66.5c-2.1.8-4.3 1.3-6.6 1.3s-4.6-.5-6.6-1.3v5.8l-14.5 6c-4.3 1.8-6.9 4.8-6.9 9.4v5.8h11v-5.8c0-1.5 1.2-2.7 2.7-2.7h28.5v-7.7c0-.7.3-1.3.8-1.6l-8.3-3.5v-5.7z" fill="#ffc8b1" fill-rule="evenodd"/></g><g><path clip-rule="evenodd" d="m59.9 85h-28.5c-1.5 0-2.7 1.2-2.7 2.7v5.8h17 19.9c-3.1 0-5.7-2.6-5.7-5.7z" fill="#fab4e9" fill-rule="evenodd"/></g><g><path clip-rule="evenodd" d="m66.9 78.3-14.5-6v-5.8c-1.7.7-3.4 1.1-5.3 1.2v4.7c0 2.7.5 3.5 2.1 4.2l12.4 5.1c4.3 1.8 6.9 4.8 6.9 9.4v2.3h5.3v-5.8c0-4.5-2.7-7.6-6.9-9.3z" fill="#fcb797" fill-rule="evenodd"/></g><g><path clip-rule="evenodd" d="m77.9 75.3h-14.6-1.3c-.5 0-.9.2-1.3.5-.5.4-.8 1-.8 1.6v7.6 2.7c0 3.2 2.6 5.7 5.7 5.7h12.5c3.2 0 5.7-2.6 5.7-5.7v-10.3c0-1.1-.9-2.1-2.1-2.1z" fill="#92e0c4" fill-rule="evenodd"/></g><g><path clip-rule="evenodd" d="m76.7 64.5c-2.3 4.1-5.2 3.5-7.6 3.8-2.8.4-5.8 2.5-5.8 6.9h14.6c5.4-3.7.7-9.7-1.2-10.7z" fill="#dddde0" fill-rule="evenodd"/></g><g><path clip-rule="evenodd" d="m49.7 17.5c1.7 5-1.8 13.2-7.9 17.3 1.1-.1 2.3-.2 3.4-.2h.4c8.6-.2 14.1-11.5 10.6-15.9-2-.5-4.1-.9-6.5-1.2z" fill="#ebaadb" fill-rule="evenodd"/></g><g><path clip-rule="evenodd" d="m62.8 22c-.8-8.7-8.1-15.5-17-15.5-1.2 0-2.4.1-3.5.4 6.1 1.3 10.9 5.8 12.8 11.6.4.1.8.2 1.1.3 2.6.8 4.8 1.9 6.6 3.2z" fill="#eb81d1" fill-rule="evenodd"/></g><g><path clip-rule="evenodd" d="m56.5 36.2v13.8c0 8.6-6.1 15.8-14.2 17.4 1.1.2 2.3.4 3.5.4.4 0 .9 0 1.3-.1 1.9-.1 3.6-.6 5.3-1.2 6.5-2.6 11.2-9.1 11.2-16.5v-.1-6.7c0-1.6-.7-3-2-4.2s-3-2.1-5.1-2.8z" fill="#f5cfbf" fill-rule="evenodd"/></g><g><path clip-rule="evenodd" d="m81.8 75.3h-3.9-1.1v.3 12.2c0 2.2-1.2 4-3 5-.8.4-1.8.7-2.8.7h2.8 4.3c3.2 0 5.7-2.6 5.7-5.7v-10.4c.1-1.2-.9-2.1-2-2.1z" fill="#8ad1b7" fill-rule="evenodd"/></g><g><path d="m51.6 47.6c.4-.4.8-.7 1.3-.7.5 0 .9.2 1.3.7.3.4.7.5 1.2.5.3 0 .7-.1 1-.3.6-.5.7-1.5.2-2.1-.9-1.1-2.2-1.8-3.6-1.8-1.4 0-2.7.6-3.6 1.8-.5.6-.4 1.6.2 2.1.5.5 1.5.4 2-.2z"/><path d="m42.1 47.8c.6-.5.7-1.5.2-2.1-.9-1.1-2.3-1.8-3.6-1.8-1.4 0-2.7.6-3.6 1.8-.5.6-.4 1.6.2 2.1s1.6.4 2.1-.2c.4-.4.8-.7 1.3-.7.5 0 .9.2 1.3.7.3.4.7.5 1.1.5s.7-.1 1-.3z"/><path d="m51.1 56c-.6-.6-1.5-.6-2.1 0-.9.9-2 1.4-3.2 1.4s-2.4-.5-3.2-1.4c-.6-.6-1.5-.6-2.1 0s-.6 1.5 0 2.1c1.4 1.5 3.3 2.3 5.4 2.3s3.9-.8 5.4-2.3c.4-.6.4-1.5-.2-2.1z"/><path d="m81.8 73.8h-.6c.6-1.2.8-2.5.7-3.4-.3-3.4-2.9-6.4-4.6-7.2-.7-.4-1.6-.1-2 .6-1.5 2.7-3.1 2.8-5.1 2.9-.5 0-.9.1-1.3.1-3.2.4-6.4 2.7-7 6.9-.5 0-.9.1-1.3.3l-6.7-2.8v-3.8c6.5-3 11-9.5 11.1-17.1 5.7-8 7.1-16.8 3.7-23.6-1.1-2.2-2.6-4-4.5-5.6-1.2-9.2-9-16.1-18.4-16.1-9.5 0-17.3 6.9-18.4 16.2-1.9 1.5-3.4 3.4-4.5 5.6-3.4 6.8-2 15.6 3.7 23.6.1 7.6 4.7 14.1 11.1 17.1v3.8l-13.5 5.6c-5.1 2.1-7.9 5.9-7.9 10.8v5.8c0 .8.7 1.5 1.5 1.5h60.4c4 0 7.2-3.3 7.2-7.2v-10.4c0-2-1.6-3.6-3.6-3.6zm-12.5-4c.4 0 .7-.1 1.1-.1 1.9-.1 4.5-.3 6.6-3 .8.9 1.7 2.3 1.9 3.8.1 1.2-.4 2.3-1.5 3.2h-12.5c.6-2.5 2.6-3.7 4.4-3.9zm-9.5 22.2h-29.5v-4.3c0-.6.5-1.2 1.2-1.2h27v1.2c-.1 1.6.4 3.1 1.3 4.3zm6.3-63.8c2.4 4.7 2 10.6-1 16.5v-1.5c0-5.3-5.6-8.3-12.6-9.5 2.2-1.6 3.9-3.9 4.9-5.9 1.1-2.3 1.5-4.5 1.3-6.5 3.3 1.6 5.9 3.9 7.4 6.9zm-20.3-20.2c6.9 0 12.9 4.6 14.9 11-4-2-9-3.1-14.9-3.1-5.9 0-10.9 1.1-14.9 3.1 2-6.5 7.9-11 14.9-11zm-20.3 20.1c3-6 10.2-9.3 20.3-9.3 3.5 0 6.7.4 9.4 1.2.9 1.4.7 3.9-.6 6.4-1.5 3.1-4.8 6.7-9.4 6.7-9.4.1-18.8 3.2-18.8 10v1.4c-2.8-5.7-3.3-11.7-.9-16.4zm4 21.9v-6.9c0-4.5 8.4-7 16.3-7 4.4 0 8.6.7 11.6 2 2.1.9 4.6 2.5 4.6 5v6.9c0 9-7.3 16.3-16.3 16.3s-16.2-7.3-16.2-16.3zm-10.2 37.7c0-3.7 2-6.4 6-8l14.5-6c.6-.2.9-.8.9-1.4v-3.7c1.6.5 3.3.7 5.1.7s3.5-.3 5.1-.7v3.7c0 .6.4 1.2.9 1.4l6.7 2.8c-.1.3-.1.6-.1.9v6.2h-27c-2.3 0-4.2 1.9-4.2 4.2v4.2h-8v-4.3zm63.1.1c0 2.3-1.9 4.2-4.2 4.2h-12.5c-2.3 0-4.2-1.9-4.2-4.2v-10.4c0-.3.3-.6.6-.6h19.8c.3 0 .6.3.6.6v10.4z"/><path d="m73.8 82.9h-3.8c-.8 0-1.5.7-1.5 1.5s.7 1.5 1.5 1.5h3.8c.8 0 1.5-.7 1.5-1.5s-.7-1.5-1.5-1.5z"/><path d="m18.8 61.7v2.3c0 .8.7 1.5 1.5 1.5s1.5-.7 1.5-1.5v-2.3h2.3c.8 0 1.5-.7 1.5-1.5s-.7-1.5-1.5-1.5h-2.3v-2.3c0-.8-.7-1.5-1.5-1.5s-1.5.7-1.5 1.5v2.3h-2.3c-.8 0-1.5.7-1.5 1.5s.7 1.5 1.5 1.5z"/><path d="m73.8 48.1h2.3v2.3c0 .8.7 1.5 1.5 1.5s1.5-.7 1.5-1.5v-2.3h2.3c.8 0 1.5-.7 1.5-1.5s-.7-1.5-1.5-1.5h-2.3v-2.3c0-.8-.7-1.5-1.5-1.5s-1.5.7-1.5 1.5v2.3h-2.3c-.8 0-1.5.7-1.5 1.5s.7 1.5 1.5 1.5z"/><path d="m16.1 48.7c.8 0 1.5-.7 1.5-1.5s-.7-1.5-1.5-1.5c-.8 0-1.5.7-1.5 1.5s.7 1.5 1.5 1.5z"/></g></g></g></svg>