<svg id="Capa_1" enable-background="new 0 0 512 512" viewBox="0 0 512 512" xmlns="http://www.w3.org/2000/svg"><g><g><path d="m508.425 245.459-7.619 112.296-482.603-4.741-18.203-45.43v-66.975c0-2.761 2.239-5 5-5h474.034l23.21 3.85c3.42 0 6.181 2.69 6.181 6z" fill="#ffdcd0"/><path d="m505.324 470.174c0 3.31-2.771 6-6.181 6l-42.929 5.44h-450.033c-3.41 0-6.181-2.69-6.181-6v-71.169l18.203-51.43 477.314 13.22z" fill="#ffb5a5"/><path d="m512 307.584v-66.975c0-2.761-2.239-5-5-5h-27.966v122.146h21.772z" fill="#ffc7b6"/><path d="m500.806 357.755h-21.772v94.743c0 16.08-13.429 29.116-29.995 29.116h56.779c3.414 0 6.181-2.686 6.181-6v-71.169l-11.717-44.345z" fill="#f9a791"/><path d="m426.663 336.18c-42.669 0-42.669-28.597-85.337-28.597-42.667 0-42.667 28.597-85.333 28.597-42.665 0-42.665-28.597-85.33-28.597-42.666 0-42.666 28.597-85.332 28.597-42.665 0-42.665-28.597-85.331-28.597v30.73l3.808 15-3.808 15v36.135c42.665 0 42.665 28.597 85.331 28.597s42.666-28.597 85.332-28.597c42.665 0 42.665 28.597 85.33 28.597 42.666 0 42.666-28.597 85.333-28.597 42.668 0 42.668 28.597 85.337 28.597 34.012 0 40.913-18.17 63.924-25.543v-96.865c-23.011 7.373-29.912 25.543-63.924 25.543z" fill="#fe93bb"/><path d="m512 307.584v30.729l-3.575 16.948 3.575 13.053v36.131c-15.051 0-24.786 3.56-32.966 8.17v-96.86c8.18-4.61 17.915-8.171 32.966-8.171z" fill="#fe76a8"/><g fill="#f6f0f7"><ellipse cx="256" cy="384.613" rx="20.604" ry="20"/><ellipse cx="85.331" cy="384.613" rx="20.604" ry="20"/><ellipse cx="426.663" cy="384.613" rx="20.604" ry="20"/><ellipse cx="170.663" cy="353.016" rx="15.453" ry="15"/><ellipse cx="341.326" cy="353.016" rx="15.453" ry="15"/></g><path d="m512 338.314v30c-8.53 0-15.453-6.71-15.453-15 0-8.28 6.923-15 15.453-15z" fill="#ece6ed"/><path d="m15.453 353.314c0 8.29-6.923 15-15.453 15v-30c8.53 0 15.453 6.72 15.453 15z" fill="#f6f0f7"/></g><g fill="#ffc757"><path d="m317.165 69.849-4.063 10.857c-3.675 9.819-11.421 17.566-21.24 21.24l-10.857 4.063c-1.732.648-1.732 3.098 0 3.746l10.857 4.063c9.819 3.675 17.566 11.421 21.24 21.24l4.063 10.857c.648 1.732 3.098 1.732 3.746 0l4.063-10.857c3.675-9.819 11.421-17.566 21.24-21.24l10.857-4.063c1.732-.648 1.732-3.098 0-3.746l-10.857-4.063c-9.819-3.675-17.566-11.421-21.24-21.24l-4.063-10.857c-.648-1.732-3.097-1.732-3.746 0z"/><path d="m250.498 185.912-5.672 15.156c-4.671 12.48-14.517 22.326-26.997 26.997l-15.156 5.672c-1.732.648-1.732 3.098 0 3.746l15.156 5.672c12.48 4.671 22.326 14.517 26.997 26.997l5.672 15.156c.648 1.732 3.098 1.732 3.746 0l5.672-15.156c4.671-12.48 14.517-22.326 26.996-26.997l15.156-5.672c1.732-.648 1.732-3.098 0-3.746l-15.156-5.672c-12.48-4.671-22.326-14.517-26.996-26.997l-5.672-15.156c-.648-1.732-3.098-1.732-3.746 0z"/><path d="m177.292 96.902-3.232 8.636c-3.245 8.669-10.084 15.509-18.754 18.754l-8.636 3.232c-1.732.648-1.732 3.098 0 3.746l8.636 3.232c8.669 3.245 15.509 10.084 18.754 18.754l3.232 8.636c.648 1.732 3.098 1.732 3.746 0l3.248-8.679c3.234-8.642 10.053-15.461 18.695-18.695l8.679-3.248c1.732-.648 1.732-3.098 0-3.746l-8.636-3.232c-8.669-3.245-15.509-10.084-18.754-18.754l-3.232-8.636c-.648-1.732-3.098-1.732-3.746 0z"/></g><g fill="#ffd67b"><path d="m409.718 148.195h-12.5v-12.5c0-4.142-3.357-7.5-7.5-7.5s-7.5 3.358-7.5 7.5v12.5h-12.5c-4.143 0-7.5 3.358-7.5 7.5s3.357 7.5 7.5 7.5h12.5v12.5c0 4.142 3.357 7.5 7.5 7.5s7.5-3.358 7.5-7.5v-12.5h12.5c4.143 0 7.5-3.358 7.5-7.5s-3.358-7.5-7.5-7.5z"/><path d="m113.201 174.828h-12.5v-12.5c0-4.142-3.357-7.5-7.5-7.5s-7.5 3.358-7.5 7.5v12.5h-12.5c-4.143 0-7.5 3.358-7.5 7.5s3.357 7.5 7.5 7.5h12.5v12.5c0 4.142 3.357 7.5 7.5 7.5s7.5-3.358 7.5-7.5v-12.5h12.5c4.143 0 7.5-3.358 7.5-7.5s-3.357-7.5-7.5-7.5z"/><path d="m256 50.386h-12.5v-12.5c0-4.142-3.357-7.5-7.5-7.5s-7.5 3.358-7.5 7.5v12.5h-12.5c-4.143 0-7.5 3.358-7.5 7.5s3.357 7.5 7.5 7.5h12.5v12.5c0 4.142 3.357 7.5 7.5 7.5s7.5-3.358 7.5-7.5v-12.5h12.5c4.143 0 7.5-3.358 7.5-7.5s-3.357-7.5-7.5-7.5z"/></g></g><g/><g/><g/><g/><g/><g/><g/><g/><g/><g/><g/><g/><g/><g/><g/></svg>