<svg id="Flat" height="512" viewBox="0 0 128 128" width="512" xmlns="http://www.w3.org/2000/svg"><path d="m97.249 24.9c-6.927-12.6-19.485-22.08-33.249-22.085s-26.322 9.485-33.249 22.085c-3.587 6.528-2.915 19.544-.65 29.927h67.799c2.264-10.382 2.936-23.398-.651-29.927z" fill="#9e5969"/><path d="m91.96 53.134-2.57 18.173c4.571.747 9.807-4.517 10.565-9.087.932-5.615-2.268-9.559-7.995-9.086z" fill="#ffa39c"/><path d="m28.045 62.22c.758 4.57 5.994 9.834 10.565 9.087l-2.57-18.173c-5.727-.473-8.927 3.471-7.995 9.086z" fill="#ffa39c"/><path d="m90.4 63.737a1.5 1.5 0 0 1 -1.363-2.137 6.251 6.251 0 0 1 5.86-3.011 1.5 1.5 0 0 1 -.289 2.986 3.352 3.352 0 0 0 -2.854 1.3 1.5 1.5 0 0 1 -1.354.862z" fill="#ff6c73"/><path d="m37.606 63.737a1.5 1.5 0 0 1 -1.36-.864 3.367 3.367 0 0 0 -2.854-1.3 1.5 1.5 0 1 1 -.289-2.986 6.245 6.245 0 0 1 5.86 3.011 1.5 1.5 0 0 1 -1.357 2.135z" fill="#ff6c73"/><path d="m108.26 125.66h-88.525a2.008 2.008 0 0 1 -1.779-2.929 26.284 26.284 0 0 1 5.579-7.431c4.86-4.51 17.19-6.75 23.5-9.95a12.1 12.1 0 0 0 6.58-8.35c.1-.39.18-.77.24-1.15a64.154 64.154 0 0 0 .52-6.42h19.24a64.019 64.019 0 0 0 .53 6.41c.06.38.14.77.24 1.16a12.1 12.1 0 0 0 6.58 8.35c6.3 3.2 18.63 5.44 23.5 9.95a26.475 26.475 0 0 1 5.572 7.429 2.008 2.008 0 0 1 -1.777 2.931z" fill="#ffa39c"/><path d="m74.145 95.84a30.438 30.438 0 0 1 -8.67 3.31 6.675 6.675 0 0 1 -2.95 0 30.8 30.8 0 0 1 -8.67-3.3 64.154 64.154 0 0 0 .52-6.42h19.24a64.019 64.019 0 0 0 .53 6.41z" fill="#ff6c73"/><path d="m90.984 65.9c-1.51 7.68-4.65 13.86-8.72 17.88-.05.06-.11.11-.16.16-3.85 3.73-8.75 7.76-16.64 9.5a6.675 6.675 0 0 1 -2.95 0c-7.89-1.74-12.79-5.77-16.64-9.5-.05-.05-.11-.1-.16-.16-4.09-4.03-7.1-10.22-8.6-17.92a61.451 61.451 0 0 1 -1.09-12.73c.22-17.77 7.96-8.71 13.69-25.26 4.786-13.88 19.67-12.46 27.286-3.16a5 5 0 0 0 2.34 1.57c10 3.21 12.12 12.88 12.6 26.85a55.942 55.942 0 0 1 -.956 12.77z" fill="#ffb3a9"/><path d="m64 68.17a5.756 5.756 0 0 1 -3.752-1.562 1.4 1.4 0 0 1 1.82-2.115 2.551 2.551 0 0 0 3.864 0 1.4 1.4 0 0 1 1.82 2.115 5.756 5.756 0 0 1 -3.752 1.562z" fill="#ff6c73"/><path d="m72.709 74.474a1.077 1.077 0 0 0 -1.265-.847h-.017a10.115 10.115 0 0 1 -3.5.1c-.29-.041-.574-.1-.91-.161a4.1 4.1 0 0 0 -1.455-.069 3.581 3.581 0 0 0 -1.415.58.307.307 0 0 1 -.3 0 3.581 3.581 0 0 0 -1.415-.58 4.1 4.1 0 0 0 -1.455.069c-.336.065-.62.12-.91.161a10.115 10.115 0 0 1 -3.5-.1h-.018a1.076 1.076 0 0 0 -.632 2.045 10.3 10.3 0 0 0 4.369.836c.372-.011.748-.043 1.07-.068a1.32 1.32 0 0 1 .908.29 3.23 3.23 0 0 0 1.618.469h.224a3.23 3.23 0 0 0 1.618-.469 1.321 1.321 0 0 1 .909-.29c.321.025.7.057 1.07.068a10.3 10.3 0 0 0 4.368-.836 1.078 1.078 0 0 0 .638-1.198z" fill="#ff6c73"/><path d="m64 82.277a5.181 5.181 0 0 1 -2.263-.535 1.5 1.5 0 1 1 1.3-2.7 2.04 2.04 0 0 0 1.92 0 1.5 1.5 0 0 1 1.3 2.7 5.181 5.181 0 0 1 -2.257.535z" fill="#ff6c73"/><g fill="#9e5969"><path d="m72.072 43.745a13.244 13.244 0 0 1 4.288-1.091 17.853 17.853 0 0 1 4.286.045 34.932 34.932 0 0 1 4.179.815 17.01 17.01 0 0 1 4.039 1.526.671.671 0 0 1 -.532 1.224l-.041-.014a19.048 19.048 0 0 0 -3.831-.721 33.478 33.478 0 0 0 -3.966-.129c-1.318.037-2.623.036-3.913.09a29.89 29.89 0 0 0 -3.756.423l-.049.01a1.152 1.152 0 0 1 -.7-2.178z"/><path d="m73.485 55.08a5.987 5.987 0 0 0 2.543.269 13 13 0 0 0 2.789-.56c.464-.147.93-.3 1.379-.485.231-.08 1.425-.611 1.425-.611a4.656 4.656 0 0 1 2.07-.4 2.444 2.444 0 0 1 1.965 1.131.655.655 0 0 1 -.691.961l-.148-.027a1.832 1.832 0 0 0 -1.024.107 4.9 4.9 0 0 0 -1.019.512c-.1.068-.675.432-.675.432-.262.144-.524.3-.792.422a13.377 13.377 0 0 1 -1.658.65 11.076 11.076 0 0 1 -3.586.519 5.961 5.961 0 0 1 -3.663-1.253 1 1 0 0 1 .974-1.709z"/><path d="m55.6 56.747a5.963 5.963 0 0 1 -3.663 1.253 11.076 11.076 0 0 1 -3.586-.523 13.377 13.377 0 0 1 -1.658-.65c-.268-.127-1.369-.786-1.467-.854a4.9 4.9 0 0 0 -1.019-.512 1.832 1.832 0 0 0 -1.024-.107l-.148.027a.656.656 0 0 1 -.692-.961 2.448 2.448 0 0 1 1.966-1.131 4.656 4.656 0 0 1 2.07.4s1.194.531 1.425.611c.449.186.915.338 1.379.485a12.99 12.99 0 0 0 2.789.56 5.987 5.987 0 0 0 2.543-.269l.112-.041a1 1 0 0 1 .976 1.708z"/><path d="m55.258 45.913a29.89 29.89 0 0 0 -3.758-.423c-1.29-.054-2.6-.053-3.912-.09a33.464 33.464 0 0 0 -3.966.129 19.035 19.035 0 0 0 -3.831.721l-.042.013a.67.67 0 0 1 -.532-1.223 17.01 17.01 0 0 1 4.039-1.526 34.932 34.932 0 0 1 4.179-.815 17.853 17.853 0 0 1 4.286-.045 13.237 13.237 0 0 1 4.288 1.091 1.153 1.153 0 0 1 -.7 2.179z"/></g><path d="m45.77 83.78c-4.09-4.03-7.1-10.22-8.6-17.92 4.03-1.35 8.83.81 11.18 5.25 2.51 4.72 1.34 10.28-2.58 12.67z" fill="#ffe1e1"/><path d="m91.04 65.9c-1.51 7.68-4.65 13.86-8.72 17.88-3.93-2.38-5.1-7.95-2.59-12.67 2.38-4.48 7.25-6.64 11.31-5.21z" fill="#ffe1e1"/><path d="m48.236 82.374a1 1 0 0 1 -.836-1.544 7.573 7.573 0 0 0 .427-.749 1 1 0 1 1 1.791.889 9.39 9.39 0 0 1 -.54.948 1 1 0 0 1 -.842.456zm1.431-4.615h-.047a1 1 0 0 1 -.953-1.045c.006-.134.009-.27.009-.4 0-.163 0-.321-.012-.478a1 1 0 0 1 2-.1c.01.195.015.389.014.583 0 .162 0 .327-.011.492a1 1 0 0 1 -1 .948zm-.891-4.767a1 1 0 0 1 -.92-.606c-.115-.272-.244-.541-.385-.807a1.015 1.015 0 0 1 .383-1.354.988.988 0 0 1 1.341.34c.02.033.054.1.07.131.14.262.293.58.431.9a1 1 0 0 1 -.92 1.393zm-2.832-3.98a1 1 0 0 1 -.671-.258q-.33-.3-.682-.563a1 1 0 1 1 1.2-1.6c.283.212.56.438.827.68a1 1 0 0 1 -.671 1.742zm-9.962-2.66.008.015zm5.7.36a.983.983 0 0 1 -.239-.029 8.067 8.067 0 0 0 -.851-.161 1 1 0 1 1 .259-1.982 9.662 9.662 0 0 1 1.069.2 1 1 0 0 1 -.238 1.971z" fill="#ff8e88"/><path d="m79.007 81.918a9.39 9.39 0 0 1 -.54-.948 1 1 0 1 1 1.791-.889 7.779 7.779 0 0 0 .427.749 1 1 0 1 1 -1.678 1.088zm-1.589-5.113c-.007-.165-.01-.33-.01-.492 0-.194 0-.388.013-.583a1 1 0 0 1 2 .1c-.007.157-.012.315-.011.478 0 .135 0 .271.008.4a1 1 0 0 1 -.953 1.045h-.047a1 1 0 0 1 -1-.948zm1.5-3.893a1 1 0 0 1 -.527-1.313c.139-.323.291-.641.432-.9.015-.034.05-.1.069-.131a.988.988 0 0 1 1.341-.34 1.015 1.015 0 0 1 .384 1.354q-.213.4-.386.807a1 1 0 0 1 -.92.606.99.99 0 0 1 -.397-.083zm2.482-4.229a1 1 0 0 1 .071-1.413q.4-.363.827-.68a1 1 0 1 1 1.2 1.6q-.352.262-.683.563a1 1 0 0 1 -1.413-.071zm10.7-2.316.008-.015zm-6.667-.417a1 1 0 0 1 .733-1.209 9.645 9.645 0 0 1 1.068-.2 1 1 0 1 1 .26 1.982 8.085 8.085 0 0 0 -.852.161.983.983 0 0 1 -.239.029 1 1 0 0 1 -.977-.763z" fill="#ff8e88"/><path d="m92.894 74.646a2.143 2.143 0 0 0 -2.5 1.616l3.093 20.525c3.495-2.277 4.633-4.208 4.589-9.228-.016-2.138-2.315-12.382-5.182-12.913z" fill="#ffa39c"/><path d="m96.439 125.671s-5.2-11.681-5.917-15.047c-.864-4.072 4.006-14.264 4.006-14.264a17.969 17.969 0 0 0 -.192-11.95c-1.331-3.588-3.016-8.035-4.19-11.459a2.312 2.312 0 0 0 -4.483.457c0 .033-.007.066-.01.1-.172 2 1.117 10.155 1.689 12.718.552 2.47-3.2 5.876-4.977 8.5-5.685 8.368-2.944 13.164-1.759 15.9 1.013 2.339 3.819 15.051 3.819 15.051z" fill="#ffc2b6"/><path d="m35.106 74.646c-2.867.531-5.166 10.775-5.184 12.913-.043 5.02 1.094 6.951 4.589 9.228l3.089-20.525a2.143 2.143 0 0 0 -2.494-1.616z" fill="#ffa39c"/><path d="m31.561 125.671s5.2-11.681 5.917-15.047c.864-4.072-4.006-14.264-4.006-14.264a17.969 17.969 0 0 1 .192-11.95c1.331-3.588 3.016-8.035 4.19-11.459a2.312 2.312 0 0 1 4.483.457c0 .033.007.066.01.1.172 2-1.117 10.155-1.689 12.718-.552 2.47 3.2 5.876 4.977 8.5 5.685 8.368 2.944 13.164 1.759 15.9-1.013 2.339-3.819 15.051-3.819 15.051z" fill="#ffc2b6"/></svg>