<svg id="Capa_1" enable-background="new 0 0 512.002 512.002" viewBox="0 0 512.002 512.002" xmlns="http://www.w3.org/2000/svg"><g><g><g><g><g><g><path d="m80.921 228.877v181.747h301.213v-181.747c-8.849 0-295.794 0-301.213 0z" fill="#c7c7f9"/><path d="m392.998 243.367c25.714-13.283 41.849-39.81 41.849-68.747 0-23.818 0-42.033 0-63.121 0-28.937-16.135-55.463-41.849-68.747-46.897-24.232-107.054-35.967-166.795-35.225-205.525 17.544-221.59 248.474-.006 271.066 59.767.741 119.93-11.007 166.801-35.226z" fill="#f0edff"/><path d="m120.892 177.609c0-24.204 0-55.838 0-69.098 0-31.676 16.135-60.715 41.849-75.256 19.23-10.877 40.703-19.447 63.463-25.727-56.214.699-112.06 12.445-156.146 35.225-25.714 13.283-41.849 39.81-41.849 68.747v63.121c0 28.937 16.135 55.463 41.849 68.747 44.11 22.792 99.949 34.529 156.14 35.225-22.752-6.279-44.222-14.848-63.457-25.728-25.714-14.542-41.849-43.58-41.849-75.256z" fill="#dcdbff"/><path d="m329.583 116.299c-2.37-3.002-2.008-7.249.703-9.94 4.429-4.429 6.744-10.257 6.667-16.336-.171-12.44-10.653-22.28-23.103-22.28h-51.502c-68.148 4.84-101.007 47.749-110.492 97.612-4.732 24.874 8.74 49.86 32.239 59.286 16.236 6.513 40.402 10.545 79.775 9.012 39.796-3.897 76.218-14.186 95.664-30.625-.151-33.023-11.387-63.255-29.951-86.729z" fill="#bd7558"/><path d="m175.557 201.72c.224-62.218 36.468-114.993 86.79-133.977h-30.82c-70.534 0-127.735 60.574-128.016 135.426 26.078 26.819 97.438 36.645 160.357 30.485-38.336-3.946-72.088-14.501-88.311-31.934z" fill="#a66040"/><path d="m268.527 286.635c-20.795-6.094-47.852-7.72-73.998 0-27.682 11.135-50.473 33.876-61.417 64.078-5.426 16.116 6.562 32.802 23.567 32.802h149.689c16.715 0 28.671-16.162 23.778-32.145l-.201-.657c-10.945-30.202-33.737-52.943-61.418-64.078z" fill="#5a6cd9"/><path d="m268.527 286.635c.432 2.269.653 4.619.653 7.018 0 20.794-16.858 37.652-37.652 37.652s-37.652-16.858-37.652-37.652c0-2.4.221-4.749.653-7.018 23.327 8.468 50.666 8.469 73.998 0z" fill="#f9bbaf"/><path d="m138.854 173.63c24.966 4.056 28.665 51.999.733 59.188-18.473 3.772-36.075-10.39-36.075-29.529 0-16.622 13.47-30.121 30.121-30.121 2.762 0 4.384.349 5.221.462z" fill="#f9bbaf"/><path d="m359.543 203.41c-.081 19.099-17.656 33.169-36.075 29.408-26.286-2.42-24.233-55.132.743-59.188 17.905-3.304 35.332 10.52 35.332 29.78z" fill="#ffcbbe"/><path d="m328.558 202.426c0-23.673-8.502-45.687-23.133-62.873-25.511 6.442-55.133 4.05-78.195-7.691-.163-.083-.33-.154-.494-.236-94.945-13.149-108.164 146.967 17.155 160.687 47.923-5.229 84.667-40.716 84.667-89.887z" fill="#ffddcf"/><path d="m188.158 205.969c0-16.073 3.601-31.348 9.98-44.873 6.318-13.388 16.582-23.462 28.598-29.47-30.214-15.048-67.29-2.431-82.26 27.897-6.379 12.931-9.98 27.535-9.98 42.903 0 53.515 43.359 90.555 97.031 90.555 4.191 0 8.317-.226 12.364-.668-32.961-14.279-55.733-45.785-55.733-86.344z" fill="#ffcbbe"/><path d="m344.483 376.487h-60.243c0-16.529 13.39-30.121 30.121-30.121 16.584 0 30.122 13.453 30.122 30.121z" fill="#ffddcf"/><path d="m178.815 376.487h-60.243c0-16.682 13.547-30.121 30.121-30.121 16.725 0 30.122 13.583 30.122 30.121z" fill="#ffddcf"/><path d="m428.019 439.902c-8.773-39.53-43.065-69.049-84.47-70.855-6.994 0-112.875 0-176.539 0-133.26 7.44-146.332 135.456-30.031 135.456h239.221c34.062 0 59.183-31.588 51.819-64.601z" fill="#fb8798"/><path d="m105.097 440.092c7.174-34.292 31.264-61.095 61.913-71.045-27.729 0-47.451 0-47.503 0-40.954 1.757-75.61 30.926-84.47 70.855-7.37 33.154 17.862 64.6 51.819 64.6h50.124c-23.142-9.943-37.711-36.602-31.883-64.41z" fill="#fb6276"/><ellipse cx="231.528" cy="221.864" rx="10.824" ry="11.547"/></g></g><g><g><ellipse cx="231.528" cy="221.864" rx="10.824" ry="11.547"/></g></g></g></g></g><g><ellipse cx="231.528" cy="221.864" rx="10.824" ry="11.547"/><path d="m199.53 207.674c2.722-3.123 2.396-7.86-.727-10.582-3.125-2.722-7.859-2.396-10.582.727-4.395 5.044-12.216 5.139-16.694 0-2.723-3.122-7.458-3.447-10.582-.727-3.122 2.721-3.448 7.459-.727 10.582 10.433 11.971 28.936 11.907 39.312 0z"/><path d="m302.836 207.674c2.722-3.123 2.396-7.861-.727-10.582-3.124-2.722-7.862-2.396-10.582.727-4.482 5.144-12.304 5.038-16.694 0-2.723-3.122-7.46-3.447-10.582-.727-3.122 2.722-3.448 7.459-.727 10.582 10.388 11.919 28.892 11.956 39.312 0z"/><path d="m396.442 36.089c-70.046-36.193-171.962-46.152-259.638-25.374-4.03.955-6.523 4.997-5.568 9.027s5 6.526 9.027 5.568c84.392-20.002 182.244-10.54 249.293 24.104 23.311 12.042 37.791 35.831 37.791 62.084v63.094c0 26.253-14.48 50.042-37.786 62.081-27.39 14.125-54.997 21.665-74.099 25.725 5.252-6.557 9.584-13.777 12.891-21.516 21.503.597 38.779-16.916 38.687-37.523-.08-33.467-11.26-65.992-31.509-91.632.358-.507 9.093-8.134 8.921-21.809-.225-16.364-13.953-29.677-30.603-29.677h-82.321c-71.652 0-134.814 60.112-135.516 143.478 0 20.058 17.034 37.764 38.69 37.163 3.311 7.745 7.646 14.971 12.904 21.531-27.252-5.867-52.529-14.612-74.107-25.738-23.311-12.042-37.791-35.831-37.791-62.084v-63.094c0-26.253 14.48-50.042 37.79-62.083 10.437-5.39 21.812-10.261 33.807-14.479 3.908-1.374 5.962-5.655 4.588-9.563s-5.658-5.962-9.562-4.588c-12.647 4.446-24.664 9.595-35.716 15.302-28.316 14.628-45.906 43.523-45.906 75.41v63.094c0 31.887 17.59 60.782 45.911 75.413 2.227 1.149 4.503 2.265 6.802 3.364v121.833c-22.714 13.504-39.696 35.992-45.706 63.074-8.419 37.873 20.419 73.728 59.14 73.728h209.934c4.143 0 7.5-3.357 7.5-7.5s-3.357-7.5-7.5-7.5h-209.935c-29.189 0-50.82-27.028-44.496-55.475 7.496-33.783 35.147-59.112 68.774-64.136.447 3.715 3.604 6.595 7.44 6.595h60.243c4.089 0 7.499-3.29 7.499-7.53h90.425c0 4.238 3.409 7.53 7.499 7.53h60.243c3.833 0 6.989-2.877 7.439-6.589 33.633 5.047 61.284 30.374 68.777 64.137 6.334 28.39-15.3 55.467-44.498 55.467h-44.269c-4.143 0-7.5 3.357-7.5 7.5s3.357 7.5 7.5 7.5h44.269c38.828 0 67.556-35.999 59.141-73.725-6.007-27.066-22.99-49.549-45.707-63.058v-121.839c2.267-1.086 4.536-2.205 6.807-3.376 28.316-14.627 45.906-43.522 45.906-75.41v-63.094c0-31.887-17.59-60.783-45.905-75.41zm-249.785 194.228c-7.516-21.247-5.816-46.472 4.545-67.475 13.233-26.81 46.058-37.829 72.626-24.297 22.788 11.602 51.874 15.006 78.72 9.368 18.758 24.364 23.123 56.188 13.848 82.407-25.914 73.401-143.717 73.695-169.739-.003zm114.869 66.372c-1.527 15.205-14.398 27.116-29.999 27.116s-28.471-11.911-29.999-27.116c19.317 5.06 40.68 5.06 59.998 0zm71.864-71.135c3.401-14.338 3.565-29.604.473-44.444 10.426 2.096 18.165 11.264 18.178 22.357-.09 11.03-8.137 20.211-18.651 22.087zm-101.862-150.31h82.321c8.491 0 15.491 6.676 15.604 14.873.051 4.119-1.536 8.004-4.451 10.919-5.441 5.399-6.003 13.959-1.303 19.915 11.48 14.516 19.718 31.511 24.26 49.643-9.368-5.345-17.646-4.8-18.557-4.926-4.235-11.291-10.359-21.69-18.266-30.978-1.852-2.175-4.776-3.109-7.548-2.409-24.327 6.144-52.281 3.423-72.954-7.103-33.991-17.311-75.933-3.317-92.883 31.026-1.529 3.099-2.896 6.258-4.103 9.463-.819.112-9.178-.432-18.558 4.918 13.768-54.808 60.82-95.341 116.438-95.341zm-120.516 128.126c0-10.979 7.807-20.162 18.143-22.254-3.094 14.757-2.964 29.985.481 44.433-10.547-1.892-18.597-11.12-18.624-22.179zm-22.591 56.629c24.053 9.803 51.14 17.099 79.652 21.395 2.867 1.987 5.824 3.838 8.88 5.524-22.609 13.169-40.348 33.91-50.002 58.878-5.859 4.136-10.301 9.727-12.977 16.138-8.888.857-17.464 2.908-25.553 6.01zm38.912 108.988c3.067-8.789 11.523-15.121 21.36-15.121 9.847 0 18.243 6.322 21.344 15.121zm55.84-7.531c-6.138-14.026-20.429-23.404-36.541-22.521 9.302-17.031 23.202-31.036 40.028-40.279 2.499 22.55 21.663 40.148 44.868 40.148s42.369-17.598 44.868-40.148c16.821 9.241 30.72 23.241 40.022 40.267-16.188-.876-30.435 8.593-36.535 22.532h-96.71zm109.845 7.531c3.101-8.799 11.497-15.121 21.344-15.121 9.846 0 18.243 6.322 21.344 15.121zm81.616-1.028c-8.097-3.107-16.684-5.164-25.582-6.025-2.738-6.502-7.257-12.071-12.937-16.112-9.652-24.979-27.395-45.73-50.013-58.904 3.086-1.703 6.072-3.573 8.966-5.583 26.545-4.418 50.801-9.565 79.566-21.313z"/><path d="m403.903 86.98c-1.271-2.54-3.867-4.146-6.708-4.146h-22.591c-4.143 0-7.5 3.357-7.5 7.5s3.357 7.5 7.5 7.5h7.591l-13.591 18.121c-1.704 2.272-1.979 5.313-.708 7.854 1.271 2.54 3.867 4.146 6.708 4.146h22.591c4.143 0 7.5-3.357 7.5-7.5s-3.357-7.5-7.5-7.5h-7.591l13.591-18.121c1.704-2.272 1.978-5.313.708-7.854z"/><path d="m483.794 52.712h-18.887l24.887-33.182c1.704-2.272 1.979-5.313.708-7.854-1.271-2.54-3.867-4.146-6.708-4.146h-33.887c-4.143 0-7.5 3.357-7.5 7.5s3.357 7.5 7.5 7.5h18.887l-24.887 33.182c-1.704 2.272-1.979 5.313-.708 7.854 1.271 2.54 3.867 4.146 6.708 4.146h33.887c4.143 0 7.5-3.357 7.5-7.5s-3.357-7.5-7.5-7.5z"/></g></g><g/><g/><g/><g/><g/><g/><g/><g/><g/><g/><g/><g/><g/><g/><g/></svg>