<svg id="Capa_1" enable-background="new 0 0 512.007 512.007" viewBox="0 0 512.007 512.007" xmlns="http://www.w3.org/2000/svg"><g><g><g><g><g><g><g><g><circle cx="286.213" cy="239.571" fill="#fcc16d" r="61.611"/></g></g></g></g><g><g><g><g><path d="m347.827 239.574c0 34.02-27.59 61.61-61.61 61.61-4.38 0-8.65-.46-12.77-1.33 23.64-9.79 40.26-33.11 40.26-60.29 0-27.16-16.6-50.46-40.23-60.28 4.11-.87 8.37-1.32 12.74-1.32 34.02-.001 61.61 27.58 61.61 61.61z" fill="#fca62f"/></g></g></g></g><g><g><g><path d="m313.473 189.558 107.63 39.174c32.239 11.734 67.887-4.889 79.621-37.128 11.734-32.239-4.889-67.887-37.128-79.621l-107.63-39.174c-6.65-2.42-14.003 1.008-16.423 7.658l-33.728 92.668c-2.421 6.65 1.008 14.003 7.658 16.423z" fill="#fcc16d"/><path d="m500.719 191.601c-11.736 32.245-47.375 48.864-79.62 37.128l-48.188-17.539c32.233 11.732 67.884-4.882 79.62-37.128 5.864-16.111 4.637-33.084-2.075-47.499-6.716-14.403-18.93-26.253-35.053-32.121l48.188 17.539c16.123 5.868 28.337 17.718 35.053 32.121 6.712 14.415 7.939 31.388 2.075 47.499z" fill="#fca62f"/></g></g><g><path d="m198.502 188.747-107.63 39.174c-32.239 11.734-67.887-4.889-79.621-37.128-11.734-32.239 4.889-67.887 37.128-79.621l107.63-39.174c6.65-2.42 14.003 1.008 16.423 7.658l33.728 92.668c2.42 6.65-1.008 14.003-7.658 16.423z" fill="#c5d3dd"/><path d="m172.436 79.654 33.728 92.666c2.419 6.646-1.012 14.004-7.658 16.423l-48.199 17.543c6.646-2.419 10.077-9.777 7.658-16.423l-33.728-92.666c-2.419-6.647-9.777-10.077-16.423-7.658l48.199-17.543c6.646-2.419 14.003 1.012 16.423 7.658z" fill="#a0acb9"/></g></g><g><g><circle cx="196.375" cy="172.881" fill="#fca62f" r="61.611"/></g></g><path d="m183.193 233.064c4.248.926 8.655 1.428 13.181 1.428 34.027 0 61.611-27.584 61.611-61.611s-27.584-61.611-61.611-61.611c-4.531 0-8.942.503-13.194 1.431 24.497 9.014 41.957 32.562 41.957 60.184 0 27.617-17.453 51.161-41.944 60.179z" fill="#f98824"/><g><g><g><circle cx="170.589" cy="339.845" fill="#31a7fb" r="61.611"/><path d="m232.195 339.847c0 34.02-27.58 61.61-61.61 61.61-6.63 0-13.02-1.05-19.01-3 24.73-8 42.6-31.22 42.6-58.61s-17.87-50.61-42.6-58.61c5.99-1.95 12.38-3 19.01-3 34.03 0 61.61 27.58 61.61 61.61z" fill="#1c96f9"/></g></g></g><g><g><g><circle cx="328.815" cy="408.695" fill="#fb3a82" r="61.611"/><path d="m390.423 408.695c0 34.03-27.58 61.61-61.61 61.61-6.63 0-13.02-1.05-19.01-3 24.72-8 42.6-31.22 42.6-58.61s-17.88-50.61-42.6-58.61c5.99-1.95 12.38-3 19.01-3 34.03 0 61.61 27.58 61.61 61.61z" fill="#fb1466"/></g></g></g></g><g><path d="m438.494 289.097h-12.496v-12.496c0-5.215-4.228-9.443-9.443-9.443h-11.669c-5.215 0-9.443 4.228-9.443 9.443v12.496h-12.496c-5.215 0-9.443 4.228-9.443 9.443v11.669c0 5.215 4.228 9.443 9.443 9.443h12.496v12.496c0 5.215 4.228 9.443 9.443 9.443h11.669c5.215 0 9.443-4.228 9.443-9.443v-12.498h12.496c5.215 0 9.443-4.228 9.443-9.443v-11.669c0-5.214-4.228-9.441-9.443-9.441z" fill="#23f1a8"/></g><g><path d="m299.54 49.684h-12.496v-12.496c0-5.215-4.228-9.443-9.443-9.443h-11.669c-5.215 0-9.443 4.228-9.443 9.443v12.496h-12.496c-5.215 0-9.443 4.228-9.443 9.443v11.669c0 5.215 4.228 9.443 9.443 9.443h12.496v12.496c0 5.215 4.228 9.443 9.443 9.443h11.669c5.215 0 9.443-4.228 9.443-9.443v-12.497h12.496c5.215 0 9.443-4.228 9.443-9.443v-11.669c-.001-5.215-4.228-9.442-9.443-9.442z" fill="#23f1a8"/></g><g><path d="m116.424 431.769h-12.496v-12.496c0-5.215-4.228-9.443-9.443-9.443h-11.669c-5.215 0-9.443 4.228-9.443 9.443v12.496h-12.495c-5.215 0-9.443 4.228-9.443 9.443v11.669c0 5.215 4.228 9.443 9.443 9.443h12.496v12.496c0 5.215 4.228 9.443 9.443 9.443h11.669c5.215 0 9.443-4.228 9.443-9.443v-12.496h12.496c5.215 0 9.443-4.228 9.443-9.443v-11.669c-.002-5.215-4.229-9.443-9.444-9.443z" fill="#23f1a8"/></g></g></g><g><path d="m286.639 204.604h-16.414c-4.143 0-7.5 3.358-7.5 7.5v54.933c0 4.142 3.357 7.5 7.5 7.5h16.414c14.971 0 27.149-12.179 27.149-27.15v-15.634c0-14.97-12.179-27.149-27.149-27.149zm12.149 42.783c0 6.7-5.45 12.15-12.149 12.15h-8.914v-39.933h8.914c6.699 0 12.149 5.45 12.149 12.149z"/><path d="m505.447 140.935c-7.858-16.854-21.812-29.639-39.286-36l-107.63-39.174c-5.099-1.855-10.615-1.615-15.532.678-4.918 2.293-8.648 6.364-10.504 11.462l-33.729 92.668c-.119.327-.202.657-.303.986-4.026-.721-8.121-1.096-12.251-1.096-7.052 0-14.061 1.09-20.747 3.187.003-.256.019-.509.019-.766 0-38.108-31.003-69.111-69.111-69.111-2.381 0-4.734.121-7.054.357l-9.84-27.037c-3.831-10.524-15.511-15.971-26.036-12.141l-54.69 19.906c-3.893 1.417-5.899 5.721-4.483 9.613 1.417 3.893 5.719 5.898 9.613 4.483l54.69-19.906c2.75-1.004 5.809.422 6.811 3.176l9.139 25.109c-27.428 9.168-47.26 35.078-47.26 65.55 0 11.187 2.689 21.752 7.428 31.11l-46.385 16.883c-28.301 10.301-59.708-4.345-70.008-32.646-4.99-13.71-4.342-28.542 1.824-41.766 6.166-13.223 17.112-23.253 30.821-28.243l22.215-8.085c3.893-1.417 5.899-5.721 4.483-9.613-1.417-3.893-5.722-5.901-9.613-4.483l-22.215 8.085c-36.074 13.13-54.74 53.16-41.611 89.234 10.279 28.242 37.043 45.815 65.492 45.814 7.889 0 15.91-1.353 23.742-4.203l49.687-18.085c12.687 15.326 31.847 25.107 53.251 25.107 7.226 0 14.194-1.119 20.746-3.186-.003.255-.018.51-.018.764 0 38.108 31.003 69.111 69.11 69.111 11.775 0 23.419-3.029 33.67-8.76 3.616-2.021 4.908-6.59 2.888-10.206-2.022-3.616-6.593-4.909-10.206-2.887-8.021 4.483-17.133 6.853-26.352 6.853-29.836 0-54.11-24.274-54.11-54.111 0-2.655.201-5.309.583-7.92 14.809-9.183 25.905-23.798 30.486-41.045 7.163-3.369 15.064-5.146 23.042-5.146 4.706 0 9.351.608 13.849 1.796 2.286 4.184 6.024 7.596 10.845 9.351l13.914 5.064c9.997 10.178 15.503 23.616 15.503 37.9 0 9.473-2.498 18.809-7.225 26.997-2.071 3.587-.842 8.174 2.745 10.245 1.182.682 2.471 1.006 3.743 1.006 2.592 0 5.113-1.346 6.502-3.752 6.041-10.465 9.234-22.394 9.234-34.496 0-10.231-2.217-20.121-6.409-29.131l69.622 25.341c7.771 2.828 15.823 4.235 23.854 4.235 10.028 0 20.022-2.195 29.382-6.56 16.854-7.859 29.639-21.812 35.999-39.287 6.361-17.47 5.536-36.375-2.324-53.229zm-309.073 86.057c-29.837 0-54.111-24.274-54.111-54.111s24.274-54.111 54.111-54.111 54.111 24.274 54.111 54.111-24.274 54.111-54.111 54.111zm297.302-37.952c-4.989 13.709-15.02 24.656-28.242 30.822-13.223 6.167-28.057 6.813-41.766 1.823l-107.63-39.174c-2.753-1.002-4.178-4.058-3.176-6.811l33.729-92.667c.485-1.333 1.461-2.398 2.747-2.998 1.287-.6 2.729-.663 4.062-.177l107.63 39.174c13.711 4.99 24.657 15.02 30.822 28.243 6.166 13.222 6.814 28.054 1.824 41.765z"/><path d="m209.304 159.951c2.929 2.929 7.678 2.929 10.606 0 2.929-2.929 2.929-7.678 0-10.606-12.978-12.979-34.095-12.979-47.072 0-12.978 12.978-12.978 34.094 0 47.072 6.489 6.489 15.013 9.733 23.536 9.733s17.047-3.244 23.536-9.733c2.929-2.929 2.929-7.678 0-10.606-2.929-2.929-7.678-2.929-10.606 0-7.13 7.129-18.729 7.129-25.859 0-7.129-7.129-7.129-18.73 0-25.859 7.13-7.13 18.729-7.13 25.859-.001z"/><path d="m170.589 270.734c-38.108 0-69.111 31.003-69.111 69.11 0 38.108 31.003 69.111 69.111 69.111s69.111-31.003 69.111-69.111c0-38.107-31.003-69.11-69.111-69.11zm0 123.222c-29.837 0-54.111-24.274-54.111-54.111 0-29.836 24.274-54.11 54.111-54.11s54.111 24.274 54.111 54.11c0 29.837-24.274 54.111-54.111 54.111z"/><path d="m190.812 336.256c2.058-3.18 3.266-6.959 3.266-11.02 0-11.225-9.132-20.357-20.357-20.357h-19.121c-4.142 0-7.5 3.358-7.5 7.5v25.714 29.219c0 4.142 3.358 7.5 7.5 7.5h21.455c12.191 0 22.11-9.918 22.11-22.109-.001-6.525-2.843-12.397-7.353-16.447zm-28.712-16.377h11.621c2.954 0 5.357 2.403 5.357 5.357s-2.403 5.357-5.357 5.357h-11.621zm13.955 39.933h-13.955v-14.219h11.621 2.333c3.92 0 7.11 3.189 7.11 7.11 0 3.919-3.189 7.109-7.109 7.109z"/><path d="m328.815 339.584c-30.345 0-57.581 20.302-66.234 49.37-1.182 3.97 1.079 8.146 5.049 9.328 3.973 1.183 8.146-1.079 9.328-5.049 6.773-22.756 28.099-38.649 51.857-38.649 29.837 0 54.11 24.274 54.11 54.111s-24.273 54.111-54.11 54.111c-24.778 0-46.344-16.749-52.441-40.729-1.021-4.016-5.107-6.442-9.117-5.42-4.014 1.021-6.44 5.103-5.42 9.117 7.79 30.636 35.333 52.033 66.979 52.033 38.107 0 69.11-31.003 69.11-69.111s-31.003-69.112-69.111-69.112z"/><path d="m306.821 437.08c3.044 0 5.906-1.867 7.03-4.887l2.244-6.032h25.438l2.244 6.032c1.445 3.882 5.762 5.858 9.645 4.414 3.882-1.444 5.858-5.763 4.414-9.645l-16.595-44.601c-1.923-5.164-6.917-8.634-12.427-8.634-5.512 0-10.507 3.471-12.428 8.636l-16.595 44.599c-1.444 3.882.531 8.2 4.414 9.645.864.321 1.747.473 2.616.473zm29.132-25.918h-14.276l7.138-19.184z"/><path d="m438.494 281.597h-4.996v-4.996c0-9.342-7.601-16.943-16.942-16.943h-11.669c-9.342 0-16.942 7.601-16.942 16.943v4.996h-4.996c-9.342 0-16.942 7.6-16.942 16.942v11.668c0 9.342 7.601 16.943 16.942 16.943h4.996v4.996c0 9.342 7.601 16.942 16.942 16.942h11.669c9.342 0 16.942-7.6 16.942-16.942v-4.996h4.996c9.342 0 16.942-7.601 16.942-16.943v-11.668c0-9.342-7.6-16.942-16.942-16.942zm1.942 28.611c0 1.071-.871 1.943-1.942 1.943h-12.496c-4.143 0-7.5 3.358-7.5 7.5v12.496c0 1.071-.871 1.942-1.942 1.942h-11.669c-1.071 0-1.942-.872-1.942-1.942v-12.496c0-4.142-3.357-7.5-7.5-7.5h-12.496c-1.071 0-1.942-.872-1.942-1.943v-11.668c0-1.071.871-1.942 1.942-1.942h12.496c4.143 0 7.5-3.358 7.5-7.5v-12.496c0-1.071.871-1.943 1.942-1.943h11.669c1.071 0 1.942.872 1.942 1.943v12.496c0 4.142 3.357 7.5 7.5 7.5h12.496c1.071 0 1.942.872 1.942 1.942z"/><path d="m243.994 87.737h4.997v4.996c0 9.342 7.6 16.943 16.942 16.943h11.669c9.342 0 16.942-7.601 16.942-16.943v-4.996h4.996c9.342 0 16.942-7.6 16.942-16.942v-11.668c0-9.342-7.601-16.943-16.942-16.943h-4.996v-4.996c0-9.342-7.601-16.942-16.942-16.942h-11.669c-9.342 0-16.942 7.6-16.942 16.942v4.996h-4.997c-9.342 0-16.942 7.601-16.942 16.943v11.668c-.001 9.342 7.599 16.942 16.942 16.942zm-1.943-28.61c0-1.071.872-1.943 1.942-1.943h12.497c4.143 0 7.5-3.358 7.5-7.5v-12.496c0-1.071.871-1.942 1.942-1.942h11.669c1.071 0 1.942.872 1.942 1.942v12.496c0 4.142 3.357 7.5 7.5 7.5h12.496c1.071 0 1.942.872 1.942 1.943v11.668c0 1.071-.871 1.942-1.942 1.942h-12.496c-4.143 0-7.5 3.358-7.5 7.5v12.496c0 1.071-.871 1.943-1.942 1.943h-11.669c-1.071 0-1.942-.872-1.942-1.943v-12.496c0-4.142-3.357-7.5-7.5-7.5h-12.497c-1.071 0-1.942-.872-1.942-1.942z"/><path d="m116.424 424.27h-4.996v-4.996c0-9.342-7.601-16.943-16.943-16.943h-11.669c-9.342 0-16.942 7.601-16.942 16.943v4.996h-4.996c-9.342 0-16.943 7.6-16.943 16.942v11.668c0 9.342 7.601 16.943 16.943 16.943h4.996v4.996c0 9.342 7.6 16.942 16.942 16.942h11.668c9.342 0 16.943-7.6 16.943-16.942v-4.996h4.996c9.342 0 16.942-7.601 16.942-16.943v-11.668c.001-9.342-7.599-16.942-16.941-16.942zm1.942 28.61c0 1.071-.872 1.943-1.942 1.943h-12.496c-4.142 0-7.5 3.358-7.5 7.5v12.496c0 1.071-.872 1.942-1.943 1.942h-11.669c-1.071 0-1.942-.872-1.942-1.942v-12.496c0-4.142-3.358-7.5-7.5-7.5h-12.496c-1.071 0-1.943-.872-1.943-1.943v-11.668c0-1.071.872-1.942 1.943-1.942h12.496c4.142 0 7.5-3.358 7.5-7.5v-12.496c0-1.071.872-1.943 1.942-1.943h11.668c1.071 0 1.943.872 1.943 1.943v12.496c0 4.142 3.358 7.5 7.5 7.5h12.496c1.071 0 1.942.872 1.942 1.942v11.668z"/></g></g><g/><g/><g/><g/><g/><g/><g/><g/><g/><g/><g/><g/><g/><g/><g/></svg>