<svg id="Layer_1" enable-background="new 0 0 512 512" viewBox="0 0 512 512" xmlns="http://www.w3.org/2000/svg"><g id="Layer_2_00000096762957127026385580000006704961147799726484_"><g id="menu_"><path d="m511.8 187.2c0-.3 0-.5 0-.8-.6-10.8-2.3-21.5-5.4-31.9h-.4c-17.1-54.1-67.2-90.8-123.9-90.8h-214.9l-.5-.7c-3.9-6-10.7-9.7-17.9-9.7h-8.5c-77.5 0-140.3 62.8-140.3 140.3v124.8c0 77.5 62.8 140.3 140.3 140.3h231.4c77.5 0 140.3-62.8 140.3-140.3v-124.8c0-2.1-.1-4.3-.2-6.4zm-163.1 200.4h-185.4c-9.5 0-17.3-7.7-17.3-17.3 0-9.5 7.7-17.3 17.3-17.3h185.4c9.5 0 17.3 7.7 17.3 17.3 0 9.5-7.7 17.3-17.3 17.3zm17.3-85.6c0 9.5-7.7 17.3-17.2 17.3h-185.5c-9.5 0-17.3-7.7-17.3-17.3 0-9.5 7.7-17.3 17.3-17.3h185.4c9.6 0 17.3 7.8 17.3 17.3zm0-68.3c0 9.5-7.7 17.3-17.3 17.3h-185.4c-9.5 0-17.3-7.7-17.3-17.3 0-9.5 7.7-17.3 17.3-17.3h185.4c9.6 0 17.3 7.8 17.3 17.3zm-140.8-79.1-41.2-63.1h189.3c43.6-.1 83.6 24.3 103.3 63.1z"/></g></g></svg>