<svg id="Layer_1" viewBox="0 0 128 128" xmlns="http://www.w3.org/2000/svg" data-name="Layer 1"><path d="m103.86 79.34-22.18-24.52a15.6086 15.6086 0 0 1 -4.06-10.5v-6.67a4.00367 4.00367 0 0 0 2.38-3.65v-6a4.00376 4.00376 0 0 0 -2.38-3.65v-6.26a4.08632 4.08632 0 0 0 -3.62-4.04v-8.05a6.00476 6.00476 0 0 0 -6-6h-8a6.00476 6.00476 0 0 0 -6 6v8.05a4.08632 4.08632 0 0 0 -3.62 4.04v6.26a4.00376 4.00376 0 0 0 -2.38 3.65v6a4.00367 4.00367 0 0 0 2.38 3.65v6.67a15.6521 15.6521 0 0 1 -4.06 10.51l-22.18 24.51a8.18179 8.18179 0 0 0 -1.3 9.12l17.58 36.05a6.27223 6.27223 0 0 0 5.61 3.49h35.94a6.27223 6.27223 0 0 0 5.61-3.49l17.58-36.05a8.18179 8.18179 0 0 0 -1.3-9.12zm-45.86-73.34a2.00587 2.00587 0 0 1 2-2h8a2.00587 2.00587 0 0 1 2 2v8h-12zm-3.62 12.09a.102.102 0 0 1 .11-.09h19.02a.102.102 0 0 1 .11.09v5.91h-19.24zm-2.38 9.91h24v6h-24zm49.57 58.71-17.59 36.05a2.23258 2.23258 0 0 1 -2.01 1.24h-35.94a2.23258 2.23258 0 0 1 -2.01-1.24l-17.59-36.05a4.22232 4.22232 0 0 1 .67-4.69l22.18-24.51a19.62 19.62 0 0 0 5.1-13.19v-6.32h19.24v6.32a19.62 19.62 0 0 0 5.1 13.19l22.18 24.51a4.22232 4.22232 0 0 1 .67 4.69z" fill="#2d4356"/><path d="m70 6v8h-12v-8a2.00587 2.00587 0 0 1 2-2h8a2.00587 2.00587 0 0 1 2 2z" fill="#ffdb80"/><path d="m73.62 18.09v5.91h-19.24v-5.91a.102.102 0 0 1 .11-.09h19.02a.102.102 0 0 1 .11.09z" fill="#e1ebf4"/><path d="m52 28h24v6h-24z" fill="#ffdb80"/><path d="m100.9 82.02-22.18-24.51a19.62 19.62 0 0 1 -5.1-13.19v-6.32h-19.24v6.32a19.62 19.62 0 0 1 -5.1 13.19l-22.18 24.51a4.22232 4.22232 0 0 0 -.67 4.69l17.59 36.05a2.23258 2.23258 0 0 0 2.01 1.24h35.94a2.23258 2.23258 0 0 0 2.01-1.24l17.59-36.05a4.22232 4.22232 0 0 0 -.67-4.69zm-53.72-12.04c.39-4.12 4.09-7.43 10.7-9.56a21.41744 21.41744 0 0 1 12.92-.09c7.75 2.38 9.73 6.56006 10.02 9.65.44 4.74-.03 6.37-.41 7.68a5.18271 5.18271 0 0 0 -.26 2.22 4.87266 4.87266 0 0 1 -3.11 4.85c-2.1.84-2.8 1.59-2.88 1.78a45.26835 45.26835 0 0 0 -.04 6.93 5.92168 5.92168 0 0 1 -1.94 4.68 11.68315 11.68315 0 0 1 -8.09 2.88h-.18a11.68315 11.68315 0 0 1 -8.09-2.88 5.92168 5.92168 0 0 1 -1.94-4.68 44.22209 44.22209 0 0 0 -.05-6.97c-.07-.15-.77-.9-2.87-1.74a4.87266 4.87266 0 0 1 -3.11-4.85 5.18271 5.18271 0 0 0 -.26-2.22c-.38-1.31-.85-2.94-.41-7.68zm31.6 41.6 2.37-1.11a1.99964 1.99964 0 0 1 1.7 3.62l-1.38.65.64 1.45a1.99413 1.99413 0 0 1 -1.02 2.64 1.93222 1.93222 0 0 1 -.81.17 2.01815 2.01815 0 0 1 -1.83-1.19l-1.09-2.49-13.36-5.18-13.36 5.18-1.09 2.49a2.01815 2.01815 0 0 1 -1.83 1.19 1.93222 1.93222 0 0 1 -.81-.17 1.99413 1.99413 0 0 1 -1.02-2.64l.64-1.45-1.38-.65a1.99964 1.99964 0 0 1 1.7-3.62l2.37 1.11 9.24-3.58-9.24-3.58-2.37 1.11a1.95113 1.95113 0 0 1 -.85.19 1.99987 1.99987 0 0 1 -.85-3.81l1.38-.65-.64-1.45a2.00124 2.00124 0 1 1 3.66-1.62l1.09 2.49 13.36 5.18 13.36-5.18 1.09-2.49a2.00124 2.00124 0 1 1 3.66 1.62l-.64 1.45 1.38.65a1.99987 1.99987 0 0 1 -.85 3.81 1.95113 1.95113 0 0 1 -.85-.19l-2.37-1.11-9.24 3.58z" fill="#fc785e"/><path d="m80.82 69.98c-.29-3.09-2.27-7.27-10.02-9.65a21.41744 21.41744 0 0 0 -12.92.09c-6.61 2.13-10.31 5.44-10.7 9.56-.44 4.74.03 6.37.41 7.68a5.18271 5.18271 0 0 1 .26 2.22 4.87266 4.87266 0 0 0 3.11 4.85c2.1.84 2.8 1.59 2.87 1.74a44.22209 44.22209 0 0 1 .05 6.97 5.92168 5.92168 0 0 0 1.94 4.68 11.68315 11.68315 0 0 0 8.09 2.88h.18a11.68315 11.68315 0 0 0 8.09-2.88 5.92168 5.92168 0 0 0 1.94-4.68 45.26835 45.26835 0 0 1 .04-6.93c.08-.19.78-.94 2.88-1.78a4.87266 4.87266 0 0 0 3.11-4.85 5.18271 5.18271 0 0 1 .26-2.22c.38-1.31.85-2.94.41-7.68zm-11.31 25.17a7.85728 7.85728 0 0 1 -5.42 1.85h-.18a7.85728 7.85728 0 0 1 -5.42-1.85 1.9167 1.9167 0 0 1 -.61-1.53c.02-.48.04-1 .05-1.52a18.60592 18.60592 0 0 0 5.96.9h.22a18.60592 18.60592 0 0 0 5.96-.9c.01.52.03 1.04.05 1.52a1.9167 1.9167 0 0 1 -.61 1.53zm7.06-18.61a9.09671 9.09671 0 0 0 -.41 3.6.91177.91177 0 0 1 -.6.87994c-3.27 1.3-5.01 2.87006-5.33 4.8a16.47725 16.47725 0 0 0 -.17 1.98 13.31538 13.31538 0 0 1 -5.95 1.20006h-.22a13.31538 13.31538 0 0 1 -5.95-1.2 16.85526 16.85526 0 0 0 -.17-1.99c-.32-1.92-2.06-3.49-5.33-4.79a.90824.90824 0 0 1 -.6-.87 9.12445 9.12445 0 0 0 -.41-3.61c-.3-1.03-.64-2.2-.27-6.18.3-3.2 5.11-5.22 7.95-6.13a17.43053 17.43053 0 0 1 5.38-.85 17.67491 17.67491 0 0 1 5.13.77c4.53 1.39 6.96 3.48 7.22 6.2.37 3.99.03 5.16-.27 6.19z" fill="#2d4356"/><path d="m70.12 93.62a1.9167 1.9167 0 0 1 -.61 1.53 7.85728 7.85728 0 0 1 -5.42 1.85h-.18a7.85728 7.85728 0 0 1 -5.42-1.85 1.9167 1.9167 0 0 1 -.61-1.53c.02-.48.04-1 .05-1.52a18.60592 18.60592 0 0 0 5.96.9h.22a18.60592 18.60592 0 0 0 5.96-.9c.01.52.03 1.04.05 1.52z" fill="#e1ebf4"/><path d="m76.84 70.35c-.26-2.72-2.69-4.81-7.22-6.2a17.67491 17.67491 0 0 0 -5.13-.77 17.43053 17.43053 0 0 0 -5.38.85c-2.84.91-7.65 2.93-7.95 6.13-.37 3.98-.03 5.15.27 6.18a9.12445 9.12445 0 0 1 .41 3.61.90824.90824 0 0 0 .6.87c3.27 1.3 5.01 2.87006 5.33 4.79a16.85526 16.85526 0 0 1 .17 1.99 13.31538 13.31538 0 0 0 5.95 1.2h.22a13.31538 13.31538 0 0 0 5.95-1.2 16.47725 16.47725 0 0 1 .17-1.98c.32-1.93 2.06-3.5 5.33-4.8a.91177.91177 0 0 0 .6-.87994 9.09671 9.09671 0 0 1 .41-3.6c.3-1.03006.64-2.20006.27-6.19006zm-18.34 6.65a3 3 0 1 1 3-3 2.996 2.996 0 0 1 -3 3zm7.99 5.47-2.09.92a1.04065 1.04065 0 0 1 -.8 0l-2.09-.92a1.0077 1.0077 0 0 1 -.44-1.46l2.09-3.26a.997.997 0 0 1 1.68005 0l2.09 3.26a1.0077 1.0077 0 0 1 -.44005 1.46zm3.01-5.47a3 3 0 1 1 3-3 2.996 2.996 0 0 1 -3 3z" fill="#e1ebf4"/><g fill="#2d4356"><circle cx="58.5" cy="74" r="3"/><circle cx="69.5" cy="74" r="3"/><path d="m66.49 82.47-2.09.92a1.04065 1.04065 0 0 1 -.8 0l-2.09-.92a1.0077 1.0077 0 0 1 -.44-1.46l2.09-3.26a.997.997 0 0 1 1.68005 0l2.09 3.26a1.0077 1.0077 0 0 1 -.44005 1.46z"/><path d="m83.81 111.43a1.99887 1.99887 0 0 1 -.96 2.66l-1.38.65.64 1.45a1.99413 1.99413 0 0 1 -1.02 2.64 1.93222 1.93222 0 0 1 -.81.17 2.01815 2.01815 0 0 1 -1.83-1.19l-1.09-2.49-13.36-5.18-13.36 5.18-1.09 2.49a2.01815 2.01815 0 0 1 -1.83 1.19 1.93222 1.93222 0 0 1 -.81-.17 1.99413 1.99413 0 0 1 -1.02-2.64l.64-1.45-1.38-.65a1.99964 1.99964 0 0 1 1.7-3.62l2.37 1.11 9.24-3.58-9.24-3.58-2.37 1.11a1.95113 1.95113 0 0 1 -.85.19 1.99987 1.99987 0 0 1 -.85-3.81l1.38-.65-.64-1.45a2.00124 2.00124 0 1 1 3.66-1.62l1.09 2.49 13.36 5.18 13.36-5.18 1.09-2.49a2.00124 2.00124 0 1 1 3.66 1.62l-.64 1.45 1.38.65a1.99987 1.99987 0 0 1 -.85 3.81 1.95113 1.95113 0 0 1 -.85-.19l-2.37-1.11-9.24 3.58 9.24 3.58 2.37-1.11a1.99892 1.99892 0 0 1 2.66.96z"/></g><path d="m54.38 44.32v2a19.62 19.62 0 0 1 -5.1 13.19l-22.18 24.51a4.26012 4.26012 0 0 0 -.97 1.84 4.21057 4.21057 0 0 1 .97-3.84l22.18-24.51a19.62 19.62 0 0 0 5.1-13.19z" fill="#f9dbd7" opacity=".3"/><path d="m101.87 85.86a4.26012 4.26012 0 0 0 -.97-1.84l-22.18-24.51a19.62 19.62 0 0 1 -5.1-13.19v-2a19.62 19.62 0 0 0 5.1 13.19l22.18 24.51a4.21057 4.21057 0 0 1 .97 3.84z" fill="#f9dbd7" opacity=".3"/><path d="m52 28h24v2h-24z" fill="#f9edd2" opacity=".5"/><path d="m73.62 18.09v2a.102.102 0 0 0 -.11-.09h-19.02a.102.102 0 0 0 -.11.09v-2a.102.102 0 0 1 .11-.09h19.02a.102.102 0 0 1 .11.09z" fill="#fff" opacity=".5"/><path d="m70 6v2a2.00587 2.00587 0 0 0 -2-2h-8a2.00587 2.00587 0 0 0 -2 2v-2a2.00587 2.00587 0 0 1 2-2h8a2.00587 2.00587 0 0 1 2 2z" fill="#f9edd2" opacity=".5"/><path d="m101.57 86.71-17.59 36.05a2.23258 2.23258 0 0 1 -2.01 1.24h-35.94a2.23258 2.23258 0 0 1 -2.01-1.24l-17.59-36.05a4.15616 4.15616 0 0 1 -.3-2.85 3.45141 3.45141 0 0 0 .3.85l17.59 36.05a2.23258 2.23258 0 0 0 2.01 1.24h35.94a2.23258 2.23258 0 0 0 2.01-1.24l17.59-36.05a3.45141 3.45141 0 0 0 .3-.85 4.15616 4.15616 0 0 1 -.3 2.85z" fill="#a54b3f" opacity=".5"/><path d="m76.57 76.54a9.09671 9.09671 0 0 0 -.41 3.6.91177.91177 0 0 1 -.6.87994c-3.27 1.3-5.01 2.87006-5.33 4.8a16.47725 16.47725 0 0 0 -.17 1.98 13.31538 13.31538 0 0 1 -5.95 1.20006h-.22a13.31538 13.31538 0 0 1 -5.95-1.2 16.85526 16.85526 0 0 0 -.17-1.99c-.32-1.92-2.06-3.49-5.33-4.79a.90824.90824 0 0 1 -.6-.87 9.12445 9.12445 0 0 0 -.41-3.61 11.03687 11.03687 0 0 1 -.4-4.25 8.54562 8.54562 0 0 0 .4 2.25 9.12445 9.12445 0 0 1 .41 3.61.90824.90824 0 0 0 .6.87c3.27 1.3 5.01 2.87006 5.33 4.79a16.85526 16.85526 0 0 1 .17 1.99 13.31538 13.31538 0 0 0 5.95 1.2h.22a13.31538 13.31538 0 0 0 5.95-1.2 16.47725 16.47725 0 0 1 .17-1.98c.32-1.93 2.06-3.5 5.33-4.8a.91177.91177 0 0 0 .6-.87994 9.09671 9.09671 0 0 1 .41-3.6 8.55364 8.55364 0 0 0 .4-2.26 11.06822 11.06822 0 0 1 -.4 4.25994z" fill="#9fa5aa" opacity=".5"/><path d="m76.97 74.28c-.02-.56-.06-1.2-.12994-1.93-.26-2.72-2.69-4.81-7.22-6.2a17.67491 17.67491 0 0 0 -5.13-.77 17.43053 17.43053 0 0 0 -5.38.85c-2.84.91-7.65 2.93-7.95 6.13-.06995.73-.11 1.37-.12994 1.93a25.01631 25.01631 0 0 1 .12988-3.93c.3-3.2 5.11-5.22 7.95-6.13a17.43053 17.43053 0 0 1 5.38-.85 17.67491 17.67491 0 0 1 5.13.77c4.53 1.39 6.96 3.48 7.22 6.2a25.04051 25.04051 0 0 1 .13 3.93z" fill="#fff" opacity=".5"/><path d="m70.12 93.62a1.9167 1.9167 0 0 1 -.61 1.53 7.85728 7.85728 0 0 1 -5.42 1.85h-.18a7.85728 7.85728 0 0 1 -5.42-1.85 1.9167 1.9167 0 0 1 -.61-1.53c.02-.46.04-.96.05-1.46a1.82831 1.82831 0 0 0 .56.99 7.85728 7.85728 0 0 0 5.42 1.85h.18a7.85728 7.85728 0 0 0 5.42-1.85 1.82831 1.82831 0 0 0 .56-.99c.01.5.03 1 .05 1.46z" fill="#9fa5aa" opacity=".5"/></svg>