<svg id="Capa_1" enable-background="new 0 0 512 512" height="512" viewBox="0 0 512 512" width="512" xmlns="http://www.w3.org/2000/svg"><g><g><path d="m357.017 126.412v-38.099h-202.033v38.099c0 5.358-2.129 10.497-5.917 14.286l-32.756 32.756c-7.578 7.578-11.835 17.855-11.835 28.572v262.068c0 22.316 18.091 40.406 40.407 40.406h222.236c22.316 0 40.406-18.091 40.406-40.406v-262.068c0-10.716-4.257-20.994-11.835-28.572l-32.756-32.756c-3.789-3.789-5.917-8.928-5.917-14.286z" fill="#e7a561"/></g><g><path d="m395.69 173.454-32.756-32.756c-3.789-3.789-5.917-8.928-5.917-14.286v-38.099h-26.264v48.488c0 5.358 2.129 10.497 5.917 14.286l32.756 32.756c7.578 7.578 11.835 17.855 11.835 28.572v251.679c0 22.316-18.091 40.406-40.406 40.406h26.264c22.316 0 40.406-18.091 40.406-40.406v-262.068c0-10.717-4.258-20.995-11.835-28.572z" fill="#e49542"/></g><g><path d="m104.476 236.302h303.049v202.033h-303.049z" fill="#e4f6ff"/></g><g><path d="m381.26 236.302h26.264v202.033h-26.264z" fill="#b1e4f9"/></g><g><path d="m367.118 88.313h-222.236c-5.579 0-10.102-4.523-10.102-10.102v-60.61c0-5.579 4.523-10.102 10.102-10.102h222.236c5.579 0 10.102 4.523 10.102 10.102v60.61c0 5.579-4.523 10.102-10.102 10.102z" fill="#e4f6ff"/></g><g><path d="m367.118 7.5h-21.213c5.579 0 10.102 4.523 10.102 10.102v60.61c0 5.579-4.523 10.102-10.102 10.102h21.213c5.579 0 10.102-4.523 10.102-10.102v-60.61c0-5.579-4.523-10.102-10.102-10.102z" fill="#b1e4f9"/></g><g><g><path d="m150.943 366.108h200.012v32.325h-200.012z" fill="#ffe07d"/></g></g><g><path d="m344.895 63.488c4.143 0 7.5-3.358 7.5-7.5v-16.163c0-4.142-3.357-7.5-7.5-7.5s-7.5 3.358-7.5 7.5v16.163c0 4.142 3.357 7.5 7.5 7.5z"/><path d="m300.448 63.488c4.143 0 7.5-3.358 7.5-7.5v-16.163c0-4.142-3.357-7.5-7.5-7.5s-7.5 3.358-7.5 7.5v16.163c0 4.142 3.357 7.5 7.5 7.5z"/><path d="m167.106 32.325c-4.142 0-7.5 3.358-7.5 7.5v16.163c0 4.142 3.358 7.5 7.5 7.5s7.5-3.358 7.5-7.5v-16.163c0-4.142-3.358-7.5-7.5-7.5z"/><path d="m211.553 32.325c-4.142 0-7.5 3.358-7.5 7.5v16.163c0 4.142 3.358 7.5 7.5 7.5s7.5-3.358 7.5-7.5v-16.163c0-4.142-3.358-7.5-7.5-7.5z"/><path d="m256 63.488c4.143 0 7.5-3.358 7.5-7.5v-16.163c0-4.142-3.357-7.5-7.5-7.5-4.142 0-7.5 3.358-7.5 7.5v16.163c0 4.142 3.358 7.5 7.5 7.5z"/><path d="m143.443 366.108v32.325c0 4.142 3.358 7.5 7.5 7.5h200.012c4.143 0 7.5-3.358 7.5-7.5v-32.325c0-4.142-3.357-7.5-7.5-7.5h-200.012c-4.142 0-7.5 3.358-7.5 7.5zm15 7.5h185.012v17.325h-185.012z"/><path d="m263.5 333.783v-64.65c0-4.142-3.357-7.5-7.5-7.5-4.142 0-7.5 3.358-7.5 7.5v64.65c0 4.142 3.358 7.5 7.5 7.5 4.143 0 7.5-3.358 7.5-7.5z"/><path d="m201.697 341.283h.063c3.81-.026 7.194-2.468 8.437-6.125l21.109-63.542c1.306-3.931-.822-8.176-4.753-9.482-3.931-1.307-8.176.822-9.482 4.753l-15.499 46.654-16.268-46.868c-1.358-3.914-5.632-5.983-9.545-4.626-3.913 1.358-5.984 5.632-4.626 9.545l22.123 63.733c1.269 3.57 4.655 5.958 8.441 5.958z"/><path d="m324.03 261.632h-35.704c-4.143 0-7.5 3.358-7.5 7.5s3.357 7.5 7.5 7.5h10.279v57.15c0 4.142 3.357 7.5 7.5 7.5s7.5-3.358 7.5-7.5v-57.15h10.425c4.143 0 7.5-3.358 7.5-7.5s-3.358-7.5-7.5-7.5z"/><circle cx="339.844" cy="329.742" r="11.112"/><path d="m400.993 168.146-32.76-32.749c-2.396-2.395-3.714-5.586-3.714-8.987v-30.6h2.601c9.704 0 17.6-7.896 17.6-17.6v-60.61c0-9.705-7.896-17.6-17.6-17.6h-222.24c-9.705 0-17.6 7.896-17.6 17.6v60.61c0 9.705 7.896 17.6 17.6 17.6h2.6v30.6c0 3.4-1.319 6.592-3.713 8.986l-32.76 32.75c-9.045 9.045-14.027 21.078-14.027 33.883v162.74c0 4.142 3.358 7.5 7.5 7.5s7.5-3.358 7.5-7.5v-120.967h288.04v29.908c0 4.142 3.357 7.5 7.5 7.5s7.5-3.358 7.5-7.5v-71.68c0-12.804-4.982-24.838-14.027-33.884zm-289.013 60.656v-26.772c0-8.798 3.421-17.064 9.633-23.275l32.76-32.751c5.228-5.228 8.107-12.186 8.107-19.593v-30.6h38.72c4.142 0 7.5-3.358 7.5-7.5s-3.358-7.5-7.5-7.5h-56.32c-1.434 0-2.6-1.167-2.6-2.6v-60.611c0-1.434 1.167-2.6 2.6-2.6h222.24c1.434 0 2.6 1.167 2.6 2.6v60.61c0 1.434-1.166 2.6-2.6 2.6h-130.92c-4.142 0-7.5 3.358-7.5 7.5s3.358 7.5 7.5 7.5h113.32v30.6c0 7.407 2.879 14.366 8.107 19.594l32.76 32.749c6.212 6.212 9.633 14.479 9.633 23.276v26.772h-288.04z"/><path d="m407.52 301.21c-4.143 0-7.5 3.358-7.5 7.5v122.125h-288.04v-31.065c0-4.142-3.358-7.5-7.5-7.5s-7.5 3.358-7.5 7.5v64.32c0 26.418 21.488 47.91 47.9 47.91h222.24c26.412 0 47.899-21.492 47.899-47.91v-155.38c.001-4.142-3.357-7.5-7.499-7.5zm-40.4 195.79h-222.24c-18.141 0-32.9-14.763-32.9-32.91v-18.255h288.04v18.255c0 18.147-14.759 32.91-32.9 32.91z"/></g></g></svg>